<?xml version="1.0" encoding="UTF-8"?>
<svg id="Layer_2" data-name="Layer 2" xmlns="http://www.w3.org/2000/svg" viewBox="0 0 1122.5 1122.49">
  <defs>
    <style>
      .cls-1 {
        fill: #fff;
      }
    </style>
  </defs>
  <g id="Layer_1-2" data-name="Layer 1">
    <path class="cls-1" d="M561.25,1122.49C251.77,1122.49,0,870.72,0,561.25S251.77,0,561.25,0s561.25,251.77,561.25,561.25-251.77,561.24-561.25,561.24Zm0-1113.65C256.65,8.84,8.84,256.65,8.84,561.25s247.81,552.4,552.4,552.4,552.41-247.81,552.41-552.4S865.85,8.84,561.25,8.84Z"/>
    <path class="cls-1" d="M561.25,994.32c-238.8,0-433.08-194.27-433.08-433.07S322.45,128.17,561.25,128.17s433.07,194.28,433.07,433.08-194.27,433.07-433.07,433.07Zm0-857.3c-233.92,0-424.23,190.31-424.23,424.23s190.31,424.23,424.23,424.23,424.23-190.31,424.23-424.23-190.31-424.23-424.23-424.23Z"/>
    <rect class="cls-1" x="520.15" y="916.35" width="81.46" height="8.84"/>
    <g>
      <path class="cls-1" d="M110.59,441.52c-.16,.54-.45,.91-.86,1.1-.41,.2-.86,.22-1.35,.07l-47.98-14.75c-.54-.17-.92-.44-1.15-.84-.23-.39-.26-.86-.09-1.4l5.13-16.68c1.55-5.05,3.56-8.88,6.03-11.5,2.47-2.62,5.4-4.18,8.8-4.69,3.4-.51,7.26-.12,11.59,1.15,2.22,.63,4.16,1.2,5.83,1.71,1.66,.51,3.57,1.13,5.71,1.84,4.48,1.48,7.98,3.38,10.52,5.69,2.54,2.31,4.06,5.19,4.58,8.65,.52,3.46,.02,7.66-1.5,12.61l-5.24,17.05Zm-4.55-7.43l3.43-11.17c1.04-3.38,1.4-6.22,1.09-8.51-.31-2.29-1.36-4.21-3.14-5.75-1.78-1.54-4.35-2.85-7.72-3.94-1.44-.55-2.71-.99-3.81-1.33-1.1-.34-2.2-.68-3.31-1.02s-2.38-.68-3.83-1.02c-4.78-1.36-8.64-1.32-11.58,.14-2.94,1.46-5.19,4.73-6.76,9.82l-3.32,10.8,38.95,11.97Z"/>
      <path class="cls-1" d="M135,372.37c-.25,.51-.59,.83-1.02,.95s-.88,.08-1.34-.14l-45.11-22.02c-.51-.25-.84-.58-1.01-1-.16-.42-.12-.89,.12-1.39l8.23-16.86c2.54-5.2,5.78-8.73,9.7-10.58,3.93-1.85,8.28-1.6,13.07,.74,3.55,1.73,6,4.03,7.37,6.89,1.37,2.86,1.75,6.03,1.14,9.5l23.57-1.67c.34,0,.63,.05,.86,.16,.37,.18,.62,.49,.75,.92,.13,.44,.11,.84-.08,1.2l-1.62,3.32c-.38,.78-.87,1.26-1.46,1.42-.59,.17-1.17,.28-1.72,.36l-22.44,1.45-5.9,12.09,17.82,8.7c.46,.23,.77,.56,.92,1.01,.15,.45,.11,.92-.14,1.43l-1.72,3.52Zm-22.75-17.53l5.56-11.4c1.69-3.45,2.22-6.39,1.6-8.8-.62-2.41-2.35-4.32-5.21-5.71-2.81-1.37-5.36-1.58-7.66-.61-2.3,.96-4.3,3.19-6.01,6.69l-5.56,11.4,17.27,8.43Z"/>
      <path class="cls-1" d="M169.28,309.54c-.31,.47-.68,.75-1.13,.82-.45,.08-.89-.02-1.31-.3l-42.15-27.41c-.43-.28-.7-.64-.81-1.08s-.01-.9,.29-1.37l2.22-3.41c.28-.43,.65-.69,1.11-.79,.46-.1,.91,0,1.34,.27l42.15,27.41c.43,.28,.69,.65,.79,1.11,.1,.46,0,.91-.27,1.34l-2.22,3.42Z"/>
      <path class="cls-1" d="M202.73,263.94c-.5,.59-1.02,.94-1.57,1.04-.56,.1-1.15,.05-1.79-.15l-48.87-18.67c-.3-.12-.55-.26-.75-.43-.31-.26-.49-.61-.53-1.05-.04-.43,.07-.81,.34-1.12l2.57-3.06c.39-.47,.83-.73,1.3-.77,.47-.04,.82,0,1.05,.13l43.06,16.5-23.68-39.57c-.13-.24-.22-.59-.28-1.04s.11-.91,.51-1.38l2.57-3.06c.26-.31,.62-.5,1.07-.56,.45-.06,.83,.04,1.15,.31,.2,.17,.38,.39,.55,.66l26.77,44.98c.34,.55,.51,1.11,.5,1.68,0,.56-.26,1.14-.75,1.73l-3.21,3.83Z"/>
      <path class="cls-1" d="M241.34,222.49c-.42,.37-.86,.54-1.31,.49-.45-.04-.85-.26-1.19-.64l-33.28-37.58c-.37-.42-.56-.86-.55-1.31,0-.45,.22-.87,.65-1.24l23.77-21.05c.42-.37,.86-.54,1.31-.49,.45,.05,.86,.28,1.24,.7l1.94,2.19c.37,.42,.55,.85,.52,1.28-.03,.44-.25,.84-.67,1.21l-19.57,17.33,11.16,12.61,18.3-16.2c.42-.37,.86-.54,1.31-.49,.45,.05,.86,.28,1.24,.7l1.89,2.13c.34,.38,.51,.8,.5,1.26,0,.45-.23,.87-.65,1.24l-18.3,16.2,11.57,13.06,20.03-17.73c.42-.37,.85-.55,1.28-.52,.44,.03,.84,.25,1.21,.67l1.99,2.25c.34,.38,.51,.8,.5,1.26,0,.45-.22,.87-.65,1.24l-24.23,21.45Z"/>
      <path class="cls-1" d="M293.23,179.98c-.48,.31-.93,.4-1.37,.29-.44-.11-.8-.38-1.08-.82l-27.25-42.16c-.31-.47-.42-.93-.34-1.38,.08-.45,.35-.82,.83-1.13l2.97-1.92c.52-.33,.98-.47,1.39-.4,.41,.07,.68,.16,.81,.26l42.72,19.07-20.86-32.28c-.31-.47-.42-.93-.34-1.38,.08-.45,.35-.82,.83-1.13l3.1-2c.47-.31,.94-.41,1.4-.31,.46,.1,.84,.39,1.15,.86l27.21,42.09c.28,.43,.37,.89,.29,1.37-.08,.48-.34,.86-.77,1.14l-3.1,2c-.47,.31-.91,.41-1.31,.3-.41-.11-.68-.17-.82-.2l-42.44-18.79,20.7,32.02c.28,.43,.37,.88,.27,1.34-.1,.46-.39,.84-.86,1.15l-3.1,2Z"/>
      <path class="cls-1" d="M411.31,121.17c-4.46,1.52-8.44,1.96-11.94,1.31-3.5-.65-6.5-2.2-9.01-4.64-2.51-2.45-4.51-5.61-6-9.49-.73-1.97-1.48-4.1-2.25-6.38-.78-2.28-1.5-4.47-2.16-6.57-1.19-3.98-1.54-7.7-1.05-11.18,.49-3.47,1.93-6.53,4.3-9.18,2.37-2.65,5.79-4.73,10.25-6.26,3.35-1.14,6.44-1.68,9.28-1.62,2.84,.06,5.36,.59,7.56,1.57,2.2,.98,4.07,2.28,5.59,3.9,1.53,1.62,2.68,3.43,3.48,5.43,.2,.42,.19,.83-.03,1.23-.22,.4-.54,.67-.98,.82l-4,1.36c-.44,.15-.85,.16-1.25,.02-.4-.13-.78-.49-1.14-1.07-2.11-3.5-4.54-5.57-7.27-6.21-2.73-.64-5.8-.38-9.2,.78-3.88,1.32-6.58,3.48-8.11,6.46-1.53,2.98-1.56,6.94-.1,11.85,1.21,4.03,2.6,8.1,4.17,12.22,1.85,4.79,4.29,7.89,7.32,9.32,3.03,1.43,6.49,1.48,10.37,.16,3.39-1.16,5.98-2.82,7.76-5,1.78-2.18,2.43-5.3,1.97-9.36-.07-.68,.01-1.19,.25-1.54,.23-.35,.57-.6,1-.75l4-1.36c.44-.15,.86-.13,1.28,.05,.41,.18,.67,.5,.77,.95,.6,2.07,.79,4.21,.56,6.43-.22,2.22-.9,4.38-2.05,6.5-1.14,2.12-2.82,4.08-5.03,5.86-2.21,1.78-4.99,3.24-8.33,4.38Z"/>
      <path class="cls-1" d="M463.3,105.87c-.56,.1-1.01,.02-1.38-.26-.36-.27-.59-.66-.68-1.16l-9.07-49.45c-.09-.5-.02-.95,.23-1.33s.64-.63,1.19-.73l4.01-.74c.5-.09,.94,0,1.3,.27,.36,.27,.59,.66,.68,1.16l8.19,44.61,25.18-4.62c.55-.1,1.01-.02,1.38,.26,.36,.27,.59,.69,.7,1.24l.55,3.03c.09,.5,.02,.95-.22,1.33s-.64,.63-1.2,.73l-30.85,5.66Z"/>
      <path class="cls-1" d="M521.19,96.95c-.41,.01-.77-.13-1.09-.42s-.48-.65-.5-1.06c0-.26,0-.54,.05-.85l17.27-50.39c.19-.52,.45-.94,.8-1.26,.35-.32,.88-.49,1.6-.52l5.23-.19c.66-.02,1.2,.11,1.59,.4,.4,.29,.7,.69,.93,1.2l20.76,49.03c.11,.3,.18,.58,.18,.84,.02,.41-.12,.77-.42,1.09-.29,.32-.65,.48-1.06,.5l-3.92,.14c-.61,.02-1.07-.12-1.36-.41-.29-.3-.5-.57-.61-.82l-4.62-10.76-25.2,.9-3.83,11.06c-.04,.26-.21,.55-.51,.86-.3,.32-.75,.49-1.37,.51l-3.92,.14Zm11.62-19.26l20.74-.74-11.35-26.9-9.39,27.64Z"/>
      <path class="cls-1" d="M607.62,98.15c-.51-.05-.91-.26-1.21-.63-.3-.37-.42-.8-.37-1.31l1.88-18.05-15.18-33.12c-.04-.16-.07-.32-.11-.47s-.04-.34-.02-.54c.04-.41,.23-.75,.57-1.02,.34-.28,.71-.39,1.12-.35l3.98,.41c.46,.05,.85,.2,1.19,.47s.56,.61,.67,1.04l12.33,26.33,17.49-23.22c.3-.38,.62-.67,.98-.86s.76-.27,1.22-.22l3.9,.41c.46,.05,.83,.24,1.1,.58,.28,.34,.39,.71,.35,1.12-.02,.2-.07,.38-.13,.53-.06,.15-.16,.29-.28,.44l-21.6,29.29-1.88,18.05c-.05,.51-.26,.91-.63,1.21-.37,.3-.83,.42-1.39,.36l-3.98-.41Z"/>
      <path class="cls-1" d="M716.77,123.4c-4.44-1.58-7.83-3.71-10.17-6.39-2.34-2.68-3.74-5.76-4.19-9.23-.45-3.48-.05-7.2,1.19-11.16,.66-2,1.39-4.13,2.19-6.4,.81-2.27,1.6-4.43,2.39-6.49,1.54-3.86,3.57-7,6.12-9.41,2.54-2.41,5.57-3.92,9.07-4.53,3.51-.6,7.48-.12,11.92,1.46,3.33,1.18,6.09,2.68,8.27,4.49,2.18,1.81,3.84,3.78,4.95,5.92,1.12,2.14,1.77,4.32,1.96,6.53,.19,2.22-.02,4.36-.65,6.42-.11,.45-.37,.77-.78,.95-.42,.18-.84,.19-1.28,.04l-3.99-1.42c-.44-.15-.77-.41-.99-.76-.23-.35-.3-.87-.23-1.55,.52-4.06-.1-7.19-1.85-9.38-1.75-2.2-4.32-3.9-7.69-5.1-3.87-1.37-7.32-1.36-10.37,.03-3.05,1.39-5.53,4.47-7.44,9.23-1.55,3.91-2.99,7.96-4.32,12.17-1.52,4.9-1.54,8.85-.05,11.85s4.17,5.19,8.03,6.56c3.38,1.2,6.44,1.5,9.18,.89,2.74-.6,5.19-2.64,7.35-6.12,.37-.58,.75-.93,1.15-1.06,.4-.13,.82-.12,1.25,.04l3.99,1.42c.44,.15,.75,.43,.97,.83,.21,.4,.21,.81,.01,1.23-.82,1.99-2,3.79-3.55,5.39-1.54,1.6-3.43,2.88-5.64,3.83-2.21,.95-4.74,1.44-7.58,1.47-2.84,.03-5.92-.55-9.25-1.74Z"/>
      <path class="cls-1" d="M781.95,152.48c-3.83-2.08-6.76-4.53-8.79-7.34-2.03-2.82-3.03-6.02-3.02-9.59,.02-3.58,1.07-7.51,3.16-11.8,1.03-2.01,2.04-3.92,3.03-5.75,.99-1.82,2.04-3.72,3.16-5.67,2.43-4.05,5.17-7.03,8.23-8.96,3.06-1.93,6.34-2.83,9.86-2.7,3.52,.13,7.1,1.18,10.75,3.16,3.69,2,6.55,4.44,8.58,7.32,2.03,2.88,3.08,6.13,3.15,9.75,.07,3.63-.95,7.55-3.06,11.77-.99,2.03-1.97,3.96-2.96,5.78s-2.07,3.7-3.23,5.64c-2.41,4.12-5.12,7.15-8.13,9.1-3.01,1.95-6.25,2.85-9.72,2.69-3.47-.16-7.14-1.29-11.02-3.39Zm3.12-5.74c3.47,1.88,6.86,2.38,10.17,1.49s6.31-3.6,9.01-8.15c1.19-1.98,2.22-3.77,3.09-5.37,.87-1.6,1.79-3.41,2.78-5.45,1.6-3.16,2.39-5.99,2.38-8.5,0-2.51-.65-4.69-1.92-6.55-1.27-1.85-3.05-3.4-5.35-4.65-2.21-1.2-4.43-1.82-6.68-1.87-2.25-.05-4.42,.6-6.53,1.97-2.11,1.36-4.08,3.56-5.9,6.6-1.12,1.96-2.11,3.74-2.98,5.34-.87,1.6-1.83,3.42-2.88,5.48-2.34,4.74-2.96,8.74-1.88,12.01,1.08,3.27,3.31,5.82,6.69,7.65Z"/>
      <path class="cls-1" d="M829.03,180.19c-.4-.32-.63-.71-.69-1.17-.06-.47,.07-.9,.38-1.31l30.83-39.61c.35-.44,.75-.7,1.22-.75,.47-.06,.9,.07,1.31,.39l3.03,2.36c.49,.38,.75,.78,.81,1.21,.06,.43,.04,.74-.04,.94l-6.22,34.52,32-14.45c.2-.1,.51-.18,.93-.25,.41-.07,.86,.08,1.34,.46l2.97,2.31c.44,.35,.69,.75,.75,1.22,.06,.47-.09,.92-.43,1.37l-30.83,39.61c-.32,.4-.71,.63-1.18,.69-.47,.06-.92-.09-1.37-.43l-2.97-2.31c-.41-.32-.64-.71-.7-1.17-.06-.47,.07-.9,.39-1.31l23.23-29.85-25.52,11.89c-.48,.28-.97,.4-1.46,.37-.5-.03-.99-.23-1.47-.61l-1.88-1.46c-.53-.41-.85-.84-.98-1.3-.13-.46-.14-.97-.03-1.53l5.26-27.66-23.23,29.85c-.32,.4-.71,.63-1.17,.69-.47,.06-.91-.07-1.31-.39l-2.97-2.31Z"/>
      <path class="cls-1" d="M891.01,232.83c-.38-.41-.56-.84-.52-1.3s.24-.85,.61-1.2l36.79-34.15c.41-.38,.84-.58,1.3-.58s.87,.2,1.26,.62l13.28,14.31c2.58,2.78,4.37,5.61,5.37,8.5,1,2.88,1.13,5.72,.39,8.5-.74,2.78-2.44,5.41-5.11,7.89-2.67,2.48-5.41,3.97-8.22,4.48-2.81,.51-5.62,.16-8.42-1.05-2.8-1.21-5.5-3.21-8.07-5.99l-9.26-9.97-14.09,13.07c-.37,.35-.8,.51-1.27,.5s-.9-.23-1.28-.65l-2.77-2.99Zm24.09-14.39l9.05,9.75c2.58,2.78,5.13,4.29,7.66,4.53,2.53,.24,4.98-.74,7.34-2.94,2.33-2.16,3.5-4.51,3.52-7.05,.02-2.54-1.29-5.23-3.94-8.09l-9.05-9.75-14.6,13.54Z"/>
      <path class="cls-1" d="M931.66,279.04c-.23-.34-.31-.72-.23-1.15s.29-.76,.63-.99c.21-.15,.45-.28,.74-.42l51.78-12.49c.54-.12,1.04-.12,1.49,0,.45,.12,.89,.48,1.29,1.07l2.97,4.31c.38,.55,.55,1.07,.51,1.56-.04,.49-.21,.97-.51,1.43l-30.21,43.84c-.2,.26-.4,.46-.61,.61-.34,.23-.72,.31-1.15,.23-.43-.08-.75-.29-.99-.63l-2.22-3.23c-.35-.51-.48-.96-.38-1.37,.1-.41,.22-.72,.37-.95l6.6-9.67-14.29-20.77-11.39,2.71c-.24,.1-.57,.12-1,.04-.43-.08-.82-.37-1.16-.88l-2.22-3.23Zm22.49-.55l11.77,17.1,16.6-24.02-28.37,6.92Z"/>
      <path class="cls-1" d="M973.13,344.32c-.24-.51-.28-.97-.12-1.39,.17-.42,.48-.74,.95-.96l45.29-21.65c.51-.24,.98-.3,1.41-.16s.77,.45,1.01,.96l1.53,3.19c.27,.55,.34,1.03,.22,1.43-.12,.4-.24,.65-.36,.77l-24.36,39.94,34.68-16.58c.51-.24,.98-.3,1.41-.16,.44,.13,.77,.45,1.02,.96l1.59,3.33c.24,.51,.28,.99,.13,1.43-.16,.44-.49,.79-1,1.03l-45.22,21.62c-.46,.22-.93,.26-1.39,.11s-.81-.45-1.03-.91l-1.59-3.33c-.24-.51-.29-.96-.13-1.34s.26-.65,.31-.79l24.05-39.7-34.4,16.45c-.46,.22-.92,.25-1.36,.1-.45-.16-.79-.49-1.03-1l-1.59-3.33Z"/>
      <path class="cls-1" d="M1006.26,425.85c-.15-.49-.11-.94,.12-1.36,.22-.42,.58-.7,1.07-.84l17.38-5.19,24.75-26.73c.13-.09,.27-.19,.4-.28,.13-.09,.29-.17,.49-.23,.39-.12,.78-.07,1.16,.13,.38,.21,.63,.51,.75,.9l1.15,3.83c.13,.44,.14,.87,.02,1.28s-.35,.75-.7,1.01l-19.57,21.49,28.15,7.23c.47,.13,.86,.32,1.17,.57,.32,.25,.54,.6,.67,1.04l1.12,3.76c.13,.44,.1,.85-.11,1.24-.2,.38-.51,.63-.9,.75-.2,.06-.37,.08-.54,.08-.16,0-.33-.04-.51-.09l-35.33-8.7-17.38,5.19c-.49,.15-.94,.11-1.36-.12-.42-.23-.7-.61-.86-1.15l-1.15-3.83Z"/>
    </g>
    <g>
      <path class="cls-1" d="M45.28,625.47c-.09-.56,0-1.01,.29-1.37,.28-.36,.67-.57,1.18-.65l49.61-7.7c.56-.09,1.02,0,1.4,.25s.61,.66,.69,1.21l3,19.3c.58,3.75,.48,7.09-.31,10.04s-2.26,5.37-4.43,7.26c-2.17,1.89-5.05,3.12-8.65,3.68-3.6,.56-6.7,.26-9.32-.89-2.62-1.15-4.75-3.01-6.39-5.58-1.64-2.57-2.76-5.73-3.34-9.48l-2.09-13.45-18.99,2.95c-.51,.08-.95-.02-1.33-.3s-.61-.7-.7-1.25l-.62-4.02Zm28.02,1.56l2.04,13.14c.58,3.75,1.85,6.43,3.82,8.04,1.96,1.61,4.54,2.17,7.73,1.68,3.14-.49,5.43-1.78,6.87-3.86,1.44-2.09,1.86-5.06,1.26-8.91l-2.04-13.14-19.68,3.05Z"/>
      <path class="cls-1" d="M60.63,701.98c-.17-.54-.14-1,.08-1.39s.58-.67,1.07-.82l47.86-15.13c.54-.17,1.01-.16,1.42,.04,.41,.19,.7,.56,.87,1.09l5.66,17.89c1.74,5.52,1.83,10.3,.26,14.35-1.57,4.04-4.9,6.87-9.98,8.47-3.76,1.19-7.13,1.22-10.09,.09-2.97-1.13-5.42-3.16-7.37-6.09l-15.93,17.45c-.25,.24-.49,.4-.74,.47-.39,.12-.78,.07-1.18-.15-.4-.22-.65-.53-.78-.92l-1.11-3.52c-.26-.83-.24-1.51,.08-2.04,.32-.53,.65-1.01,1-1.45l15.26-16.51-4.06-12.83-18.91,5.98c-.49,.16-.94,.12-1.36-.09-.42-.22-.71-.59-.88-1.13l-1.18-3.74Zm28.57-2.98l3.82,12.09c1.16,3.66,2.79,6.16,4.9,7.48,2.11,1.32,4.68,1.5,7.71,.55,2.98-.94,4.97-2.55,5.97-4.83,1-2.28,.91-5.27-.26-8.99l-3.82-12.09-18.32,5.79Z"/>
      <path class="cls-1" d="M87.75,776.06c-.25-.51-.29-.97-.13-1.39,.16-.42,.48-.75,.94-.97l45.08-22.08c.51-.25,.98-.31,1.41-.18,.43,.13,.78,.45,1.02,.95l13.97,28.51c.25,.51,.29,.97,.12,1.39-.16,.42-.5,.76-1,1l-2.62,1.29c-.51,.25-.97,.3-1.38,.16s-.74-.46-.99-.97l-11.5-23.48-15.12,7.41,10.75,21.95c.25,.51,.29,.97,.13,1.39s-.5,.76-1.01,1l-2.55,1.25c-.46,.23-.91,.28-1.34,.14-.44-.13-.78-.45-1.02-.95l-10.75-21.95-15.67,7.68,11.77,24.03c.25,.51,.3,.96,.16,1.38s-.46,.74-.97,.99l-2.69,1.32c-.46,.22-.91,.27-1.34,.14-.44-.13-.78-.45-1.02-.95l-14.24-29.06Z"/>
      <path class="cls-1" d="M123.67,842.39c-.29-.42-.4-.86-.32-1.32s.33-.84,.75-1.14l41.01-28.95c.46-.33,.92-.45,1.39-.37,.46,.08,.84,.33,1.14,.75l2.22,3.14c.36,.5,.5,.97,.42,1.4s-.18,.72-.32,.88l-15.97,31.23,34.81-4.54c.23-.04,.55-.03,.96,.03,.41,.05,.8,.33,1.15,.83l2.17,3.08c.32,.46,.45,.92,.37,1.39s-.35,.86-.81,1.18l-41.01,28.95c-.42,.3-.86,.4-1.32,.32s-.86-.35-1.18-.81l-2.17-3.08c-.3-.42-.4-.86-.32-1.32,.08-.46,.33-.84,.75-1.14l30.9-21.81-27.88,3.97c-.54,.13-1.04,.11-1.51-.07s-.88-.51-1.23-1.01l-1.38-1.95c-.38-.54-.57-1.06-.56-1.53,0-.47,.15-.97,.42-1.47l13.07-24.94-30.9,21.82c-.42,.29-.86,.4-1.32,.32-.47-.08-.84-.33-1.14-.75l-2.17-3.08Z"/>
      <path class="cls-1" d="M178.53,912.6c-.38-.41-.56-.84-.52-1.3,.04-.45,.24-.85,.62-1.2l36.87-34.17c.37-.35,.79-.52,1.24-.52,.45,0,.87,.21,1.25,.62l2.77,2.99c.35,.38,.51,.8,.5,1.27-.02,.47-.21,.88-.59,1.23l-36.87,34.17c-.38,.35-.8,.51-1.27,.5-.47-.02-.88-.21-1.23-.59l-2.77-2.99Z"/>
      <path class="cls-1" d="M226.86,959.84c-3.3-2.77-5.64-5.74-7.03-8.91-1.39-3.17-1.71-6.5-.96-9.98,.75-3.49,2.72-7.13,5.92-10.94l20.06-23.91c.36-.43,.77-.68,1.22-.74,.45-.06,.89,.1,1.32,.46l3.01,2.52c.43,.36,.67,.78,.71,1.25,.04,.47-.12,.92-.48,1.35l-20.16,24.03c-3.23,3.85-4.71,7.45-4.45,10.81,.26,3.36,1.96,6.36,5.1,8.99,3.1,2.6,6.34,3.75,9.71,3.43s6.68-2.4,9.9-6.24l20.16-24.03c.36-.43,.78-.67,1.25-.71,.47-.04,.9,.1,1.29,.43l3.06,2.57c.39,.33,.61,.73,.65,1.2,.04,.47-.12,.92-.48,1.35l-20.06,23.91c-3.2,3.81-6.44,6.38-9.74,7.73-3.3,1.35-6.62,1.62-9.97,.82-3.34-.8-6.69-2.6-10.02-5.4Z"/>
      <path class="cls-1" d="M278.86,997.87c-.44-.26-.72-.62-.84-1.07-.12-.45-.05-.91,.21-1.35l25.46-43.27c.28-.49,.66-.79,1.11-.91,.45-.12,.91-.05,1.35,.21l3.31,1.95c.53,.31,.85,.68,.96,1.1,.11,.42,.13,.73,.07,.93l-1.7,35.03,29.86-18.46c.19-.12,.49-.25,.89-.37,.4-.12,.86-.03,1.39,.28l3.25,1.91c.48,.29,.79,.66,.91,1.11,.12,.46,.03,.93-.25,1.41l-25.46,43.27c-.26,.44-.62,.72-1.07,.84-.46,.12-.93,.04-1.41-.25l-3.25-1.91c-.44-.26-.72-.62-.84-1.07s-.05-.91,.21-1.35l19.18-32.6-23.77,15.09c-.44,.34-.91,.52-1.4,.56s-1.01-.1-1.54-.42l-2.05-1.21c-.58-.34-.96-.73-1.15-1.16-.19-.44-.26-.94-.22-1.51l1.65-28.11-19.18,32.6c-.26,.44-.62,.72-1.07,.84-.46,.12-.91,.04-1.35-.21l-3.25-1.91Z"/>
      <path class="cls-1" d="M416.06,1060.82c-4.28-1.24-7.69-2.93-10.21-5.08-2.53-2.14-4.26-4.49-5.21-7.03-.95-2.54-1.13-5.01-.54-7.4,.12-.39,.38-.7,.79-.93s.84-.28,1.28-.15l3.77,1.09c.59,.17,.99,.45,1.2,.83,.21,.38,.31,.78,.29,1.21-.1,1.25,.17,2.6,.79,4.03,.63,1.44,1.7,2.79,3.23,4.06,1.52,1.27,3.67,2.3,6.42,3.1,4.24,1.23,7.56,1.38,9.99,.45,2.43-.92,4.01-2.64,4.73-5.15,.5-1.72,.37-3.27-.38-4.63s-2.09-2.78-4.01-4.24c-1.92-1.46-4.47-3.19-7.63-5.17-3.29-2.07-5.94-4.07-7.95-5.98-2.01-1.92-3.33-3.95-3.95-6.11-.63-2.16-.54-4.64,.27-7.44,.77-2.66,2.17-4.83,4.2-6.51,2.03-1.68,4.57-2.75,7.61-3.2,3.04-.45,6.48-.12,10.32,.99,3.05,.88,5.61,2.06,7.66,3.54,2.05,1.47,3.65,3.11,4.78,4.9,1.13,1.8,1.87,3.58,2.21,5.36,.34,1.78,.32,3.42-.06,4.91-.1,.35-.32,.64-.66,.89-.34,.25-.78,.29-1.32,.14l-3.92-1.13c-.34-.1-.67-.3-.99-.6-.31-.3-.49-.75-.53-1.35,.29-2.1-.35-4.13-1.92-6.08-1.57-1.95-3.93-3.38-7.08-4.29-3.2-.93-5.97-1.06-8.32-.41-2.35,.65-3.9,2.28-4.66,4.89-.48,1.67-.42,3.2,.2,4.58,.61,1.38,1.81,2.78,3.59,4.2,1.78,1.42,4.15,3.07,7.13,4.95,3.63,2.22,6.52,4.3,8.68,6.23,2.16,1.94,3.58,3.97,4.27,6.12,.69,2.15,.62,4.62-.19,7.43-.9,3.1-2.48,5.51-4.73,7.23-2.26,1.72-5.02,2.74-8.28,3.05-3.26,.31-6.89-.12-10.88-1.27Z"/>
      <path class="cls-1" d="M475.74,1073.88c-.56-.07-.97-.29-1.23-.66-.26-.37-.36-.81-.3-1.32l6.35-49.8c.07-.56,.28-.98,.63-1.28,.35-.29,.8-.4,1.36-.33l3.89,.5c.56,.07,.98,.29,1.27,.67,.29,.37,.4,.84,.33,1.4l-2.68,21.05,26.23,3.35,2.68-21.05c.07-.56,.29-.98,.67-1.27s.81-.4,1.32-.34l3.89,.5c.56,.07,.98,.29,1.27,.67,.29,.37,.4,.84,.32,1.4l-6.35,49.8c-.06,.51-.28,.91-.66,1.19-.37,.29-.84,.4-1.4,.33l-3.89-.5c-.51-.06-.91-.28-1.19-.66-.29-.37-.4-.81-.34-1.32l2.79-21.89-26.23-3.35-2.79,21.89c-.07,.51-.28,.91-.66,1.19-.37,.29-.84,.4-1.4,.33l-3.89-.5Z"/>
      <path class="cls-1" d="M576.6,1081.01c-4.35,.13-8.12-.51-11.28-1.93s-5.65-3.68-7.43-6.78c-1.78-3.1-2.85-7.03-3.2-11.79-.12-2.25-.21-4.41-.27-6.49-.06-2.07-.1-4.24-.12-6.49,.06-4.72,.93-8.68,2.61-11.88,1.67-3.21,4.06-5.63,7.17-7.29,3.11-1.66,6.73-2.55,10.88-2.67,4.2-.13,7.9,.54,11.1,2.01,3.2,1.47,5.74,3.75,7.63,6.85,1.89,3.1,2.98,7,3.27,11.71,.17,2.25,.28,4.41,.35,6.49,.06,2.07,.07,4.24,.04,6.5-.01,4.77-.83,8.75-2.45,11.96-1.62,3.2-3.97,5.6-7.05,7.21-3.08,1.6-6.83,2.47-11.23,2.6Zm-.2-6.53c3.94-.12,7.12-1.39,9.54-3.82,2.41-2.43,3.65-6.29,3.69-11.57,.04-2.31,.03-4.37-.03-6.19-.05-1.82-.17-3.85-.33-6.1-.21-3.53-.95-6.38-2.22-8.55-1.27-2.17-2.92-3.73-4.95-4.7-2.03-.96-4.35-1.41-6.96-1.33-2.51,.07-4.75,.65-6.72,1.74s-3.52,2.75-4.66,4.98c-1.14,2.24-1.73,5.13-1.78,8.67,.01,2.26,.05,4.29,.11,6.11,.05,1.82,.14,3.88,.26,6.19,.36,5.27,1.83,9.05,4.42,11.33,2.58,2.28,5.79,3.37,9.63,3.25Z"/>
      <path class="cls-1" d="M657.01,1072.37c-4.28,.8-8.1,.75-11.45-.16-3.35-.91-6.15-2.76-8.39-5.55-2.24-2.79-3.9-6.51-4.98-11.15-.46-2.2-.89-4.33-1.27-6.37-.38-2.04-.75-4.17-1.12-6.4-.67-4.67-.42-8.72,.74-12.14,1.16-3.42,3.14-6.19,5.95-8.31,2.81-2.11,6.26-3.56,10.33-4.32,4.13-.77,7.89-.68,11.28,.28,3.38,.96,6.25,2.82,8.59,5.58,2.34,2.77,4.02,6.46,5.04,11.06,.51,2.2,.96,4.32,1.35,6.36,.38,2.04,.73,4.18,1.04,6.41,.73,4.71,.53,8.78-.58,12.19-1.11,3.41-3.06,6.15-5.85,8.21-2.8,2.06-6.36,3.5-10.69,4.31Zm-1.2-6.42c3.88-.73,6.83-2.48,8.83-5.25,2.01-2.77,2.63-6.77,1.86-12-.33-2.29-.65-4.32-.99-6.11-.34-1.78-.76-3.78-1.28-5.98-.75-3.46-1.92-6.16-3.51-8.1-1.59-1.94-3.46-3.24-5.61-3.88-2.16-.64-4.52-.72-7.09-.24-2.47,.46-4.59,1.38-6.37,2.75s-3.05,3.26-3.83,5.65c-.78,2.39-.92,5.33-.42,8.84,.36,2.23,.71,4.23,1.05,6.02,.33,1.79,.74,3.81,1.21,6.07,1.17,5.15,3.21,8.66,6.11,10.51,2.9,1.86,6.24,2.43,10.02,1.72Z"/>
      <path class="cls-1" d="M728.07,1052.96c-.49,.17-.94,.15-1.36-.06-.43-.2-.72-.55-.89-1.04l-14.72-42.74-13.96,4.81c-.48,.17-.94,.15-1.36-.06-.43-.2-.72-.55-.89-1.04l-1.05-3.05c-.19-.53-.17-1.01,.04-1.44,.2-.42,.55-.72,1.04-.89l35.03-12.07c.53-.18,1.01-.17,1.44,.04,.42,.2,.73,.58,.91,1.11l1.05,3.05c.17,.48,.15,.94-.06,1.36-.21,.42-.58,.73-1.11,.91l-13.88,4.78,14.72,42.74c.17,.49,.15,.94-.06,1.36-.21,.43-.58,.73-1.11,.91l-3.78,1.3Z"/>
      <path class="cls-1" d="M784.12,1030.15c-.51,.24-.97,.28-1.39,.12-.42-.17-.75-.48-.97-.94l-21.82-45.29c-.22-.46-.27-.91-.14-1.34,.13-.43,.45-.77,.96-1.02l3.67-1.77c.46-.22,.91-.26,1.36-.1s.78,.46,1,.92l21.82,45.29c.22,.46,.26,.91,.1,1.36-.15,.44-.46,.78-.92,1l-3.67,1.77Z"/>
      <path class="cls-1" d="M827.39,1007.29c-.47,.31-.93,.4-1.37,.29-.44-.11-.8-.38-1.08-.82l-27.28-42.14c-.3-.47-.42-.93-.34-1.38,.08-.45,.35-.83,.83-1.13l2.97-1.92c.51-.34,.98-.47,1.39-.4,.41,.07,.68,.16,.81,.26l42.73,19.04-20.89-32.27c-.3-.47-.42-.93-.34-1.38s.35-.82,.83-1.13l3.1-2.01c.47-.31,.94-.41,1.4-.31,.46,.1,.84,.39,1.15,.86l27.24,42.07c.28,.43,.38,.89,.29,1.37-.08,.48-.34,.86-.77,1.14l-3.1,2.01c-.48,.31-.91,.41-1.32,.3s-.67-.17-.82-.2l-42.46-18.76,20.73,32.01c.28,.43,.36,.88,.27,1.34-.1,.46-.38,.84-.86,1.15l-3.1,2.01Z"/>
      <path class="cls-1" d="M908.05,948.35c-3.36,3.01-6.77,4.94-10.25,5.79-3.47,.85-6.86,.68-10.15-.49-3.29-1.18-6.4-3.24-9.33-6.19-1.54-1.64-3.17-3.41-4.86-5.3-1.7-1.89-3.29-3.71-4.79-5.46-2.62-3.23-4.32-6.52-5.1-9.88s-.55-6.73,.68-10.12c1.23-3.38,3.51-6.56,6.83-9.54,2.71-2.43,5.4-4.15,8.07-5.17s5.16-1.52,7.48-1.5c2.32,.02,4.36,.37,6.12,1.07,1.76,.69,3.09,1.5,3.98,2.42,.35,.31,.5,.67,.46,1.09-.04,.42-.25,.79-.63,1.14l-3.38,3.03c-.38,.34-.73,.51-1.03,.52-.31,0-.71-.12-1.21-.36-1.23-.68-2.67-1.15-4.31-1.4-1.64-.25-3.4-.1-5.28,.45-1.88,.55-3.85,1.75-5.91,3.6-3.01,2.7-4.71,5.71-5.09,9.01-.38,3.3,1.05,6.91,4.29,10.82,2.93,3.5,5.98,6.89,9.14,10.18,3.58,3.68,7.04,5.51,10.4,5.49,3.36-.02,6.54-1.38,9.55-4.08,2.02-1.81,3.49-3.8,4.4-5.97,.91-2.17,1.13-4.44,.64-6.83-.49-2.38-1.81-4.78-3.97-7.18l-2.16-2.4-8.58,7.7c-.38,.34-.81,.5-1.28,.48-.47-.03-.89-.25-1.27-.67l-1.64-1.83c-.38-.42-.55-.86-.53-1.33,.03-.47,.23-.88,.61-1.22l12.93-11.6c.42-.38,.86-.54,1.31-.5,.45,.04,.87,.28,1.24,.69l4.93,5.49c2.81,3.13,4.61,6.43,5.42,9.9,.81,3.47,.57,6.94-.73,10.41-1.3,3.47-3.64,6.73-7.03,9.77Z"/>
      <path class="cls-1" d="M980.82,867.14c-.32,.47-.7,.73-1.15,.8-.45,.07-.89-.04-1.31-.33l-41.56-28.16c-.46-.31-.75-.69-.85-1.14-.1-.44,0-.9,.32-1.36l9.79-14.45c2.96-4.37,6.01-7.44,9.13-9.22,3.13-1.78,6.39-2.42,9.79-1.91,3.4,.51,6.98,2.01,10.74,4.5,1.94,1.25,3.63,2.37,5.07,3.34,1.44,.98,3.08,2.12,4.92,3.43,3.84,2.73,6.64,5.57,8.39,8.52,1.75,2.95,2.36,6.15,1.85,9.61-.52,3.46-2.23,7.33-5.13,11.61l-10.01,14.77Zm-2.17-8.44l6.55-9.67c1.98-2.93,3.16-5.53,3.53-7.82,.37-2.28-.06-4.42-1.31-6.42-1.25-1.99-3.32-4-6.22-6.03-1.22-.95-2.3-1.74-3.26-2.39-.95-.65-1.91-1.3-2.86-1.94-.96-.65-2.08-1.34-3.36-2.1-4.17-2.7-7.88-3.79-11.12-3.26-3.24,.53-6.35,3-9.34,7.41l-6.34,9.35,33.73,22.86Z"/>
      <path class="cls-1" d="M1020.9,803.23c-.17,.37-.47,.63-.88,.78s-.8,.13-1.17-.04c-.23-.11-.48-.25-.73-.43l-36.83-38.48c-.38-.4-.63-.83-.75-1.29-.12-.45-.04-1.01,.27-1.66l2.23-4.72c.28-.6,.65-1.01,1.09-1.23,.44-.22,.94-.31,1.49-.28l53.08,4.07c.32,.04,.6,.12,.83,.22,.37,.18,.63,.47,.78,.88s.13,.8-.04,1.17l-1.68,3.54c-.26,.56-.59,.9-.99,1.02-.4,.12-.74,.18-1.01,.16l-11.68-.84-10.77,22.8,8.06,8.48c.21,.16,.39,.44,.53,.85s.09,.89-.17,1.45l-1.68,3.54Zm-11.78-19.16l8.86-18.77-29.11-2.27,20.24,21.04Z"/>
      <path class="cls-1" d="M1056.56,716.16c-.15,.49-.44,.84-.85,1.07s-.87,.26-1.36,.1l-17.34-5.34-35.43,8.48c-.16,0-.32,0-.49,.01-.16,0-.34-.03-.54-.09-.39-.12-.69-.37-.89-.75-.2-.39-.24-.77-.12-1.16l1.18-3.82c.13-.44,.37-.8,.69-1.07,.33-.27,.71-.43,1.15-.45l28.22-7-19.4-21.66c-.32-.36-.54-.74-.66-1.13-.12-.38-.12-.8,.02-1.24l1.15-3.75c.14-.44,.4-.76,.78-.97s.77-.24,1.16-.12c.2,.06,.36,.14,.49,.23s.26,.21,.37,.36l24.55,26.86,17.34,5.34c.49,.15,.84,.44,1.07,.85,.22,.42,.25,.9,.08,1.43l-1.17,3.82Z"/>
      <path class="cls-1" d="M1074.79,640.73c-.68,4.41-1.92,8-3.72,10.78-1.8,2.78-3.9,4.81-6.3,6.07-2.4,1.27-4.82,1.76-7.27,1.49-.4-.06-.75-.28-1.02-.66-.28-.38-.38-.8-.31-1.25l.59-3.88c.09-.61,.31-1.04,.67-1.3,.35-.26,.74-.4,1.16-.44,1.25-.07,2.55-.5,3.9-1.31,1.34-.81,2.54-2.05,3.6-3.72,1.06-1.68,1.81-3.93,2.25-6.77,.67-4.36,.39-7.68-.84-9.97-1.23-2.29-3.14-3.63-5.72-4.03-1.77-.27-3.29,.05-4.54,.98-1.26,.92-2.49,2.43-3.69,4.53-1.2,2.1-2.58,4.84-4.14,8.23-1.63,3.53-3.27,6.42-4.91,8.66-1.64,2.24-3.49,3.81-5.55,4.71-2.05,.9-4.53,1.13-7.41,.69-2.74-.42-5.07-1.53-7-3.33-1.93-1.8-3.31-4.18-4.16-7.13-.84-2.96-.96-6.41-.35-10.36,.48-3.14,1.32-5.82,2.52-8.05,1.2-2.23,2.61-4.02,4.25-5.37,1.63-1.36,3.31-2.32,5.03-2.88s3.34-.76,4.87-.58c.36,.05,.68,.23,.97,.54,.29,.31,.39,.74,.31,1.29l-.62,4.03c-.05,.36-.21,.71-.47,1.06-.26,.35-.68,.58-1.27,.7-2.12-.01-4.05,.88-5.78,2.69-1.73,1.81-2.84,4.33-3.34,7.58-.51,3.29-.28,6.06,.67,8.31,.95,2.25,2.77,3.58,5.45,3.99,1.72,.26,3.23,0,4.52-.79,1.29-.78,2.52-2.15,3.7-4.1,1.18-1.94,2.51-4.51,3.99-7.71,1.74-3.88,3.42-7.02,5.06-9.41,1.64-2.39,3.48-4.07,5.51-5.03,2.04-.96,4.5-1.22,7.39-.77,3.19,.49,5.79,1.74,7.78,3.76,2,2.02,3.36,4.63,4.09,7.82,.73,3.2,.78,6.85,.15,10.95Z"/>
    </g>
    <g>
      <path class="cls-1" d="M309.47,363.89c-.25,.3-.53,.46-.84,.48s-.61-.09-.88-.31l-26.87-22.16c-.3-.25-.47-.53-.52-.84s.06-.62,.31-.92l14.02-17c.25-.3,.53-.46,.84-.48s.62,.1,.92,.35l1.56,1.29c.3,.25,.47,.52,.5,.82s-.08,.6-.33,.9l-11.54,13.99,9.01,7.43,10.79-13.09c.25-.3,.53-.46,.84-.48,.32-.02,.62,.1,.92,.35l1.52,1.26c.28,.23,.43,.5,.48,.81,.04,.31-.06,.62-.31,.92l-10.79,13.09,9.34,7.7,11.81-14.32c.25-.3,.52-.47,.82-.5,.3-.03,.6,.08,.9,.33l1.6,1.32c.28,.23,.44,.5,.48,.81,.04,.31-.06,.62-.31,.92l-14.29,17.33Z"/>
      <path class="cls-1" d="M348.92,322.25c-2.29,2.08-4.53,3.47-6.72,4.18-2.19,.71-4.2,.88-6.05,.51-1.85-.37-3.37-1.16-4.57-2.38-.19-.21-.28-.48-.26-.81,.02-.33,.14-.6,.38-.81l2.02-1.83c.32-.29,.63-.42,.93-.41,.3,.02,.57,.11,.82,.27,.71,.51,1.59,.85,2.67,1,1.07,.15,2.27,.01,3.57-.43,1.31-.44,2.69-1.33,4.17-2.66,2.26-2.05,3.57-3.96,3.91-5.74,.34-1.77-.1-3.33-1.32-4.67-.83-.92-1.79-1.41-2.87-1.46-1.08-.05-2.4,.22-3.97,.82-1.57,.6-3.51,1.48-5.83,2.62-2.43,1.19-4.57,2.03-6.43,2.52s-3.54,.52-5.05,.11c-1.5-.41-2.93-1.37-4.3-2.87-1.29-1.42-2.06-3.04-2.31-4.85-.25-1.81,.04-3.7,.88-5.66,.84-1.96,2.29-3.87,4.34-5.73,1.63-1.48,3.26-2.56,4.88-3.23,1.62-.67,3.17-1.02,4.64-1.04,1.47-.01,2.8,.2,3.97,.65s2.13,1.06,2.87,1.82c.17,.18,.26,.42,.29,.71,.02,.29-.11,.57-.4,.83l-2.1,1.9c-.19,.17-.42,.29-.72,.36-.29,.07-.62,.01-.99-.18-1.14-.94-2.57-1.3-4.29-1.08s-3.43,1.09-5.11,2.62c-1.71,1.55-2.8,3.14-3.27,4.77-.47,1.63-.07,3.14,1.19,4.53,.81,.9,1.74,1.41,2.77,1.55s2.3-.06,3.79-.59c1.49-.53,3.33-1.33,5.52-2.41,2.63-1.33,4.91-2.28,6.84-2.85,1.93-.57,3.65-.67,5.17-.29,1.52,.38,2.96,1.32,4.32,2.82,1.5,1.66,2.35,3.47,2.55,5.43,.19,1.96-.21,3.96-1.22,6-1.01,2.04-2.58,4.03-4.71,5.96Z"/>
      <path class="cls-1" d="M383.53,294.3c-.29,.2-.6,.27-.92,.21s-.58-.24-.78-.54l-17.56-25.98-8.49,5.74c-.29,.2-.6,.27-.92,.2-.32-.06-.58-.24-.78-.53l-1.25-1.86c-.22-.32-.3-.65-.24-.97,.06-.32,.24-.58,.53-.78l21.3-14.4c.32-.22,.65-.3,.97-.24,.32,.06,.59,.25,.81,.58l1.26,1.86c.2,.3,.27,.6,.21,.92-.06,.32-.26,.59-.58,.81l-8.44,5.7,17.56,25.99c.2,.29,.27,.6,.21,.92s-.25,.59-.58,.81l-2.3,1.55Z"/>
      <path class="cls-1" d="M408.54,278.41c-.26,.13-.52,.14-.81,.04-.28-.1-.49-.27-.62-.53-.08-.16-.15-.34-.21-.55l-3.4-36.8c-.03-.38,.02-.72,.15-1.03,.13-.3,.42-.56,.86-.78l3.25-1.6c.41-.2,.79-.27,1.12-.2s.64,.24,.93,.49l27.08,25.12c.16,.16,.28,.32,.36,.48,.13,.26,.14,.52,.04,.81s-.27,.49-.53,.62l-2.44,1.2c-.38,.19-.71,.23-.98,.13-.27-.1-.48-.22-.62-.35l-5.98-5.5-15.69,7.74,.72,8.09c.05,.18,.02,.41-.07,.69-.1,.28-.34,.52-.72,.71l-2.44,1.2Zm1.87-15.49l12.92-6.37-14.83-13.8,1.92,20.17Z"/>
      <path class="cls-1" d="M457.49,256.52c-.37,.12-.7,.1-.97-.06-.27-.16-.46-.4-.57-.74l-10.38-33.25c-.12-.37-.11-.7,.03-.99,.14-.28,.39-.48,.76-.6l13.95-4.36c2.55-.79,4.75-1.03,6.63-.7,1.87,.33,3.41,1.09,4.62,2.27,1.21,1.19,2.09,2.66,2.64,4.43,.44,1.39,.58,2.66,.43,3.8-.15,1.14-.46,2.14-.94,2.98s-.99,1.53-1.53,2.07c1.53,.23,3.03,.91,4.52,2.05,1.49,1.14,2.56,2.74,3.21,4.81,.58,1.87,.69,3.71,.33,5.54-.36,1.83-1.23,3.47-2.62,4.93-1.39,1.46-3.32,2.57-5.8,3.35l-14.3,4.47Zm-2.61-21.76l9.37-2.93c2.17-.68,3.66-1.69,4.47-3.04,.81-1.35,.94-2.89,.4-4.62-.54-1.73-1.51-2.88-2.92-3.45-1.4-.57-3.2-.51-5.37,.17l-9.37,2.93,3.42,10.95Zm5.14,16.44l9.83-3.07c2.21-.69,3.72-1.81,4.53-3.37,.82-1.56,.95-3.2,.41-4.94-.56-1.8-1.62-3.1-3.17-3.9-1.55-.8-3.43-.86-5.64-.17l-9.83,3.07,3.86,12.37Z"/>
      <path class="cls-1" d="M505.67,243.69c-.39,.06-.7,0-.95-.2-.25-.2-.4-.47-.45-.82l-5.42-34.46c-.05-.35,0-.66,.18-.92,.18-.26,.46-.42,.84-.48l2.79-.44c.35-.05,.65,.02,.9,.21s.4,.47,.45,.82l4.89,31.09,17.54-2.76c.39-.06,.7,0,.95,.2s.4,.49,.46,.87l.33,2.11c.05,.35,0,.66-.18,.92-.18,.26-.46,.42-.84,.48l-21.5,3.38Z"/>
      <path class="cls-1" d="M550.34,238.67c-.39,.02-.7-.09-.92-.31s-.34-.51-.36-.87l-1.43-34.85c-.02-.35,.08-.65,.28-.89,.2-.24,.5-.37,.89-.38l2.82-.12c.36-.01,.65,.09,.89,.31,.24,.22,.37,.51,.38,.86l1.44,34.85c.01,.36-.09,.65-.31,.89-.22,.24-.51,.37-.87,.38l-2.82,.12Z"/>
      <path class="cls-1" d="M590.49,239.83c-3.08-.24-5.64-.91-7.65-2.01-2.02-1.1-3.53-2.45-4.53-4.04-1-1.59-1.47-3.24-1.41-4.95,.02-.28,.15-.53,.4-.74s.53-.31,.85-.28l2.71,.21c.43,.03,.74,.16,.93,.39,.2,.23,.32,.49,.37,.78,.11,.86,.48,1.74,1.11,2.63s1.55,1.65,2.77,2.3,2.81,1.05,4.8,1.2c3.05,.24,5.33-.13,6.85-1.1,1.52-.97,2.35-2.36,2.49-4.17,.1-1.24-.21-2.27-.91-3.09-.7-.82-1.81-1.59-3.33-2.32-1.51-.72-3.48-1.54-5.91-2.44-2.53-.94-4.61-1.92-6.24-2.94-1.63-1.02-2.82-2.21-3.55-3.59-.73-1.38-1.02-3.07-.86-5.09,.15-1.92,.79-3.59,1.94-5.01,1.15-1.43,2.72-2.51,4.72-3.25,2-.74,4.38-1,7.15-.79,2.2,.17,4.1,.61,5.7,1.32,1.61,.71,2.92,1.6,3.94,2.66,1.02,1.06,1.78,2.17,2.26,3.33,.48,1.16,.7,2.27,.65,3.34-.02,.25-.12,.48-.32,.7-.2,.22-.49,.31-.88,.28l-2.82-.22c-.25-.02-.5-.11-.75-.27-.25-.16-.44-.44-.55-.84-.1-1.47-.82-2.76-2.16-3.86s-3.15-1.74-5.42-1.92c-2.31-.18-4.21,.12-5.71,.9-1.51,.78-2.33,2.1-2.47,3.98-.1,1.21,.17,2.23,.78,3.08,.61,.85,1.62,1.63,3.03,2.35,1.41,.71,3.26,1.5,5.54,2.35,2.77,1,5.03,2,6.77,3.01,1.74,1.01,3,2.19,3.76,3.55s1.07,3.05,.92,5.07c-.17,2.23-.91,4.09-2.19,5.58-1.29,1.49-3.03,2.57-5.2,3.24-2.17,.67-4.7,.9-7.57,.67Z"/>
      <path class="cls-1" d="M626.78,243.9c-.38-.09-.65-.27-.8-.54s-.19-.58-.11-.93l7.98-33.9c.09-.38,.27-.66,.53-.83,.26-.18,.58-.22,.96-.13l2.65,.62c.38,.09,.66,.27,.83,.55,.17,.28,.21,.61,.12,.99l-3.37,14.33,17.86,4.2,3.37-14.33c.09-.38,.27-.66,.55-.83,.28-.17,.59-.22,.94-.14l2.65,.62c.38,.09,.66,.27,.83,.55s.21,.61,.12,.99l-7.98,33.9c-.08,.35-.26,.61-.54,.78-.28,.17-.61,.21-.99,.12l-2.65-.62c-.35-.08-.61-.26-.78-.54-.17-.28-.22-.59-.14-.94l3.51-14.9-17.86-4.2-3.51,14.9c-.08,.35-.26,.6-.54,.78s-.61,.21-.99,.12l-2.65-.62Z"/>
      <path class="cls-1" d="M677.07,258.02c-.36-.15-.6-.37-.71-.66-.11-.29-.1-.61,.04-.94l13.09-32.28c.15-.36,.36-.61,.65-.74s.61-.13,.97,.02l20.41,8.28c.36,.15,.6,.37,.71,.66,.11,.29,.09,.62-.05,.99l-.76,1.88c-.15,.36-.36,.6-.64,.72-.28,.12-.6,.1-.96-.04l-16.8-6.82-4.39,10.82,15.72,6.38c.36,.15,.6,.37,.71,.66,.11,.29,.09,.62-.05,.99l-.74,1.83c-.13,.33-.35,.56-.63,.7-.28,.13-.61,.13-.97-.02l-15.72-6.38-4.55,11.22,17.2,6.98c.36,.15,.6,.36,.72,.64,.12,.28,.1,.6-.04,.96l-.78,1.93c-.13,.33-.34,.56-.63,.69-.28,.14-.61,.13-.97-.02l-20.81-8.44Z"/>
      <path class="cls-1" d="M719.47,277.17c-.34-.2-.54-.45-.6-.76-.06-.31,0-.61,.18-.92l17.82-29.93c.2-.34,.45-.55,.75-.64s.62-.04,.96,.16l10.4,6.19c3.15,1.87,5.4,3.86,6.76,5.95,1.36,2.09,1.94,4.33,1.72,6.7-.21,2.38-1.11,4.92-2.68,7.62-.79,1.39-1.49,2.61-2.11,3.65-.62,1.04-1.34,2.22-2.18,3.55-1.73,2.77-3.59,4.83-5.56,6.16-1.97,1.33-4.16,1.89-6.58,1.67-2.41-.22-5.17-1.24-8.25-3.08l-10.63-6.33Zm5.75-1.85l6.97,4.15c2.11,1.26,3.96,1.97,5.56,2.13,1.6,.17,3.06-.23,4.39-1.17,1.33-.95,2.64-2.46,3.92-4.55,.6-.88,1.11-1.66,1.52-2.35,.41-.69,.82-1.37,1.23-2.06,.41-.69,.84-1.49,1.31-2.41,1.7-3,2.31-5.61,1.81-7.83-.5-2.22-2.34-4.28-5.51-6.17l-6.74-4.01-14.46,24.29Z"/>
      <path class="cls-1" d="M784.23,323.88c-.28-.27-.43-.56-.43-.87,0-.32,.12-.6,.36-.86l23.77-25.53c.24-.26,.52-.4,.83-.43,.31-.02,.61,.1,.9,.36l2.07,1.93c.26,.24,.39,.53,.41,.85s-.1,.62-.35,.88l-23.77,25.53c-.24,.26-.53,.4-.85,.41-.33,.01-.62-.1-.88-.35l-2.07-1.93Z"/>
      <path class="cls-1" d="M805.02,344.53c-.25-.3-.36-.61-.32-.92,.04-.31,.2-.58,.47-.81l26.72-22.35c.3-.25,.61-.37,.92-.35,.31,.02,.59,.17,.85,.47l1.57,1.88c.27,.33,.4,.64,.39,.92-.01,.29-.05,.48-.11,.58l-9.51,31.04,20.46-17.11c.3-.25,.61-.37,.92-.35s.6,.17,.85,.47l1.64,1.96c.25,.3,.36,.61,.33,.94-.03,.33-.2,.61-.49,.87l-26.68,22.31c-.27,.23-.58,.33-.92,.32-.34-.02-.62-.16-.85-.44l-1.64-1.96c-.25-.3-.36-.59-.32-.88,.04-.29,.06-.48,.07-.58l9.34-30.82-20.3,16.97c-.27,.23-.57,.33-.9,.3s-.61-.19-.86-.49l-1.64-1.96Z"/>
    </g>
    <g>
      <path class="cls-1" d="M480.58,345.91c-.36,0-.65-.12-.88-.35-.23-.23-.35-.52-.35-.88v-1.71c0-.32,.09-.67,.27-1.07s.53-.82,1.07-1.28l11.31-11.31c1.81-1.53,3.25-2.84,4.29-3.92,1.05-1.08,1.8-2.13,2.24-3.12,.44-1,.67-2.03,.67-3.09,0-2.03-.57-3.64-1.7-4.83-1.14-1.19-2.83-1.79-5.07-1.79-1.42,0-2.65,.29-3.68,.88-1.03,.59-1.84,1.39-2.43,2.4-.59,1.01-.97,2.16-1.15,3.44-.07,.46-.26,.78-.56,.96-.3,.18-.58,.27-.83,.27h-2.77c-.32,0-.59-.1-.8-.29-.21-.2-.32-.44-.32-.72,.04-1.35,.32-2.71,.85-4.08,.53-1.37,1.32-2.6,2.37-3.71,1.05-1.1,2.35-2,3.89-2.69,1.55-.69,3.35-1.04,5.41-1.04,2.81,0,5.11,.51,6.91,1.52,1.79,1.01,3.12,2.36,3.97,4.03,.85,1.67,1.28,3.5,1.28,5.49,0,1.57-.27,3-.8,4.29-.53,1.3-1.31,2.56-2.32,3.79s-2.27,2.48-3.76,3.76l-10.24,10.4h16.64c.39,0,.7,.11,.93,.32,.23,.21,.35,.51,.35,.91v2.19c0,.36-.12,.65-.35,.88-.23,.23-.54,.35-.93,.35h-23.52Z"/>
      <path class="cls-1" d="M542.02,346.45c-2.45,0-4.52-.38-6.21-1.15-1.69-.76-3.07-1.82-4.13-3.17s-1.84-2.9-2.32-4.64c-.48-1.74-.75-3.59-.83-5.55-.04-.96-.06-1.97-.08-3.04-.02-1.07-.02-2.14,0-3.23,.02-1.08,.04-2.12,.08-3.12,.04-1.95,.31-3.81,.83-5.57,.51-1.76,1.3-3.31,2.35-4.64,1.05-1.33,2.43-2.38,4.13-3.15,1.71-.76,3.77-1.15,6.19-1.15s4.52,.38,6.21,1.15c1.69,.76,3.07,1.81,4.13,3.15,1.07,1.33,1.86,2.88,2.38,4.64,.51,1.76,.79,3.62,.83,5.57,.04,1,.06,2.04,.08,3.12,.02,1.09,.02,2.16,0,3.23s-.04,2.08-.08,3.04c-.04,1.96-.31,3.8-.83,5.55-.52,1.74-1.3,3.29-2.35,4.64-1.05,1.35-2.42,2.41-4.11,3.17-1.69,.76-3.78,1.15-6.27,1.15Zm0-4.53c2.77,0,4.83-.91,6.16-2.75,1.33-1.83,2.02-4.33,2.05-7.49,.07-1.03,.11-2.03,.11-3.01v-2.93c0-.98-.04-1.95-.11-2.91-.04-3.09-.72-5.57-2.05-7.44-1.33-1.87-3.39-2.8-6.16-2.8s-4.77,.93-6.11,2.8c-1.33,1.87-2.03,4.35-2.11,7.44,0,.96,0,1.93-.03,2.91-.02,.98-.02,1.96,0,2.93,.02,.98,.03,1.98,.03,3.01,.07,3.17,.78,5.66,2.13,7.49,1.35,1.83,3.38,2.75,6.08,2.75Z"/>
      <path class="cls-1" d="M579.89,345.91c-.36,0-.65-.12-.88-.35-.23-.23-.35-.52-.35-.88v-1.71c0-.32,.09-.67,.27-1.07,.18-.39,.53-.82,1.07-1.28l11.31-11.31c1.81-1.53,3.24-2.84,4.29-3.92,1.05-1.08,1.79-2.13,2.24-3.12,.44-1,.67-2.03,.67-3.09,0-2.03-.57-3.64-1.7-4.83-1.14-1.19-2.83-1.79-5.07-1.79-1.42,0-2.65,.29-3.68,.88s-1.84,1.39-2.42,2.4c-.59,1.01-.97,2.16-1.15,3.44-.07,.46-.26,.78-.56,.96-.3,.18-.58,.27-.83,.27h-2.78c-.32,0-.59-.1-.8-.29-.21-.2-.32-.44-.32-.72,.04-1.35,.32-2.71,.85-4.08s1.32-2.6,2.37-3.71c1.05-1.1,2.35-2,3.89-2.69,1.55-.69,3.35-1.04,5.42-1.04,2.81,0,5.11,.51,6.91,1.52,1.8,1.01,3.12,2.36,3.97,4.03,.86,1.67,1.28,3.5,1.28,5.49,0,1.57-.27,3-.8,4.29-.53,1.3-1.31,2.56-2.32,3.79-1.01,1.23-2.27,2.48-3.76,3.76l-10.24,10.4h16.64c.39,0,.7,.11,.93,.32,.23,.21,.35,.51,.35,.91v2.19c0,.36-.12,.65-.35,.88-.23,.23-.54,.35-.93,.35h-23.52Z"/>
      <path class="cls-1" d="M639.15,345.91c-.36,0-.65-.12-.88-.35-.23-.23-.35-.52-.35-.88v-29.87l-8.85,6.83c-.28,.21-.59,.3-.91,.27-.32-.04-.59-.2-.8-.48l-1.39-1.76c-.21-.32-.29-.64-.24-.96s.22-.59,.51-.8l11.63-8.96c.25-.18,.48-.28,.69-.32,.21-.04,.44-.05,.69-.05h2.72c.36,0,.64,.12,.85,.35,.21,.23,.32,.53,.32,.88v34.88c0,.36-.11,.65-.32,.88-.21,.23-.5,.35-.85,.35h-2.83Z"/>
    </g>
    <g>
      <path class="cls-1" d="M362.32,862.47c-.36,0-.65-.12-.88-.35s-.35-.52-.35-.88v-31.36h-10.24c-.36,0-.65-.12-.88-.35-.23-.23-.35-.52-.35-.88v-2.24c0-.39,.12-.7,.35-.93,.23-.23,.52-.35,.88-.35h25.71c.39,0,.7,.12,.93,.35,.23,.23,.35,.54,.35,.93v2.24c0,.36-.12,.65-.35,.88s-.54,.35-.93,.35h-10.19v31.36c0,.36-.12,.65-.35,.88s-.54,.35-.93,.35h-2.77Z"/>
      <path class="cls-1" d="M402.11,862.47c-.39,0-.69-.12-.91-.35-.21-.23-.32-.52-.32-.88v-34.83c0-.39,.11-.7,.32-.93,.21-.23,.51-.35,.91-.35h2.72c.39,0,.7,.12,.93,.35s.35,.54,.35,.93v14.72h18.35v-14.72c0-.39,.12-.7,.35-.93,.23-.23,.52-.35,.88-.35h2.72c.39,0,.7,.12,.93,.35s.35,.54,.35,.93v34.83c0,.36-.12,.65-.35,.88s-.54,.35-.93,.35h-2.72c-.36,0-.65-.12-.88-.35-.23-.23-.35-.52-.35-.88v-15.31h-18.35v15.31c0,.36-.12,.65-.35,.88s-.54,.35-.93,.35h-2.72Z"/>
      <path class="cls-1" d="M457.21,862.47c-.39,0-.69-.12-.91-.35s-.32-.52-.32-.88v-34.83c0-.39,.11-.7,.32-.93s.51-.35,.91-.35h22.03c.39,0,.69,.12,.91,.35s.32,.54,.32,.93v2.02c0,.39-.11,.69-.32,.91s-.52,.32-.91,.32h-18.14v11.68h16.96c.39,0,.69,.12,.91,.35,.21,.23,.32,.54,.32,.93v1.97c0,.36-.11,.65-.32,.88-.21,.23-.52,.35-.91,.35h-16.96v12.11h18.56c.39,0,.69,.11,.91,.32,.21,.21,.32,.51,.32,.91v2.08c0,.36-.11,.65-.32,.88-.21,.23-.52,.35-.91,.35h-22.45Z"/>
      <path class="cls-1" d="M536.74,862.47c-.39,0-.69-.12-.91-.35s-.32-.52-.32-.88v-34.83c0-.39,.11-.7,.32-.93s.51-.35,.91-.35h2.45c.43,0,.75,.1,.96,.29,.21,.2,.34,.35,.37,.45l17.71,27.2v-26.67c0-.39,.11-.7,.32-.93,.21-.23,.51-.35,.91-.35h2.56c.39,0,.7,.12,.93,.35s.35,.54,.35,.93v34.78c0,.36-.12,.66-.35,.91-.23,.25-.53,.37-.88,.37h-2.56c-.39,0-.68-.11-.88-.32-.2-.21-.33-.36-.4-.43l-17.66-26.94v26.46c0,.36-.12,.65-.35,.88-.23,.23-.54,.35-.93,.35h-2.56Z"/>
      <path class="cls-1" d="M602.99,863.01c-3.02,0-5.62-.52-7.79-1.57-2.17-1.05-3.84-2.67-5.01-4.85-1.17-2.19-1.83-4.94-1.97-8.24-.04-1.56-.05-3.07-.05-4.51s.02-2.94,.05-4.51c.14-3.27,.83-6,2.05-8.19,1.23-2.18,2.93-3.82,5.12-4.91,2.18-1.08,4.72-1.62,7.6-1.62s5.47,.54,7.65,1.62c2.19,1.09,3.9,2.72,5.15,4.91,1.24,2.19,1.92,4.92,2.03,8.19,.07,1.56,.11,3.07,.11,4.51s-.04,2.94-.11,4.51c-.11,3.31-.76,6.06-1.95,8.24-1.19,2.18-2.87,3.8-5.04,4.85-2.17,1.05-4.78,1.57-7.84,1.57Zm0-4.53c2.74,0,4.97-.82,6.69-2.45,1.72-1.64,2.66-4.29,2.8-7.95,.07-1.6,.11-3.03,.11-4.29s-.03-2.68-.11-4.24c-.07-2.45-.52-4.45-1.36-5.98-.83-1.53-1.95-2.65-3.33-3.36-1.39-.71-2.99-1.07-4.8-1.07s-3.31,.36-4.69,1.07c-1.39,.71-2.5,1.83-3.33,3.36-.84,1.53-1.31,3.52-1.41,5.98-.04,1.56-.05,2.98-.05,4.24s.02,2.69,.05,4.29c.14,3.66,1.08,6.31,2.82,7.95,1.74,1.63,3.95,2.45,6.61,2.45Z"/>
      <path class="cls-1" d="M644,862.47c-.39,0-.69-.12-.91-.35s-.32-.52-.32-.88v-34.83c0-.39,.11-.7,.32-.93s.51-.35,.91-.35h13.02c4.02,0,7.2,.94,9.55,2.83,2.35,1.89,3.52,4.68,3.52,8.37,0,2.74-.68,4.97-2.05,6.69-1.37,1.72-3.22,2.93-5.57,3.6l8.21,14.19c.11,.21,.16,.41,.16,.59,0,.28-.12,.53-.35,.75-.23,.21-.49,.32-.77,.32h-2.56c-.61,0-1.05-.16-1.34-.48-.28-.32-.53-.64-.75-.96l-7.73-13.55h-9.33v13.76c0,.36-.12,.65-.35,.88-.23,.23-.54,.35-.93,.35h-2.72Zm4-19.52h8.8c2.67,0,4.66-.56,5.98-1.68,1.31-1.12,1.97-2.78,1.97-4.99s-.65-3.82-1.95-4.96c-1.3-1.14-3.3-1.71-6-1.71h-8.8v13.34Z"/>
      <path class="cls-1" d="M703.74,862.47c-.36,0-.65-.12-.88-.35-.23-.23-.35-.52-.35-.88v-31.36h-10.24c-.36,0-.65-.12-.88-.35-.23-.23-.35-.52-.35-.88v-2.24c0-.39,.12-.7,.35-.93s.52-.35,.88-.35h25.71c.39,0,.7,.12,.93,.35,.23,.23,.35,.54,.35,.93v2.24c0,.36-.12,.65-.35,.88s-.54,.35-.93,.35h-10.19v31.36c0,.36-.12,.65-.35,.88-.23,.23-.54,.35-.93,.35h-2.78Z"/>
      <path class="cls-1" d="M743.53,862.47c-.39,0-.69-.12-.91-.35s-.32-.52-.32-.88v-34.83c0-.39,.11-.7,.32-.93s.51-.35,.91-.35h2.72c.39,0,.7,.12,.93,.35,.23,.23,.35,.54,.35,.93v14.72h18.35v-14.72c0-.39,.12-.7,.35-.93,.23-.23,.52-.35,.88-.35h2.72c.39,0,.7,.12,.93,.35s.35,.54,.35,.93v34.83c0,.36-.12,.65-.35,.88s-.54,.35-.93,.35h-2.72c-.36,0-.65-.12-.88-.35-.23-.23-.35-.52-.35-.88v-15.31h-18.35v15.31c0,.36-.12,.65-.35,.88-.23,.23-.54,.35-.93,.35h-2.72Z"/>
    </g>
    <circle class="cls-1" cx="68.51" cy="528.76" r="13.55"/>
    <circle class="cls-1" cx="1053.99" cy="528.76" r="13.55"/>
    <g>
      <g>
        <path class="cls-1" d="M898.42,525.9c-3.74-5.72-10.15-12.82-19.39-13.97-4.35-.53-8.62,.69-12.06,3.43-2.52,1.98-4.35,4.66-5.5,7.71-5.34-.31-10.23,1.3-14.2,5.04-8.85,8.47-12.67,27.1-9.77,49.76,.61,4.73,4.58,8.7,8.55,1.22,2.98-5.65,9.24-12.82,15.65-19.62,9.92-10.46,18.55-19.54,15.8-27.71-1.22-3.59-4.2-5.65-7.17-6.87,.53-.99,1.3-1.91,2.14-2.6,1.14-.92,2.98-1.83,5.5-1.6,6.11,.76,10.76,6.56,13.05,10,3.51,5.34,5.57,10.99,5.95,16.33,.38,5.8-1.22,11.37-4.5,15.34-2.52,3.05-6.18,5.42-10.07,7.86-6.11,3.97-12.44,8.01-15.34,15.49-3.59,9.31,.46,19.16,3.74,27.25,2.6,6.34,5.19,14.35,1.83,19.84-3.51,5.65-12.29,6.56-17.17,6.56-1.6,.08-3.36,0-5.04-.08-6.64-.15-13.51-.31-20.15,2.52-2.82,1.22-5.27,3.05-7.56,5.27-7.02-7.86-15.95-12.06-23.58-15.49-7.33-3.36-13.66-6.26-15.95-11.37-2.21-5.11-3.13-16.41-2.67-31.9,.92,1.76,1.83,3.51,2.82,5.42,.76,1.53,2.29,2.52,4.05,2.52h.38c1.83-.15,3.36-1.45,3.89-3.28,5.5-19.69,14.04-36.18,22.29-52.21,19.54-37.78,36.48-70.45-2.29-120.9-2.52-3.28-6.72-5.04-11.14-4.66-4.96,.46-33.74-4.27-40.22,3.89-8.7-6.64-18.32-4.88-27.63-3.21-9.54,1.76-19.46,3.51-31.14-1.98-2.06-.99-4.5-.23-5.72,1.68-7.94,12.82-6.79,21.14,4.2,32.06,.84,.84,1.91,1.45,3.28,1.3,6.87,0,11.75,2.14,13.89,5.57-7.94-3.43-16.33-1.91-22.82-.69-4.81,.92-9.24,1.76-10.76,.08-2.44-2.82-2.98-5.5-3.59-8.62-.99-5.5-2.29-12.29-14.2-17.33-2.21-.92-4.88,.08-5.88,2.37-.99,2.29,.08,4.88,2.37,5.88,7.48,3.13,8.01,6.03,8.85,10.69,.69,3.66,1.53,8.24,5.65,12.9,4.81,5.5,12.06,4.12,19.08,2.82,.08,0,.23-.08,.31-.08-2.75,10.91-4.73,24.58,1.07,28.7,.84,.61,2.14,1.22,3.97,1.22,1.6,0,3.59-.53,5.88-2.06,8.93-5.95,17.63-7.4,25.57-8.09,.31,1.14,.46,2.29,0,3.05-1.68,2.98-11.14,4.27-18.7,5.27-7.94,1.07-17.33,2.37-24.81,5.95-8.55-7.1-17.1-12.75-25.42-16.56-4.58-2.14-8.01-6.26-9.69-11.75-2.44-7.94-6.26-14.35-11.22-19.08-3.74-3.59-5.95-7.56-6.56-11.75-1.3-11.75-5.5-27.02-16.03-33.2-5.88-3.43-12.75-3.66-20.46-.61-9.77,3.82-15.19,8.47-16.79,14.27-2.06,7.86,3.51,14.88,8.47,21.14,2.44,3.05,4.96,6.26,5.65,8.47,5.11,19.39,12.29,33.28,21.98,42.59,3.05,2.98,4.96,6.56,5.42,10.23,1.6,13.13,6.72,26.64,15.04,40.3-1.6,1.53-3.36,2.98-4.88,4.58-4.88,5.27-12.36,6.79-18.62,3.82-3.51-1.68-7.02-3.66-10.3-5.5-10.53-5.95-21.45-12.14-29.08-4.66-6.79,6.79-9.08,17.1-5.95,26.79,3.66,11.75,13.43,20.3,26.1,22.82,5.27,1.07,10.07,1.45,14.43,1.45,12.82,0,21.45-3.74,25.03-5.65,1.07-.53,2.37-.84,3.59-.76,8.4,.61,15.95-.53,22.52-3.36,4.2,14.35,11.37,26.79,22.21,38.47-7.56,1.83-15.49,4.96-22.9,10.3-21.22,15.34-11.14,41.29-5.11,56.79,1.53,3.97,2.9,7.4,3.36,9.69,1.37,6.79-1.22,13.13-2.06,13.81,0,0-1.07-.46-2.6-3.13-4.66-8.24-17.4-10.3-27.78-9.54-9.08,.69-19.69,3.82-22.29,10.53-.76,2.06-1.45,6.11,2.75,10.53,16.79,17.48,32.06,26.26,45.57,26.26,4.43,0,8.7-.92,12.75-2.82,11.22-5.34,17.48-6.79,22.97-8.09,3.89-.92,7.48-1.76,12.14-3.66,6.41-2.67,7.4-10,8.47-17.78,1.91-13.66,4.27-22.82,18.93-24.27,8.01-.84,16.26,.15,24.58,2.9,3.36,10.15,11.37,18.7,23.13,24.58,7.25,3.59,15.19,5.34,22.21,6.95,10.46,2.37,14.81,3.74,14.35,6.11-1.22,1.53-9.24,1.91-14.04,2.06-10.53,.46-22.52,.99-29.08,8.24-3.21,3.51-4.66,8.17-4.35,13.81,.23,4.5,1.07,10.84,5.5,14.12,2.06,1.53,4.35,2.06,6.79,2.06,2.9,0,6.03-.76,9.24-1.53,4.43-1.07,9.39-2.29,14.5-1.76,10.3,1.14,27.71-3.36,38.77-13.2,7.4-6.64,11.37-14.88,11.37-23.97,0-14.58-6.72-18.39-11.6-21.22-4.12-2.37-6.41-3.66-5.72-12.29,1.53-18.17-1.37-30.53-6.41-39.46,1.68-1.83,3.66-3.36,5.88-4.35,4.81-2.06,10.46-1.91,16.41-1.76,1.76,.08,3.59,.08,5.34,.08,11.83-.08,20.38-3.82,24.73-10.84,5.5-8.85,2.29-19.54-1.22-28.09-2.9-7.1-5.95-14.43-3.59-20.46,1.83-4.73,6.72-7.86,11.83-11.14,4.27-2.75,8.7-5.57,12.14-9.69,4.73-5.72,7.1-13.59,6.56-21.68-.69-7.17-3.28-14.27-7.63-20.84Zm-43.28,27.48c-3.28,3.51-6.72,7.02-9.62,10.61-.08-13.59,2.6-24.73,7.86-29.39,8.32-7.4,15.42-.38,15.57,.15,1.07,2.98-8.24,12.75-13.81,18.62Zm-152.35-70.68c-.31-3.05,.38-9.24,1.76-15.34,.99,.23,2.14,.53,3.05,.76,5.27,1.37,11.22,2.98,15.04-.15,.84-.69,1.45-1.45,2.06-2.29h.08s0-.08,.08-.08c2.6-3.51,3.36-8.24,1.83-12.75-2.67-7.63-10.61-12.36-21.45-12.82-5.95-6.18-6.95-9.85-3.59-16.41,12.67,4.73,23.66,2.75,32.74,1.07,10.07-1.83,15.95-2.6,21.52,2.29-.61,6.34,.53,10.69,1.6,14.58-1.6,1.22-3.28,2.6-5.04,4.12-1.83,1.68-1.98,4.5-.31,6.34s4.5,1.98,6.34,.31c11.6-10.38,20.76-12.36,24.65-9.69,1.83,1.3,2.44,3.74,1.45,6.18-1.83,4.81-9.31,9.69-24.42,7.63-2.52-.31-4.73,1.37-5.04,3.82-.15,1.3,.23,2.44,.92,3.36-2.9,7.79-8.17,8.62-19.46,9.39-9.69,.69-21.52,1.53-33.81,9.69Zm12.67,16.72c11.53-1.53,21.45-2.9,25.34-9.77,1.3-2.37,1.68-5.11,1.14-8.17,9.46-.92,18.39-3.51,22.59-15.88,.69,0,1.45,.15,2.06,.15,15.11,0,23.36-6.79,26.1-13.81,2.44-6.41,.61-13.13-4.73-16.79-2.44-1.68-10.07-5.42-22.67,1.14-.61-2.67-.92-5.57-.46-9.39,4.05-6.26,30.99-2.44,36.48-2.9,1.3-.15,2.6,.31,3.28,1.22,35.26,45.95,20.3,74.8,1.37,111.36-6.72,12.9-14.12,27.25-19.69,43.43-3.21-5.88-6.41-10.91-9.62-15.42,2.9-6.79,6.64-13.81,10.69-21.29,12.44-23.28,26.49-49.69,20-77.24-.53-2.37-2.98-3.89-5.34-3.28-2.37,.53-3.89,2.98-3.28,5.34,5.72,24.27-6.95,48.01-19.16,70.98-3.28,6.11-6.18,11.83-8.93,17.55-4.5-5.27-8.93-9.31-13.43-12.67,3.21-8.09,7.86-15.65,12.44-22.97,7.56-11.98,15.34-24.42,16.64-39.77,.23-2.44-1.6-4.66-4.05-4.81-2.37-.23-4.66,1.6-4.81,4.05-1.14,13.13-8.01,24.12-15.27,35.72-4.5,7.17-9.08,14.58-12.52,22.75-8.85-4.96-17.94-7.56-27.48-10.23-11.53-3.28-23.43-6.56-36.87-14.81,1.98-9.85,13.89-12.29,30.15-14.5Zm-82.05-.23c-.69-5.72-3.59-11.3-8.17-15.65-8.47-8.09-14.88-20.68-19.54-38.54-1.22-3.97-4.12-7.63-7.25-11.53-3.59-4.58-7.71-9.69-6.79-13.2,.76-2.75,4.81-5.72,11.37-8.32,5.11-1.98,9.24-1.98,12.67,0,7.86,4.58,10.91,18.7,11.98,26.71,.84,6.18,4.05,12.06,9.24,17.02,3.97,3.74,6.87,8.7,8.85,15.27,2.44,7.94,7.63,14.04,14.5,17.25,7.02,3.21,14.27,7.94,21.68,13.89-3.36,3.43-7.02,9.46-5.95,14.88-11.37,5.11-21.29,10.91-29.69,17.71-7.1-12.21-11.53-24.12-12.9-35.49Zm202.11,214.7c4.12,2.37,7.1,4.05,7.1,13.43,0,6.56-2.82,12.36-8.32,17.33-9.01,8.01-23.43,11.98-31.83,10.99-6.64-.76-12.75,.76-17.71,1.98-3.51,.84-7.4,1.83-8.55,.99-.23-.15-1.6-1.45-1.91-7.4-.15-3.21,.53-5.57,2.06-7.33,4.05-4.5,14.04-4.96,22.9-5.34,10.76-.46,20.84-.92,22.44-9.31,2.14-11.37-10.23-14.12-21.14-16.56-6.49-1.45-13.89-3.05-20.15-6.18-11.45-5.65-18.24-13.89-19.69-23.74-1.45-10.07,2.98-20.84,12.29-29.54,1.83-1.68,1.91-4.5,.23-6.34-1.68-1.83-4.5-1.91-6.34-.23-10.3,9.62-15.72,21.6-15.34,33.35-7.94-2.06-15.95-2.75-23.74-1.91-22.75,2.37-25.26,20.15-26.87,31.98-.61,4.5-1.3,10.61-3.05,10.76-10.23,.84-23.43,6.18-35.49,11.91-12.52,5.88-28.7-1.37-48.01-21.45-.69-.76-.84-1.14-.84-1.14,.38-1.07,4.88-3.97,13.81-4.73,9.46-.84,18.01,1.22,20.15,4.96,5.11,8.93,10.84,7.94,13.05,7.1,7.17-2.67,10.07-14.5,8.17-23.97-.61-3.05-2.06-6.79-3.82-11.14-7.17-18.47-12.44-35.87,1.98-46.33,20.91-15.04,48.31-10.15,50.3-9.85,3.13,1.98,6.34,3.89,9.77,5.57,.61,.31,1.3,.46,1.91,.46,1.68,0,3.28-.92,4.05-2.52,1.07-2.21,.15-4.88-2.06-5.95-19.23-9.24-31.9-23.28-38.62-42.82-.84-2.37-3.36-3.59-5.72-2.75-2.37,.84-3.59,3.36-2.75,5.65,4.43,12.75,11.37,23.58,20.61,32.36-2.75,0-5.8,.08-9.08,.46-12.75-12.36-20.76-25.65-24.88-41.22,1.91-1.45,3.82-3.05,5.5-4.88,1.91-2.06,4.88-2.6,7.02-1.37,25.34,14.04,47.93,11.53,67.17-7.4,1.76-1.76,1.76-4.58,.08-6.34-1.76-1.76-4.58-1.76-6.34-.08-16.33,16.03-34.8,17.94-56.63,5.95-5.8-3.21-13.2-1.91-17.94,3.13-7.02,7.63-16.41,10.91-28.93,10-2.82-.15-5.65,.46-8.24,1.76-4.12,2.21-15.65,7.02-33.66,3.36-13.51-2.67-18.01-12.59-19.31-16.79-2.52-7.79,.31-14.27,3.74-17.71,2.82-2.75,10.76,1.68,18.39,6.03,3.51,1.98,7.17,4.05,10.91,5.8,9.85,4.73,21.45,2.37,29-5.8,10.53-11.37,24.35-20.46,42.06-27.86,13.43,7.71,25.49,11.07,36.33,14.12,19.39,5.5,35.42,10.07,52.66,36.64-1.76,24.81-.92,41.52,2.67,49.61,3.66,8.24,11.75,11.98,20.38,15.95,16.26,7.48,33.13,15.19,29.92,53.43-1.07,14.43,5.5,18.17,10.3,20.91Z"/>
        <path class="cls-1" d="M792.32,693.36c-18.24-10.46-17.02-18.62-13.89-24.58,1.14-2.21,.31-4.88-1.91-6.03-2.21-1.14-4.88-.31-6.03,1.91-7.02,13.51-1.22,25.8,17.33,36.48,.69,.38,1.45,.61,2.21,.61,1.53,0,3.05-.84,3.89-2.21,1.3-2.21,.53-4.96-1.6-6.18Z"/>
        <path class="cls-1" d="M739.05,438.66c.69,0,1.45-.15,2.06-.46,2.21-1.07,3.21-3.74,2.14-5.95-1.07-2.21-3.74-3.21-5.95-2.14l-.53,.31c-2.21,1.07-2.9,3.59-1.83,5.8,.69,1.6,2.37,2.44,4.12,2.44Z"/>
      </g>
      <g>
        <path class="cls-1" d="M216.45,546.74c-.53,8.09,1.83,15.95,6.56,21.68,3.43,4.12,7.86,6.95,12.14,9.69,5.11,3.28,10,6.41,11.83,11.14,2.37,6.03-.69,13.36-3.59,20.46-3.51,8.55-6.72,19.23-1.22,28.09,4.35,7.02,12.9,10.76,24.73,10.84,1.76,0,3.59,0,5.34-.08,5.95-.15,11.6-.31,16.41,1.76,2.21,.99,4.2,2.52,5.88,4.35-5.04,8.93-7.94,21.29-6.41,39.46,.69,8.62-1.6,9.92-5.72,12.29-4.88,2.82-11.6,6.64-11.6,21.22,0,9.08,3.97,17.33,11.37,23.97,11.07,9.85,28.47,14.35,38.77,13.2,5.11-.53,10.07,.69,14.5,1.76,3.21,.76,6.34,1.53,9.24,1.53,2.44,0,4.73-.53,6.79-2.06,4.43-3.28,5.27-9.62,5.5-14.12,.31-5.65-1.14-10.3-4.35-13.81-6.56-7.25-18.55-7.79-29.08-8.24-4.81-.15-12.82-.53-14.04-2.06-.46-2.37,3.89-3.74,14.35-6.11,7.02-1.6,14.96-3.36,22.21-6.95,11.75-5.88,19.77-14.43,23.13-24.58,8.32-2.75,16.56-3.74,24.58-2.9,14.65,1.45,17.02,10.61,18.93,24.27,1.07,7.79,2.06,15.11,8.47,17.78,4.66,1.91,8.24,2.75,12.14,3.66,5.5,1.3,11.75,2.75,22.97,8.09,4.05,1.91,8.32,2.82,12.75,2.82,13.51,0,28.77-8.78,45.57-26.26,4.2-4.43,3.51-8.47,2.75-10.53-2.6-6.72-13.2-9.85-22.29-10.53-10.38-.76-23.13,1.3-27.78,9.54-1.53,2.67-2.6,3.13-2.6,3.13-.84-.69-3.43-7.02-2.06-13.81,.46-2.29,1.83-5.72,3.36-9.69,6.03-15.49,16.1-41.44-5.11-56.79-7.4-5.34-15.34-8.47-22.9-10.3,10.84-11.68,18.01-24.12,22.21-38.47,6.56,2.82,14.12,3.97,22.52,3.36,1.22-.08,2.52,.23,3.59,.76,3.59,1.91,12.21,5.65,25.03,5.65,4.35,0,9.16-.38,14.43-1.45,12.67-2.52,22.44-11.07,26.1-22.82,3.13-9.69,.84-20-5.95-26.79-7.63-7.48-18.55-1.3-29.08,4.66-3.28,1.83-6.79,3.82-10.3,5.5-6.26,2.98-13.74,1.45-18.62-3.82-1.53-1.6-3.28-3.05-4.88-4.58,8.32-13.66,13.43-27.17,15.04-40.3,.46-3.66,2.37-7.25,5.42-10.23,9.69-9.31,16.87-23.2,21.98-42.59,.69-2.21,3.21-5.42,5.65-8.47,4.96-6.26,10.53-13.28,8.47-21.14-1.6-5.8-7.02-10.46-16.79-14.27-7.71-3.05-14.58-2.82-20.46,.61-10.53,6.18-14.73,21.45-16.03,33.2-.61,4.2-2.82,8.17-6.56,11.75-4.96,4.73-8.78,11.14-11.22,19.08-1.68,5.5-5.11,9.62-9.69,11.75-8.32,3.82-16.87,9.46-25.42,16.56-7.48-3.59-16.87-4.88-24.81-5.95-7.56-.99-17.02-2.29-18.7-5.27-.46-.76-.31-1.91,0-3.05,7.94,.69,16.64,2.14,25.57,8.09,2.29,1.53,4.27,2.06,5.88,2.06,1.83,0,3.13-.61,3.97-1.22,5.8-4.12,3.82-17.78,1.07-28.7,.08,0,.23,.08,.31,.08,7.02,1.3,14.27,2.67,19.08-2.82,4.12-4.66,4.96-9.24,5.65-12.9,.84-4.66,1.37-7.56,8.85-10.69,2.29-.99,3.36-3.59,2.37-5.88-.99-2.29-3.66-3.28-5.88-2.37-11.91,5.04-13.2,11.83-14.2,17.33-.61,3.13-1.14,5.8-3.59,8.62-1.53,1.68-5.95,.84-10.76-.08-6.49-1.22-14.88-2.75-22.82,.69,2.14-3.43,7.02-5.57,13.89-5.57,1.37,.15,2.44-.46,3.28-1.3,10.99-10.91,12.14-19.23,4.2-32.06-1.22-1.91-3.66-2.67-5.72-1.68-11.68,5.5-21.6,3.74-31.14,1.98-9.31-1.68-18.93-3.43-27.63,3.21-6.49-8.17-35.26-3.43-40.22-3.89-4.43-.38-8.62,1.37-11.14,4.66-38.77,50.45-21.83,83.12-2.29,120.9,8.24,16.03,16.79,32.51,22.29,52.21,.53,1.83,2.06,3.13,3.89,3.28h.38c1.76,0,3.28-.99,4.05-2.52,.99-1.91,1.91-3.66,2.82-5.42,.46,15.49-.46,26.79-2.67,31.9-2.29,5.11-8.62,8.01-15.95,11.37-7.63,3.43-16.56,7.63-23.58,15.49-2.29-2.21-4.73-4.05-7.56-5.27-6.64-2.82-13.51-2.67-20.15-2.52-1.68,.08-3.43,.15-5.04,.08-4.88,0-13.66-.92-17.17-6.56-3.36-5.5-.76-13.51,1.83-19.84,3.28-8.09,7.33-17.94,3.74-27.25-2.9-7.48-9.24-11.53-15.34-15.49-3.89-2.44-7.56-4.81-10.07-7.86-3.28-3.97-4.88-9.54-4.5-15.34,.38-5.34,2.44-10.99,5.95-16.33,2.29-3.43,6.95-9.24,13.05-10,2.52-.23,4.35,.69,5.5,1.6,.84,.69,1.6,1.6,2.14,2.6-2.98,1.22-5.95,3.28-7.17,6.87-2.75,8.17,5.88,17.25,15.8,27.71,6.41,6.79,12.67,13.97,15.65,19.62,3.97,7.48,7.94,3.51,8.55-1.22,2.9-22.67-.92-41.29-9.77-49.76-3.97-3.74-8.85-5.34-14.2-5.04-1.14-3.05-2.98-5.72-5.5-7.71-3.43-2.75-7.71-3.97-12.06-3.43-9.24,1.14-15.65,8.24-19.39,13.97-4.35,6.56-6.95,13.66-7.63,20.84Zm37.09-11.98c.15-.53,7.25-7.56,15.57-.15,5.27,4.66,7.94,15.8,7.86,29.39-2.9-3.59-6.34-7.1-9.62-10.61-5.57-5.88-14.88-15.65-13.81-18.62Zm132.35-61.75c-11.3-.76-16.56-1.6-19.46-9.39,.69-.92,1.07-2.06,.92-3.36-.31-2.44-2.52-4.12-5.04-3.82-15.11,2.06-22.59-2.82-24.42-7.63-.99-2.44-.38-4.88,1.45-6.18,3.89-2.67,13.05-.69,24.65,9.69,1.83,1.68,4.66,1.53,6.34-.31,1.68-1.83,1.53-4.66-.31-6.34-1.76-1.53-3.43-2.9-5.04-4.12,1.07-3.89,2.21-8.24,1.6-14.58,5.57-4.88,11.45-4.12,21.52-2.29,9.08,1.68,20.07,3.66,32.74-1.07,3.36,6.56,2.37,10.23-3.59,16.41-10.84,.46-18.78,5.19-21.45,12.82-1.53,4.5-.76,9.24,1.83,12.75,.08,0,.08,.08,.08,.08h.08c.61,.84,1.22,1.6,2.06,2.29,3.82,3.13,9.77,1.53,15.04,.15,.92-.23,2.06-.53,3.05-.76,1.37,6.11,2.06,12.29,1.76,15.34-12.29-8.17-24.12-9.01-33.81-9.69Zm51.29,40.91c-13.43,8.24-25.34,11.53-36.87,14.81-9.54,2.67-18.62,5.27-27.48,10.23-3.43-8.17-8.01-15.57-12.52-22.75-7.25-11.6-14.12-22.59-15.27-35.72-.15-2.44-2.44-4.27-4.81-4.05-2.44,.15-4.27,2.37-4.05,4.81,1.3,15.34,9.08,27.78,16.64,39.77,4.58,7.33,9.24,14.88,12.44,22.97-4.5,3.36-8.93,7.4-13.43,12.67-2.75-5.72-5.65-11.45-8.93-17.55-12.21-22.97-24.88-46.71-19.16-70.98,.61-2.37-.92-4.81-3.28-5.34-2.37-.61-4.81,.92-5.34,3.28-6.49,27.55,7.56,53.96,20,77.24,4.05,7.48,7.79,14.5,10.69,21.29-3.21,4.5-6.41,9.54-9.62,15.42-5.57-16.18-12.98-30.53-19.69-43.43-18.93-36.56-33.89-65.41,1.37-111.36,.69-.92,1.98-1.37,3.28-1.22,5.5,.46,32.44-3.36,36.48,2.9,.46,3.82,.15,6.72-.46,9.39-12.59-6.56-20.23-2.82-22.67-1.14-5.34,3.66-7.17,10.38-4.73,16.79,2.75,7.02,10.99,13.81,26.1,13.81,.61,0,1.37-.15,2.06-.15,4.2,12.36,13.13,14.96,22.59,15.88-.53,3.05-.15,5.8,1.14,8.17,3.89,6.87,13.81,8.24,25.34,9.77,16.26,2.21,28.16,4.66,30.15,14.5Zm39,20.76c-8.4-6.79-18.32-12.59-29.69-17.71,1.07-5.42-2.6-11.45-5.95-14.88,7.4-5.95,14.65-10.69,21.68-13.89,6.87-3.21,12.06-9.31,14.5-17.25,1.98-6.56,4.88-11.53,8.85-15.27,5.19-4.96,8.4-10.84,9.24-17.02,1.07-8.01,4.12-22.13,11.98-26.71,3.43-1.98,7.56-1.98,12.67,0,6.56,2.6,10.61,5.57,11.37,8.32,.92,3.51-3.21,8.62-6.79,13.2-3.13,3.89-6.03,7.56-7.25,11.53-4.66,17.86-11.07,30.45-19.54,38.54-4.58,4.35-7.48,9.92-8.17,15.65-1.37,11.37-5.8,23.28-12.9,35.49Zm-178.91,158.3c-3.21-38.24,13.66-45.95,29.92-53.43,8.62-3.97,16.72-7.71,20.38-15.95,3.59-8.09,4.43-24.81,2.67-49.61,17.25-26.56,33.28-31.14,52.66-36.64,10.84-3.05,22.9-6.41,36.33-14.12,17.71,7.4,31.52,16.49,42.06,27.86,7.56,8.17,19.16,10.53,29,5.8,3.74-1.76,7.4-3.82,10.91-5.8,7.63-4.35,15.57-8.78,18.39-6.03,3.43,3.43,6.26,9.92,3.74,17.71-1.3,4.2-5.8,14.12-19.31,16.79-18.01,3.66-29.54-1.14-33.66-3.36-2.6-1.3-5.42-1.91-8.24-1.76-12.52,.92-21.91-2.37-28.93-10-4.73-5.04-12.14-6.34-17.94-3.13-21.83,11.98-40.3,10.07-56.63-5.95-1.76-1.68-4.58-1.68-6.34,.08-1.68,1.76-1.68,4.58,.08,6.34,19.23,18.93,41.83,21.45,67.17,7.4,2.14-1.22,5.11-.69,7.02,1.37,1.68,1.83,3.59,3.43,5.5,4.88-4.12,15.57-12.14,28.85-24.88,41.22-3.28-.38-6.34-.46-9.08-.46,9.24-8.78,16.18-19.62,20.61-32.36,.84-2.29-.38-4.81-2.75-5.65-2.37-.84-4.88,.38-5.72,2.75-6.72,19.54-19.39,33.58-38.62,42.82-2.21,1.07-3.13,3.74-2.06,5.95,.76,1.6,2.37,2.52,4.05,2.52,.61,0,1.3-.15,1.91-.46,3.43-1.68,6.64-3.59,9.77-5.57,1.98-.31,29.39-5.19,50.3,9.85,14.43,10.46,9.16,27.86,1.98,46.33-1.76,4.35-3.21,8.09-3.82,11.14-1.91,9.46,.99,21.29,8.17,23.97,2.21,.84,7.94,1.83,13.05-7.1,2.14-3.74,10.69-5.8,20.15-4.96,8.93,.76,13.43,3.66,13.81,4.73,0,0-.15,.38-.84,1.14-19.31,20.07-35.49,27.32-48.01,21.45-12.06-5.72-25.26-11.07-35.49-11.91-1.76-.15-2.44-6.26-3.05-10.76-1.6-11.83-4.12-29.61-26.87-31.98-7.79-.84-15.8-.15-23.74,1.91,.38-11.75-5.04-23.74-15.34-33.35-1.83-1.68-4.66-1.6-6.34,.23s-1.6,4.66,.23,6.34c9.31,8.7,13.74,19.46,12.29,29.54-1.45,9.85-8.24,18.09-19.69,23.74-6.26,3.13-13.66,4.73-20.15,6.18-10.91,2.44-23.28,5.19-21.14,16.56,1.6,8.4,11.68,8.85,22.44,9.31,8.85,.38,18.85,.84,22.9,5.34,1.53,1.76,2.21,4.12,2.06,7.33-.31,5.95-1.68,7.25-1.91,7.4-1.14,.84-5.04-.15-8.55-.99-4.96-1.22-11.07-2.75-17.71-1.98-8.4,.99-22.82-2.98-31.83-10.99-5.5-4.96-8.32-10.76-8.32-17.33,0-9.39,2.98-11.07,7.1-13.43,4.81-2.75,11.37-6.49,10.3-20.91Z"/>
        <path class="cls-1" d="M328.57,699.55c.84,1.37,2.37,2.21,3.89,2.21,.76,0,1.53-.23,2.21-.61,18.55-10.69,24.35-22.97,17.33-36.48-1.14-2.21-3.82-3.05-6.03-1.91-2.21,1.14-3.05,3.82-1.91,6.03,3.13,5.95,4.35,14.12-13.89,24.58-2.14,1.22-2.9,3.97-1.6,6.18Z"/>
        <path class="cls-1" d="M387.57,436.22c1.07-2.21,.38-4.73-1.83-5.8l-.53-.31c-2.21-1.07-4.88-.08-5.95,2.14-1.07,2.21-.08,4.88,2.14,5.95,.61,.31,1.37,.46,2.06,.46,1.76,0,3.43-.84,4.12-2.44Z"/>
      </g>
    </g>
  </g>
</svg>