<?xml version="1.0" encoding="UTF-8"?>
<svg id="Layer_2" data-name="Layer 2" xmlns="http://www.w3.org/2000/svg" viewBox="0 0 343 343">
  <defs>
    <style>
      .cls-1 {
        fill: #fff;
      }
    </style>
  </defs>
  <g id="Layer_1-2" data-name="Layer 1">
    <path class="cls-1" d="M171.5,343C76.93,343,0,266.07,0,171.5S76.93,0,171.5,0s171.5,76.93,171.5,171.5-76.93,171.5-171.5,171.5Zm0-340C78.59,3,3,78.59,3,171.5s75.59,168.5,168.5,168.5,168.5-75.59,168.5-168.5S264.41,3,171.5,3Z"/>
    <path class="cls-1" d="M171.5,303.87c-72.99,0-132.37-59.38-132.37-132.37S98.51,39.13,171.5,39.13s132.37,59.38,132.37,132.37-59.38,132.37-132.37,132.37Zm0-261.74c-71.33,0-129.37,58.03-129.37,129.37s58.03,129.37,129.37,129.37,129.37-58.03,129.37-129.37S242.83,42.13,171.5,42.13Z"/>
    <rect class="cls-1" x="158.95" y="279.76" width="24.87" height="3"/>
    <g>
      <path class="cls-1" d="M33.91,134.95c-.05,.17-.14,.28-.26,.34-.12,.06-.26,.07-.41,.02l-14.65-4.5c-.16-.05-.28-.14-.35-.26-.07-.12-.08-.26-.03-.43l1.57-5.09c.47-1.54,1.09-2.71,1.84-3.51,.75-.8,1.65-1.28,2.69-1.43,1.04-.16,2.22-.04,3.54,.35,.68,.19,1.27,.37,1.78,.52,.51,.16,1.09,.34,1.74,.56,1.37,.45,2.44,1.03,3.21,1.74,.77,.7,1.24,1.58,1.4,2.64,.16,1.06,0,2.34-.46,3.85l-1.6,5.2Zm-1.39-2.27l1.05-3.41c.32-1.03,.43-1.9,.33-2.6-.1-.7-.42-1.29-.96-1.76-.54-.47-1.33-.87-2.36-1.2-.44-.17-.83-.3-1.16-.41-.34-.1-.67-.21-1.01-.31s-.73-.21-1.17-.31c-1.46-.42-2.64-.4-3.54,.04-.9,.44-1.59,1.44-2.06,3l-1.01,3.3,11.89,3.66Z"/>
      <path class="cls-1" d="M41.37,113.83c-.08,.15-.18,.25-.31,.29-.13,.04-.27,.03-.41-.04l-13.77-6.72c-.15-.08-.26-.18-.31-.31-.05-.13-.04-.27,.04-.43l2.51-5.15c.78-1.59,1.76-2.67,2.96-3.23,1.2-.56,2.53-.49,3.99,.22,1.08,.53,1.83,1.23,2.25,2.1,.42,.87,.53,1.84,.35,2.9l7.2-.51c.1,0,.19,.02,.26,.05,.11,.06,.19,.15,.23,.28,.04,.13,.03,.26-.02,.37l-.49,1.01c-.12,.24-.27,.38-.45,.43-.18,.05-.36,.09-.52,.11l-6.85,.44-1.8,3.69,5.44,2.66c.14,.07,.23,.17,.28,.31,.05,.14,.03,.28-.04,.44l-.53,1.08Zm-6.95-5.35l1.7-3.48c.51-1.05,.68-1.95,.49-2.69-.19-.74-.72-1.32-1.59-1.74-.86-.42-1.64-.48-2.34-.19-.7,.29-1.31,.97-1.83,2.04l-1.7,3.48,5.27,2.57Z"/>
      <path class="cls-1" d="M51.83,94.65c-.09,.14-.21,.23-.35,.25-.14,.02-.27,0-.4-.09l-12.87-8.37c-.13-.09-.21-.19-.25-.33-.03-.13,0-.27,.09-.42l.68-1.04c.08-.13,.2-.21,.34-.24,.14-.03,.28,0,.41,.08l12.87,8.37c.13,.09,.21,.2,.24,.34,.03,.14,0,.28-.08,.41l-.68,1.04Z"/>
      <path class="cls-1" d="M62.04,80.73c-.15,.18-.31,.29-.48,.32-.17,.03-.35,.02-.55-.04l-14.92-5.7c-.09-.04-.17-.08-.23-.13-.1-.08-.15-.19-.16-.32s.02-.25,.1-.34l.79-.93c.12-.14,.25-.22,.4-.23,.14-.01,.25,0,.32,.04l13.15,5.04-7.23-12.08c-.04-.07-.07-.18-.09-.32-.02-.14,.03-.28,.16-.42l.78-.93c.08-.1,.19-.15,.33-.17,.14-.02,.25,.01,.35,.09,.06,.05,.12,.12,.17,.2l8.17,13.73c.1,.17,.15,.34,.15,.51,0,.17-.08,.35-.23,.53l-.98,1.17Z"/>
      <path class="cls-1" d="M73.83,68.08c-.13,.11-.26,.16-.4,.15-.14-.01-.26-.08-.36-.2l-10.16-11.47c-.11-.13-.17-.26-.17-.4,0-.14,.07-.26,.2-.38l7.26-6.43c.13-.11,.26-.16,.4-.15,.14,.01,.26,.09,.38,.21l.59,.67c.11,.13,.17,.26,.16,.39,0,.13-.08,.26-.21,.37l-5.97,5.29,3.41,3.85,5.59-4.95c.13-.11,.26-.16,.4-.15,.14,.01,.26,.09,.38,.21l.58,.65c.1,.12,.15,.25,.15,.38,0,.14-.07,.26-.2,.38l-5.59,4.95,3.53,3.99,6.12-5.41c.13-.11,.26-.17,.39-.16,.13,0,.26,.08,.37,.21l.61,.69c.1,.12,.15,.24,.15,.38,0,.14-.07,.26-.2,.38l-7.4,6.55Z"/>
      <path class="cls-1" d="M89.67,55.1c-.14,.09-.28,.12-.42,.09-.13-.03-.24-.12-.33-.25l-8.32-12.87c-.09-.14-.13-.28-.1-.42,.02-.14,.11-.25,.25-.34l.91-.59c.16-.1,.3-.14,.43-.12,.13,.02,.21,.05,.25,.08l13.04,5.82-6.37-9.85c-.09-.14-.13-.29-.1-.42,.02-.14,.11-.25,.25-.34l.95-.61c.14-.09,.29-.12,.43-.09,.14,.03,.26,.12,.35,.26l8.31,12.85c.09,.13,.11,.27,.09,.42-.03,.15-.1,.26-.24,.35l-.95,.61c-.14,.09-.28,.12-.4,.09-.12-.03-.21-.05-.25-.06l-12.96-5.74,6.32,9.78c.08,.13,.11,.27,.08,.41-.03,.14-.12,.26-.26,.35l-.95,.61Z"/>
      <path class="cls-1" d="M125.72,37.14c-1.36,.46-2.58,.6-3.65,.4s-1.99-.67-2.75-1.42c-.77-.75-1.38-1.71-1.83-2.9-.22-.6-.45-1.25-.69-1.95-.24-.7-.46-1.36-.66-2.01-.36-1.21-.47-2.35-.32-3.41,.15-1.06,.59-1.99,1.31-2.8,.72-.81,1.77-1.45,3.13-1.91,1.02-.35,1.97-.51,2.83-.49,.87,.02,1.64,.18,2.31,.48,.67,.3,1.24,.7,1.71,1.19,.47,.49,.82,1.05,1.06,1.66,.06,.13,.06,.25,0,.37-.07,.12-.17,.21-.3,.25l-1.22,.42c-.13,.05-.26,.05-.38,0-.12-.04-.24-.15-.35-.33-.65-1.07-1.39-1.7-2.22-1.9-.83-.19-1.77-.12-2.81,.24-1.19,.4-2.01,1.06-2.48,1.97-.47,.91-.48,2.12-.03,3.62,.37,1.23,.79,2.47,1.27,3.73,.56,1.46,1.31,2.41,2.23,2.85,.93,.44,1.98,.45,3.17,.05,1.04-.35,1.83-.86,2.37-1.53,.54-.66,.74-1.62,.6-2.86-.02-.21,0-.36,.07-.47,.07-.11,.17-.18,.31-.23l1.22-.42c.13-.05,.26-.04,.39,.02,.13,.06,.21,.15,.24,.29,.18,.63,.24,1.29,.17,1.96-.07,.68-.28,1.34-.62,1.99-.35,.65-.86,1.24-1.54,1.79-.67,.54-1.52,.99-2.54,1.34Z"/>
      <path class="cls-1" d="M141.6,32.47c-.17,.03-.31,0-.42-.08-.11-.08-.18-.2-.21-.36l-2.77-15.1c-.03-.15,0-.29,.07-.41,.07-.12,.2-.19,.36-.22l1.22-.22c.15-.03,.29,0,.4,.08,.11,.08,.18,.2,.21,.36l2.5,13.62,7.69-1.41c.17-.03,.31,0,.42,.08,.11,.08,.18,.21,.21,.38l.17,.92c.03,.15,0,.29-.07,.41s-.2,.19-.36,.22l-9.42,1.73Z"/>
      <path class="cls-1" d="M159.27,29.75c-.13,0-.24-.04-.33-.13s-.15-.2-.15-.32c0-.08,0-.16,.01-.26l5.27-15.38c.06-.16,.14-.29,.24-.38,.11-.1,.27-.15,.49-.16l1.59-.06c.2,0,.37,.03,.49,.12,.12,.09,.21,.21,.28,.37l6.34,14.97c.03,.09,.05,.18,.06,.26,0,.13-.04,.24-.13,.33-.09,.1-.2,.15-.32,.15l-1.2,.04c-.19,0-.33-.04-.42-.13-.09-.09-.15-.17-.19-.25l-1.41-3.28-7.69,.28-1.17,3.38c-.01,.08-.06,.17-.16,.26-.09,.1-.23,.15-.42,.16l-1.2,.04Zm3.55-5.88l6.33-.23-3.46-8.21-2.87,8.44Z"/>
      <path class="cls-1" d="M185.66,30.11c-.16-.02-.28-.08-.37-.19-.09-.11-.13-.25-.11-.4l.57-5.51-4.63-10.11s-.02-.1-.03-.14c-.01-.05-.01-.1,0-.17,.01-.12,.07-.23,.17-.31,.1-.08,.22-.12,.34-.11l1.21,.13c.14,.01,.26,.06,.36,.14s.17,.19,.2,.32l3.76,8.04,5.34-7.09c.09-.12,.19-.2,.3-.26,.11-.06,.23-.08,.37-.07l1.19,.12c.14,.01,.25,.07,.34,.18,.08,.1,.12,.22,.11,.34,0,.06-.02,.12-.04,.16-.02,.05-.05,.09-.08,.13l-6.59,8.94-.57,5.51c-.02,.16-.08,.28-.19,.37-.11,.09-.25,.13-.42,.11l-1.21-.13Z"/>
      <path class="cls-1" d="M218.98,37.83c-1.36-.48-2.39-1.13-3.11-1.95-.71-.82-1.14-1.76-1.28-2.82-.14-1.06-.02-2.2,.36-3.41,.2-.61,.42-1.26,.67-1.95,.25-.69,.49-1.35,.73-1.98,.47-1.18,1.09-2.14,1.87-2.87,.78-.74,1.7-1.2,2.77-1.38,1.07-.18,2.28-.04,3.64,.45,1.02,.36,1.86,.82,2.53,1.37,.67,.55,1.17,1.15,1.51,1.81,.34,.65,.54,1.32,.6,1.99,.06,.68,0,1.33-.2,1.96-.03,.14-.11,.23-.24,.29-.13,.05-.26,.06-.39,.01l-1.22-.43c-.13-.05-.23-.12-.3-.23-.07-.11-.09-.27-.07-.47,.16-1.24-.03-2.19-.56-2.87-.53-.67-1.32-1.19-2.35-1.56-1.18-.42-2.24-.42-3.17,0-.93,.43-1.69,1.36-2.27,2.82-.47,1.19-.91,2.43-1.32,3.72-.46,1.5-.47,2.7-.01,3.62,.45,.92,1.27,1.58,2.45,2,1.03,.37,1.97,.46,2.8,.27,.84-.18,1.59-.81,2.24-1.87,.11-.18,.23-.28,.35-.32,.12-.04,.25-.04,.38,.01l1.22,.43c.13,.05,.23,.13,.3,.25,.06,.12,.07,.25,0,.38-.25,.61-.61,1.16-1.08,1.65-.47,.49-1.05,.88-1.72,1.17-.68,.29-1.45,.44-2.31,.45-.87,0-1.81-.17-2.83-.53Z"/>
      <path class="cls-1" d="M238.88,46.7c-1.17-.63-2.06-1.38-2.68-2.24-.62-.86-.93-1.84-.92-2.93,0-1.09,.33-2.29,.97-3.6,.31-.61,.62-1.2,.92-1.75s.62-1.13,.97-1.73c.74-1.24,1.58-2.15,2.51-2.74,.93-.59,1.94-.86,3.01-.82,1.07,.04,2.17,.36,3.28,.96,1.13,.61,2,1.36,2.62,2.23,.62,.88,.94,1.87,.96,2.98,.02,1.11-.29,2.3-.93,3.59-.3,.62-.6,1.21-.9,1.77s-.63,1.13-.99,1.72c-.74,1.26-1.56,2.18-2.48,2.78-.92,.6-1.91,.87-2.97,.82-1.06-.05-2.18-.39-3.36-1.04Zm.95-1.75c1.06,.57,2.09,.73,3.1,.46,1.01-.27,1.93-1.1,2.75-2.49,.36-.6,.68-1.15,.94-1.64,.26-.49,.55-1.04,.85-1.66,.49-.96,.73-1.83,.73-2.6,0-.77-.2-1.43-.58-2s-.93-1.04-1.63-1.42c-.67-.37-1.35-.56-2.04-.57-.69-.02-1.35,.18-1.99,.6-.64,.42-1.24,1.09-1.8,2.01-.34,.6-.65,1.14-.91,1.63-.26,.49-.56,1.05-.88,1.67-.71,1.45-.9,2.67-.57,3.67,.33,1,1.01,1.78,2.04,2.34Z"/>
      <path class="cls-1" d="M253.26,55.16c-.12-.1-.19-.22-.21-.36-.02-.14,.02-.28,.12-.4l9.41-12.09c.11-.14,.23-.21,.37-.23,.14-.02,.28,.02,.4,.12l.93,.72c.15,.12,.23,.24,.25,.37,.02,.13,.01,.23-.01,.29l-1.9,10.54,9.77-4.41c.06-.03,.16-.06,.28-.08,.13-.02,.26,.03,.41,.14l.91,.71c.14,.11,.21,.23,.23,.37,.02,.14-.03,.28-.13,.42l-9.41,12.09c-.1,.12-.22,.19-.36,.21-.14,.02-.28-.03-.42-.13l-.91-.71c-.12-.1-.19-.22-.21-.36-.02-.14,.02-.28,.12-.4l7.09-9.11-7.79,3.63c-.15,.08-.29,.12-.45,.11-.15,0-.3-.07-.45-.19l-.57-.45c-.16-.12-.26-.26-.3-.4-.04-.14-.04-.3,0-.47l1.61-8.45-7.09,9.11c-.1,.12-.22,.19-.36,.21-.14,.02-.28-.02-.4-.12l-.91-.71Z"/>
      <path class="cls-1" d="M272.18,71.23c-.12-.13-.17-.26-.16-.4,.01-.14,.07-.26,.19-.37l11.23-10.43c.13-.12,.26-.18,.4-.18,.14,0,.27,.06,.38,.19l4.06,4.37c.79,.85,1.33,1.71,1.64,2.59,.3,.88,.34,1.75,.12,2.6-.23,.85-.75,1.65-1.56,2.41-.81,.76-1.65,1.21-2.51,1.37-.86,.16-1.72,.05-2.57-.32-.86-.37-1.68-.98-2.46-1.83l-2.83-3.04-4.3,3.99c-.11,.11-.24,.16-.39,.15-.14,0-.27-.07-.39-.2l-.85-.91Zm7.35-4.39l2.76,2.98c.79,.85,1.57,1.31,2.34,1.38,.77,.07,1.52-.23,2.24-.9,.71-.66,1.07-1.38,1.08-2.15,0-.77-.39-1.6-1.2-2.47l-2.76-2.98-4.46,4.14Z"/>
      <path class="cls-1" d="M284.59,85.34c-.07-.1-.09-.22-.07-.35s.09-.23,.19-.3c.06-.04,.14-.09,.23-.13l15.81-3.81c.16-.04,.32-.04,.46,0,.14,.04,.27,.15,.4,.33l.9,1.31c.12,.17,.17,.33,.16,.48-.01,.15-.06,.3-.16,.44l-9.22,13.38c-.06,.08-.12,.14-.19,.19-.1,.07-.22,.09-.35,.07-.13-.02-.23-.09-.3-.19l-.68-.99c-.11-.15-.15-.29-.12-.42,.03-.12,.07-.22,.11-.29l2.01-2.95-4.36-6.34-3.48,.83c-.07,.03-.18,.04-.31,.01-.13-.02-.25-.11-.36-.27l-.68-.99Zm6.87-.17l3.59,5.22,5.07-7.33-8.66,2.11Z"/>
      <path class="cls-1" d="M297.25,105.27c-.07-.16-.09-.3-.03-.43,.05-.13,.15-.23,.29-.29l13.83-6.61c.16-.07,.3-.09,.43-.05,.13,.04,.24,.14,.31,.29l.47,.97c.08,.17,.1,.31,.07,.44-.04,.12-.07,.2-.11,.23l-7.44,12.19,10.59-5.06c.16-.07,.3-.09,.43-.05,.13,.04,.24,.14,.31,.29l.49,1.02c.07,.16,.09,.3,.04,.44-.05,.14-.15,.24-.3,.31l-13.81,6.6c-.14,.07-.28,.08-.43,.03-.14-.04-.25-.14-.32-.28l-.49-1.02c-.07-.16-.09-.29-.04-.41s.08-.2,.09-.24l7.34-12.12-10.5,5.02c-.14,.07-.28,.08-.42,.03-.14-.05-.24-.15-.31-.3l-.49-1.02Z"/>
      <path class="cls-1" d="M307.36,130.16c-.04-.15-.03-.29,.04-.41,.07-.13,.18-.21,.33-.26l5.31-1.59,7.56-8.16s.08-.06,.12-.09c.04-.03,.09-.05,.15-.07,.12-.04,.24-.02,.35,.04,.12,.06,.19,.15,.23,.27l.35,1.17c.04,.14,.04,.27,0,.39s-.11,.23-.21,.31l-5.98,6.56,8.6,2.21c.14,.04,.26,.1,.36,.17,.1,.08,.17,.18,.21,.32l.34,1.15c.04,.13,.03,.26-.03,.38s-.15,.19-.27,.23c-.06,.02-.11,.03-.16,.02-.05,0-.1-.01-.16-.03l-10.79-2.66-5.31,1.59c-.15,.04-.29,.03-.41-.04-.13-.07-.21-.19-.26-.35l-.35-1.17Z"/>
    </g>
    <g>
      <path class="cls-1" d="M13.97,191.11c-.03-.17,0-.31,.09-.42,.09-.11,.21-.17,.36-.2l15.14-2.35c.17-.03,.31,0,.43,.08,.11,.08,.19,.2,.21,.37l.91,5.89c.18,1.14,.15,2.17-.09,3.07-.24,.9-.69,1.64-1.35,2.22-.66,.58-1.54,.95-2.64,1.12-1.1,.17-2.05,.08-2.84-.27-.8-.35-1.45-.92-1.95-1.7-.5-.79-.84-1.75-1.02-2.89l-.64-4.11-5.8,.9c-.15,.02-.29,0-.41-.09-.12-.08-.19-.21-.21-.38l-.19-1.23Zm8.55,.48l.62,4.01c.18,1.14,.57,1.96,1.16,2.46,.6,.49,1.39,.66,2.36,.51,.96-.15,1.66-.54,2.1-1.18,.44-.64,.57-1.55,.39-2.72l-.62-4.01-6.01,.93Z"/>
      <path class="cls-1" d="M18.66,214.47c-.05-.16-.04-.31,.03-.43,.07-.12,.18-.2,.33-.25l14.61-4.62c.16-.05,.31-.05,.43,.01,.13,.06,.21,.17,.27,.33l1.73,5.46c.53,1.69,.56,3.15,.08,4.38-.48,1.23-1.49,2.1-3.05,2.59-1.15,.36-2.18,.37-3.08,.03-.91-.35-1.66-.97-2.25-1.86l-4.86,5.33c-.08,.07-.15,.12-.22,.15-.12,.04-.24,.02-.36-.05-.12-.07-.2-.16-.24-.28l-.34-1.07c-.08-.25-.07-.46,.02-.62,.1-.16,.2-.31,.3-.44l4.66-5.04-1.24-3.92-5.77,1.83c-.15,.05-.29,.04-.42-.03-.13-.07-.22-.18-.27-.35l-.36-1.14Zm8.72-.91l1.17,3.69c.35,1.12,.85,1.88,1.5,2.28,.64,.4,1.43,.46,2.35,.17,.91-.29,1.52-.78,1.82-1.48,.3-.7,.28-1.61-.08-2.74l-1.17-3.69-5.59,1.77Z"/>
      <path class="cls-1" d="M26.94,237.08c-.08-.15-.09-.3-.04-.43,.05-.13,.15-.23,.29-.3l13.76-6.74c.15-.08,.3-.09,.43-.05,.13,.04,.24,.14,.31,.29l4.26,8.7c.08,.15,.09,.3,.04,.43-.05,.13-.15,.23-.31,.31l-.8,.39c-.15,.08-.29,.09-.42,.05-.13-.04-.23-.14-.3-.3l-3.51-7.17-4.62,2.26,3.28,6.7c.08,.15,.09,.3,.04,.43-.05,.13-.15,.23-.31,.31l-.78,.38c-.14,.07-.28,.08-.41,.04-.13-.04-.24-.14-.31-.29l-3.28-6.7-4.78,2.34,3.59,7.33c.08,.15,.09,.29,.05,.42-.04,.13-.14,.23-.3,.3l-.82,.4c-.14,.07-.28,.08-.41,.04-.13-.04-.24-.14-.31-.29l-4.35-8.87Z"/>
      <path class="cls-1" d="M37.91,257.33c-.09-.13-.12-.26-.1-.4,.02-.14,.1-.26,.23-.35l12.52-8.84c.14-.1,.28-.14,.42-.11,.14,.02,.26,.1,.35,.23l.68,.96c.11,.15,.15,.3,.13,.43s-.06,.22-.1,.27l-4.88,9.53,10.63-1.39c.07-.01,.17,0,.29,0s.24,.1,.35,.25l.66,.94c.1,.14,.14,.28,.11,.42-.02,.14-.11,.26-.25,.36l-12.52,8.84c-.13,.09-.26,.12-.4,.1-.14-.02-.26-.11-.36-.25l-.66-.94c-.09-.13-.12-.26-.1-.4,.02-.14,.1-.26,.23-.35l9.43-6.66-8.51,1.21c-.16,.04-.32,.03-.46-.02-.14-.05-.27-.16-.38-.31l-.42-.59c-.12-.17-.17-.32-.17-.47,0-.15,.04-.3,.13-.45l3.99-7.62-9.43,6.66c-.13,.09-.26,.12-.4,.1-.14-.02-.26-.1-.35-.23l-.66-.94Z"/>
      <path class="cls-1" d="M54.66,278.77c-.12-.13-.17-.26-.16-.4,.01-.14,.07-.26,.19-.37l11.26-10.43c.11-.11,.24-.16,.38-.16,.14,0,.27,.06,.38,.19l.85,.91c.11,.11,.16,.24,.15,.39,0,.14-.07,.27-.18,.38l-11.26,10.43c-.11,.11-.24,.16-.39,.15-.14,0-.27-.07-.38-.18l-.85-.91Z"/>
      <path class="cls-1" d="M69.41,293.19c-1.01-.84-1.72-1.75-2.15-2.72-.42-.97-.52-1.98-.29-3.05,.23-1.06,.83-2.18,1.81-3.34l6.12-7.3c.11-.13,.23-.21,.37-.22,.14-.02,.27,.03,.4,.14l.92,.77c.13,.11,.2,.24,.22,.38,.01,.14-.04,.28-.15,.41l-6.15,7.34c-.99,1.18-1.44,2.28-1.36,3.3,.08,1.03,.6,1.94,1.56,2.75,.95,.79,1.94,1.14,2.97,1.05,1.03-.1,2.04-.73,3.02-1.91l6.15-7.34c.11-.13,.24-.2,.38-.22,.14-.01,.27,.03,.39,.13l.94,.78c.12,.1,.19,.22,.2,.37,.01,.14-.04,.28-.15,.41l-6.12,7.3c-.98,1.16-1.97,1.95-2.98,2.36-1.01,.41-2.02,.49-3.04,.25-1.02-.24-2.04-.79-3.06-1.65Z"/>
      <path class="cls-1" d="M85.29,304.8c-.14-.08-.22-.19-.26-.33-.04-.14-.01-.28,.06-.41l7.77-13.21c.09-.15,.2-.24,.34-.28,.14-.04,.28-.01,.41,.06l1.01,.6c.16,.1,.26,.21,.29,.34,.03,.13,.04,.22,.02,.29l-.52,10.7,9.12-5.64c.06-.04,.15-.08,.27-.11,.12-.04,.26,0,.43,.09l.99,.58c.15,.09,.24,.2,.28,.34,.04,.14,.01,.28-.08,.43l-7.77,13.21c-.08,.14-.19,.22-.33,.26-.14,.04-.28,.01-.43-.08l-.99-.58c-.13-.08-.22-.19-.26-.33-.04-.14-.01-.28,.06-.41l5.86-9.95-7.26,4.61c-.13,.1-.28,.16-.43,.17-.15,.01-.31-.03-.47-.13l-.63-.37c-.18-.1-.29-.22-.35-.36-.06-.13-.08-.29-.07-.46l.5-8.58-5.86,9.95c-.08,.13-.19,.22-.33,.26-.14,.04-.28,.01-.41-.06l-.99-.58Z"/>
      <path class="cls-1" d="M127.17,324.02c-1.31-.38-2.35-.9-3.12-1.55-.77-.65-1.3-1.37-1.59-2.15-.29-.78-.34-1.53-.16-2.26,.03-.12,.11-.21,.24-.28,.13-.07,.26-.08,.39-.05l1.15,.33c.18,.05,.3,.14,.37,.25s.09,.24,.09,.37c-.03,.38,.05,.79,.24,1.23s.52,.85,.99,1.24c.47,.39,1.12,.7,1.96,.95,1.29,.37,2.31,.42,3.05,.14s1.22-.81,1.44-1.57c.15-.53,.11-1-.12-1.41-.23-.42-.64-.85-1.23-1.3-.59-.45-1.36-.97-2.33-1.58-1.01-.63-1.81-1.24-2.43-1.83-.61-.58-1.02-1.21-1.21-1.86-.19-.66-.16-1.42,.08-2.27,.23-.81,.66-1.47,1.28-1.99,.62-.51,1.39-.84,2.32-.98,.93-.14,1.98-.04,3.15,.3,.93,.27,1.71,.63,2.34,1.08,.63,.45,1.11,.95,1.46,1.5,.35,.55,.57,1.09,.67,1.64,.1,.54,.1,1.04-.02,1.5-.03,.11-.1,.2-.2,.27-.1,.08-.24,.09-.4,.04l-1.19-.35c-.11-.03-.21-.09-.3-.18-.1-.09-.15-.23-.16-.41,.09-.64-.11-1.26-.59-1.86-.48-.59-1.2-1.03-2.16-1.31-.98-.28-1.82-.32-2.54-.12-.72,.2-1.19,.7-1.42,1.49-.15,.51-.13,.98,.06,1.4,.19,.42,.55,.85,1.09,1.28,.54,.43,1.27,.94,2.18,1.51,1.11,.68,1.99,1.31,2.65,1.9s1.09,1.21,1.3,1.87c.21,.66,.19,1.41-.06,2.27-.27,.95-.76,1.68-1.45,2.21-.69,.53-1.53,.84-2.53,.93-1,.09-2.1-.03-3.32-.39Z"/>
      <path class="cls-1" d="M145.39,328.01c-.17-.02-.3-.09-.38-.2-.08-.11-.11-.25-.09-.4l1.94-15.2c.02-.17,.09-.3,.19-.39,.11-.09,.24-.12,.42-.1l1.19,.15c.17,.02,.3,.09,.39,.2,.09,.11,.12,.26,.1,.43l-.82,6.43,8.01,1.02,.82-6.43c.02-.17,.09-.3,.2-.39,.11-.09,.25-.12,.4-.1l1.19,.15c.17,.02,.3,.09,.39,.2,.09,.11,.12,.26,.1,.43l-1.94,15.2c-.02,.16-.09,.28-.2,.36-.11,.09-.26,.12-.43,.1l-1.19-.15c-.16-.02-.28-.09-.36-.2-.09-.11-.12-.25-.1-.4l.85-6.68-8.01-1.02-.85,6.68c-.02,.16-.09,.28-.2,.36-.11,.09-.26,.12-.43,.1l-1.19-.15Z"/>
      <path class="cls-1" d="M176.19,330.19c-1.33,.04-2.48-.16-3.45-.59-.97-.43-1.72-1.12-2.27-2.07-.54-.95-.87-2.15-.98-3.6-.04-.69-.06-1.35-.08-1.98-.02-.63-.03-1.29-.04-1.98,.02-1.44,.28-2.65,.8-3.63s1.24-1.72,2.19-2.23c.95-.51,2.05-.78,3.32-.82,1.28-.04,2.41,.17,3.39,.61,.98,.45,1.75,1.15,2.33,2.09,.58,.95,.91,2.14,1,3.57,.05,.69,.09,1.35,.11,1.98,.02,.63,.02,1.29,.01,1.98,0,1.46-.25,2.67-.75,3.65-.5,.98-1.21,1.71-2.15,2.2-.94,.49-2.08,.75-3.43,.79Zm-.06-1.99c1.2-.04,2.17-.42,2.91-1.17,.74-.74,1.11-1.92,1.13-3.53,.01-.7,0-1.33,0-1.89-.02-.55-.05-1.18-.1-1.86-.06-1.08-.29-1.95-.68-2.61-.39-.66-.89-1.14-1.51-1.43-.62-.29-1.33-.43-2.13-.41-.77,.02-1.45,.2-2.05,.53s-1.07,.84-1.42,1.52c-.35,.68-.53,1.57-.54,2.65,0,.69,.02,1.31,.03,1.87,.02,.56,.04,1.18,.08,1.89,.11,1.61,.56,2.76,1.35,3.46,.79,.7,1.77,1.03,2.94,.99Z"/>
      <path class="cls-1" d="M200.74,327.55c-1.31,.24-2.47,.23-3.5-.05-1.02-.28-1.88-.84-2.56-1.69-.68-.85-1.19-1.99-1.52-3.4-.14-.67-.27-1.32-.39-1.94-.12-.62-.23-1.27-.34-1.95-.2-1.43-.13-2.66,.23-3.71,.35-1.04,.96-1.89,1.82-2.54,.86-.65,1.91-1.09,3.16-1.32,1.26-.24,2.41-.21,3.44,.08,1.03,.29,1.91,.86,2.62,1.71,.72,.85,1.23,1.97,1.54,3.38,.16,.67,.29,1.32,.41,1.94,.12,.62,.22,1.28,.32,1.96,.22,1.44,.16,2.68-.18,3.72-.34,1.04-.93,1.88-1.79,2.51-.85,.63-1.94,1.07-3.26,1.32Zm-.37-1.96c1.18-.22,2.08-.76,2.7-1.6,.61-.85,.8-2.07,.57-3.66-.1-.7-.2-1.32-.3-1.87-.1-.55-.23-1.15-.39-1.83-.23-1.06-.59-1.88-1.07-2.47s-1.06-.99-1.71-1.18c-.66-.2-1.38-.22-2.16-.07-.75,.14-1.4,.42-1.94,.84s-.93,.99-1.17,1.72c-.24,.73-.28,1.63-.13,2.7,.11,.68,.22,1.29,.32,1.84,.1,.55,.23,1.16,.37,1.85,.36,1.57,.98,2.64,1.87,3.21,.89,.57,1.91,.74,3.06,.53Z"/>
      <path class="cls-1" d="M222.43,321.62c-.15,.05-.29,.05-.42-.02-.13-.06-.22-.17-.27-.32l-4.49-13.05-4.26,1.47c-.15,.05-.29,.05-.42-.02-.13-.06-.22-.17-.27-.32l-.32-.93c-.06-.16-.05-.31,.01-.44,.06-.13,.17-.22,.32-.27l10.7-3.68c.16-.06,.31-.05,.44,.01s.22,.18,.28,.34l.32,.93c.05,.15,.04,.29-.02,.42-.06,.13-.18,.22-.34,.28l-4.24,1.46,4.49,13.05c.05,.15,.04,.29-.02,.42-.06,.13-.18,.22-.34,.28l-1.15,.4Z"/>
      <path class="cls-1" d="M239.54,314.66c-.16,.07-.3,.09-.43,.04-.13-.05-.23-.15-.29-.29l-6.66-13.83c-.07-.14-.08-.28-.04-.41s.14-.24,.29-.31l1.12-.54c.14-.07,.28-.08,.42-.03,.14,.05,.24,.14,.31,.28l6.66,13.83c.07,.14,.08,.28,.03,.42-.05,.14-.14,.24-.28,.31l-1.12,.54Z"/>
      <path class="cls-1" d="M252.75,307.68c-.14,.09-.28,.12-.42,.09-.13-.03-.24-.12-.33-.25l-8.33-12.86c-.09-.14-.13-.28-.1-.42s.11-.25,.25-.35l.91-.59c.16-.1,.3-.14,.42-.12,.13,.02,.21,.05,.25,.08l13.05,5.81-6.38-9.85c-.09-.14-.13-.28-.1-.42,.02-.14,.11-.25,.25-.35l.95-.61c.14-.09,.29-.12,.43-.1,.14,.03,.26,.12,.35,.26l8.32,12.84c.09,.13,.11,.27,.09,.42-.03,.15-.1,.26-.24,.35l-.95,.61c-.14,.09-.28,.12-.4,.09-.12-.03-.21-.05-.25-.06l-12.96-5.73,6.33,9.77c.08,.13,.11,.27,.08,.41-.03,.14-.12,.26-.26,.35l-.95,.61Z"/>
      <path class="cls-1" d="M277.38,289.68c-1.02,.92-2.07,1.51-3.13,1.77-1.06,.26-2.09,.21-3.1-.15-1.01-.36-1.95-.99-2.85-1.89-.47-.5-.97-1.04-1.48-1.62-.52-.58-1.01-1.13-1.46-1.67-.8-.98-1.32-1.99-1.56-3.02-.24-1.03-.17-2.06,.21-3.09,.38-1.03,1.07-2,2.09-2.91,.83-.74,1.65-1.27,2.46-1.58,.81-.31,1.58-.46,2.29-.46,.71,0,1.33,.11,1.87,.33s.94,.46,1.21,.74c.11,.09,.15,.21,.14,.33-.01,.13-.08,.24-.19,.35l-1.03,.92c-.12,.1-.22,.16-.32,.16-.09,0-.22-.04-.37-.11-.38-.21-.81-.35-1.31-.43-.5-.08-1.04-.03-1.61,.14s-1.18,.53-1.8,1.1c-.92,.83-1.44,1.74-1.55,2.75-.12,1.01,.32,2.11,1.31,3.3,.9,1.07,1.83,2.1,2.79,3.11,1.09,1.12,2.15,1.68,3.18,1.68,1.02,0,2-.42,2.92-1.25,.62-.55,1.07-1.16,1.34-1.82,.28-.66,.34-1.35,.2-2.08-.15-.73-.55-1.46-1.21-2.19l-.66-.73-2.62,2.35c-.12,.1-.25,.15-.39,.15-.14,0-.27-.08-.39-.2l-.5-.56c-.11-.13-.17-.26-.16-.41s.07-.27,.19-.37l3.95-3.54c.13-.11,.26-.17,.4-.15,.14,.01,.26,.08,.38,.21l1.5,1.68c.86,.95,1.41,1.96,1.66,3.02s.17,2.12-.22,3.18c-.4,1.06-1.11,2.05-2.15,2.98Z"/>
      <path class="cls-1" d="M299.6,264.89c-.1,.14-.21,.22-.35,.24-.14,.02-.27-.01-.4-.1l-12.69-8.6c-.14-.1-.23-.21-.26-.35-.03-.13,0-.27,.1-.42l2.99-4.41c.9-1.33,1.83-2.27,2.79-2.82,.95-.54,1.95-.74,2.99-.58,1.04,.16,2.13,.61,3.28,1.37,.59,.38,1.11,.72,1.55,1.02,.44,.3,.94,.65,1.5,1.05,1.17,.83,2.03,1.7,2.56,2.6,.53,.9,.72,1.88,.56,2.93-.16,1.06-.68,2.24-1.57,3.55l-3.05,4.51Zm-.66-2.58l2-2.95c.61-.89,.97-1.69,1.08-2.39,.11-.7-.02-1.35-.4-1.96-.38-.61-1.01-1.22-1.9-1.84-.37-.29-.7-.53-.99-.73-.29-.2-.58-.4-.87-.59-.29-.2-.63-.41-1.03-.64-1.27-.83-2.41-1.16-3.39-1-.99,.16-1.94,.92-2.85,2.26l-1.94,2.86,10.3,6.98Z"/>
      <path class="cls-1" d="M311.83,245.38c-.05,.11-.14,.19-.27,.24s-.24,.04-.36-.01c-.07-.03-.15-.08-.22-.13l-11.25-11.75c-.11-.12-.19-.25-.23-.39-.04-.14-.01-.31,.08-.51l.68-1.44c.09-.18,.2-.31,.33-.38s.29-.09,.45-.08l16.21,1.24c.1,.01,.18,.03,.25,.07,.11,.05,.19,.14,.24,.27,.04,.12,.04,.24-.01,.36l-.51,1.08c-.08,.17-.18,.27-.3,.31-.12,.04-.22,.05-.31,.05l-3.56-.26-3.29,6.96,2.46,2.59c.06,.05,.12,.13,.16,.26,.04,.12,.03,.27-.05,.44l-.51,1.08Zm-3.6-5.85l2.71-5.73-8.89-.69,6.18,6.42Z"/>
      <path class="cls-1" d="M322.72,218.79c-.05,.15-.13,.26-.26,.33-.13,.07-.27,.08-.42,.03l-5.29-1.63-10.82,2.59s-.1,0-.15,0c-.05,0-.1,0-.16-.03-.12-.04-.21-.11-.27-.23-.06-.12-.07-.24-.04-.36l.36-1.17c.04-.13,.11-.24,.21-.33,.1-.08,.22-.13,.35-.14l8.61-2.14-5.92-6.61c-.1-.11-.16-.23-.2-.34-.04-.12-.04-.24,0-.38l.35-1.14c.04-.13,.12-.23,.24-.29,.12-.06,.24-.07,.36-.04,.06,.02,.11,.04,.15,.07,.04,.03,.08,.06,.11,.11l7.49,8.2,5.29,1.63c.15,.05,.26,.13,.33,.26,.07,.13,.08,.27,.02,.44l-.36,1.17Z"/>
      <path class="cls-1" d="M328.29,195.77c-.21,1.35-.59,2.44-1.14,3.29s-1.19,1.47-1.92,1.85c-.73,.39-1.47,.54-2.22,.45-.12-.02-.23-.09-.31-.2-.08-.12-.12-.24-.1-.38l.18-1.18c.03-.19,.1-.32,.2-.4,.11-.08,.22-.12,.35-.14,.38-.02,.78-.15,1.19-.4,.41-.25,.78-.62,1.1-1.14,.32-.51,.55-1.2,.69-2.07,.2-1.33,.12-2.34-.26-3.04-.38-.7-.96-1.11-1.75-1.23-.54-.08-1,.02-1.39,.3-.38,.28-.76,.74-1.13,1.38-.37,.64-.79,1.48-1.26,2.51-.5,1.08-1,1.96-1.5,2.64-.5,.68-1.06,1.16-1.69,1.44-.63,.28-1.38,.35-2.26,.21-.84-.13-1.55-.47-2.14-1.02-.59-.55-1.01-1.27-1.27-2.18-.26-.9-.29-1.96-.11-3.16,.15-.96,.4-1.78,.77-2.46,.37-.68,.8-1.23,1.3-1.64,.5-.41,1.01-.71,1.54-.88,.53-.17,1.02-.23,1.49-.18,.11,.02,.21,.07,.3,.16,.09,.09,.12,.22,.09,.39l-.19,1.23c-.02,.11-.06,.22-.14,.32-.08,.11-.21,.18-.39,.21-.65,0-1.24,.27-1.76,.82-.53,.55-.87,1.32-1.02,2.31-.15,1.01-.09,1.85,.2,2.54,.29,.69,.85,1.09,1.67,1.22,.53,.08,.99,0,1.38-.24,.39-.24,.77-.66,1.13-1.25,.36-.59,.77-1.38,1.22-2.35,.53-1.18,1.05-2.14,1.55-2.87,.5-.73,1.06-1.24,1.68-1.53,.62-.29,1.38-.37,2.26-.24,.97,.15,1.77,.53,2.38,1.15,.61,.62,1.03,1.41,1.25,2.39,.22,.98,.24,2.09,.04,3.34Z"/>
    </g>
    <g>
      <path class="cls-1" d="M94.63,111.25c-.08,.09-.16,.14-.26,.15-.1,0-.19-.03-.27-.1l-8.2-6.77c-.09-.08-.14-.16-.16-.26s.02-.19,.09-.28l4.28-5.19c.08-.09,.16-.14,.26-.15,.1,0,.19,.03,.28,.11l.48,.39c.09,.08,.14,.16,.15,.25s-.02,.18-.1,.28l-3.52,4.27,2.75,2.27,3.29-4c.08-.09,.16-.14,.26-.15,.1,0,.19,.03,.28,.11l.46,.38c.08,.07,.13,.15,.15,.25,.01,.1-.02,.19-.09,.28l-3.29,4,2.85,2.35,3.61-4.37c.08-.09,.16-.14,.25-.15,.09,0,.18,.02,.28,.1l.49,.4c.08,.07,.13,.15,.15,.25,.01,.1-.02,.19-.09,.28l-4.36,5.29Z"/>
      <path class="cls-1" d="M106.68,98.53c-.7,.63-1.38,1.06-2.05,1.28-.67,.22-1.28,.27-1.85,.16-.56-.11-1.03-.35-1.39-.73-.06-.06-.08-.15-.08-.25,0-.1,.04-.18,.12-.25l.62-.56c.1-.09,.19-.13,.28-.12,.09,0,.18,.03,.25,.08,.22,.16,.49,.26,.82,.31,.33,.05,.69,0,1.09-.13,.4-.13,.82-.4,1.27-.81,.69-.63,1.09-1.21,1.19-1.75,.1-.54-.03-1.02-.4-1.43-.26-.28-.55-.43-.88-.45-.33-.02-.73,.07-1.21,.25-.48,.18-1.07,.45-1.78,.8-.74,.36-1.39,.62-1.96,.77s-1.08,.16-1.54,.03-.9-.42-1.31-.88c-.39-.43-.63-.93-.71-1.48-.08-.55,.01-1.13,.27-1.73,.26-.6,.7-1.18,1.33-1.75,.5-.45,1-.78,1.49-.99,.49-.21,.97-.31,1.42-.32,.45,0,.85,.06,1.21,.2s.65,.32,.88,.56c.05,.06,.08,.13,.09,.22,0,.09-.03,.17-.12,.25l-.64,.58c-.06,.05-.13,.09-.22,.11-.09,.02-.19,0-.3-.06-.35-.29-.78-.4-1.31-.33s-1.05,.33-1.56,.8c-.52,.47-.86,.96-1,1.46-.14,.5-.02,.96,.36,1.38,.25,.27,.53,.43,.85,.47s.7-.02,1.16-.18c.45-.16,1.02-.41,1.68-.74,.8-.41,1.5-.7,2.09-.87,.59-.17,1.11-.2,1.58-.09,.46,.12,.9,.4,1.32,.86,.46,.51,.72,1.06,.78,1.66,.06,.6-.07,1.21-.37,1.83-.31,.62-.79,1.23-1.44,1.82Z"/>
      <path class="cls-1" d="M117.24,90c-.09,.06-.18,.08-.28,.06-.1-.02-.18-.07-.24-.16l-5.36-7.93-2.59,1.75c-.09,.06-.18,.08-.28,.06-.1-.02-.18-.07-.24-.16l-.38-.57c-.07-.1-.09-.2-.07-.3,.02-.1,.07-.18,.16-.24l6.5-4.4c.1-.07,.2-.09,.3-.07,.1,.02,.18,.08,.25,.18l.38,.57c.06,.09,.08,.18,.06,.28-.02,.1-.08,.18-.18,.25l-2.58,1.74,5.36,7.93c.06,.09,.08,.18,.06,.28s-.08,.18-.18,.25l-.7,.47Z"/>
      <path class="cls-1" d="M124.88,85.15c-.08,.04-.16,.04-.25,.01-.09-.03-.15-.08-.19-.16-.02-.05-.05-.1-.06-.17l-1.04-11.24c0-.12,0-.22,.05-.31,.04-.09,.13-.17,.26-.24l.99-.49c.13-.06,.24-.08,.34-.06s.2,.07,.28,.15l8.27,7.67s.08,.1,.11,.15c.04,.08,.04,.16,.01,.25s-.08,.15-.16,.19l-.74,.37c-.12,.06-.22,.07-.3,.04-.08-.03-.15-.07-.19-.11l-1.83-1.68-4.79,2.36,.22,2.47c.01,.05,0,.12-.02,.21-.03,.09-.1,.16-.22,.22l-.74,.37Zm.57-4.73l3.94-1.94-4.53-4.21,.59,6.16Z"/>
      <path class="cls-1" d="M139.82,78.47c-.11,.04-.21,.03-.3-.02-.08-.05-.14-.12-.17-.23l-3.17-10.15c-.04-.11-.03-.21,0-.3,.04-.09,.12-.15,.23-.18l4.26-1.33c.78-.24,1.45-.31,2.02-.21,.57,.1,1.04,.33,1.41,.69,.37,.36,.64,.81,.81,1.35,.13,.42,.18,.81,.13,1.16-.04,.35-.14,.65-.29,.91-.15,.26-.3,.47-.47,.63,.47,.07,.93,.28,1.38,.63,.46,.35,.78,.84,.98,1.47,.18,.57,.21,1.13,.1,1.69-.11,.56-.38,1.06-.8,1.5-.42,.45-1.01,.79-1.77,1.02l-4.37,1.36Zm-.8-6.64l2.86-.89c.66-.21,1.12-.52,1.36-.93s.29-.88,.12-1.41-.46-.88-.89-1.05c-.43-.17-.98-.16-1.64,.05l-2.86,.89,1.04,3.34Zm1.57,5.02l3-.94c.67-.21,1.14-.55,1.38-1.03,.25-.48,.29-.98,.13-1.51-.17-.55-.49-.95-.97-1.19s-1.05-.26-1.72-.05l-3,.94,1.18,3.78Z"/>
      <path class="cls-1" d="M154.53,74.55c-.12,.02-.21,0-.29-.06-.08-.06-.12-.14-.14-.25l-1.65-10.52c-.02-.11,0-.2,.05-.28,.05-.08,.14-.13,.26-.15l.85-.13c.11-.02,.2,0,.27,.06,.08,.06,.12,.14,.14,.25l1.49,9.49,5.36-.84c.12-.02,.21,0,.29,.06,.08,.06,.12,.15,.14,.27l.1,.64c.02,.11,0,.2-.05,.28-.05,.08-.14,.13-.26,.15l-6.56,1.03Z"/>
      <path class="cls-1" d="M168.17,73.02c-.12,0-.21-.03-.28-.09-.07-.07-.1-.16-.11-.26l-.44-10.64c0-.11,.02-.2,.09-.27,.06-.07,.15-.11,.27-.12l.86-.04c.11,0,.2,.03,.27,.09,.07,.07,.11,.16,.12,.26l.44,10.64c0,.11-.03,.2-.09,.27-.07,.07-.16,.11-.26,.12l-.86,.04Z"/>
      <path class="cls-1" d="M180.43,73.37c-.94-.07-1.72-.28-2.34-.61-.62-.34-1.08-.75-1.38-1.23-.31-.49-.45-.99-.43-1.51,0-.09,.05-.16,.12-.23,.08-.06,.16-.09,.26-.09l.83,.06c.13,.01,.22,.05,.28,.12,.06,.07,.1,.15,.11,.24,.03,.26,.15,.53,.34,.8s.47,.5,.84,.7c.37,.2,.86,.32,1.47,.37,.93,.07,1.63-.04,2.09-.34s.72-.72,.76-1.27c.03-.38-.06-.69-.28-.94-.22-.25-.55-.49-1.02-.71-.46-.22-1.06-.47-1.8-.74-.77-.29-1.41-.59-1.91-.9-.5-.31-.86-.68-1.08-1.1-.22-.42-.31-.94-.26-1.56,.04-.58,.24-1.09,.59-1.53,.35-.44,.83-.77,1.44-.99s1.34-.31,2.18-.24c.67,.05,1.25,.19,1.74,.4,.49,.22,.89,.49,1.2,.81,.31,.32,.54,.66,.69,1.02,.15,.35,.21,.69,.2,1.02,0,.08-.04,.15-.1,.21-.06,.07-.15,.09-.27,.09l-.86-.07c-.08,0-.15-.03-.23-.08-.08-.05-.13-.14-.17-.26-.03-.45-.25-.84-.66-1.18s-.96-.53-1.65-.58c-.7-.05-1.29,.04-1.74,.27-.46,.24-.71,.64-.76,1.22-.03,.37,.05,.68,.24,.94,.19,.26,.49,.5,.92,.72,.43,.22,.99,.46,1.69,.72,.85,.31,1.54,.61,2.07,.92,.53,.31,.91,.67,1.15,1.08,.23,.42,.33,.93,.28,1.55-.05,.68-.28,1.25-.67,1.7-.39,.45-.92,.78-1.59,.99s-1.43,.27-2.31,.21Z"/>
      <path class="cls-1" d="M191.51,74.61c-.12-.03-.2-.08-.25-.17-.05-.08-.06-.18-.03-.28l2.44-10.35c.03-.12,.08-.2,.16-.25,.08-.05,.18-.07,.29-.04l.81,.19c.12,.03,.2,.08,.25,.17,.05,.08,.07,.19,.04,.3l-1.03,4.38,5.45,1.28,1.03-4.38c.03-.12,.08-.2,.17-.25,.08-.05,.18-.07,.29-.04l.81,.19c.12,.03,.2,.08,.25,.17,.05,.08,.07,.19,.04,.3l-2.44,10.35c-.02,.11-.08,.19-.16,.24-.09,.05-.19,.06-.3,.04l-.81-.19c-.11-.02-.18-.08-.24-.16-.05-.08-.07-.18-.04-.29l1.07-4.55-5.45-1.28-1.07,4.55c-.02,.11-.08,.18-.16,.24-.09,.05-.19,.06-.3,.04l-.81-.19Z"/>
      <path class="cls-1" d="M206.86,78.92c-.11-.04-.18-.11-.22-.2-.03-.09-.03-.19,.01-.29l4-9.85c.04-.11,.11-.19,.2-.23s.19-.04,.3,0l6.23,2.53c.11,.04,.18,.11,.22,.2,.03,.09,.03,.19-.02,.3l-.23,.57c-.04,.11-.11,.18-.19,.22-.08,.04-.18,.03-.29-.01l-5.13-2.08-1.34,3.3,4.8,1.95c.11,.04,.18,.11,.22,.2,.03,.09,.03,.19-.02,.3l-.23,.56c-.04,.1-.1,.17-.19,.21-.09,.04-.19,.04-.3,0l-4.8-1.95-1.39,3.43,5.25,2.13c.11,.04,.18,.11,.22,.19s.03,.18-.01,.29l-.24,.59c-.04,.1-.1,.17-.19,.21-.09,.04-.19,.04-.3,0l-6.35-2.58Z"/>
      <path class="cls-1" d="M219.81,84.77c-.1-.06-.16-.14-.18-.23-.02-.09,0-.19,.05-.28l5.44-9.14c.06-.1,.14-.17,.23-.19,.09-.03,.19-.01,.29,.05l3.18,1.89c.96,.57,1.65,1.18,2.06,1.82,.42,.64,.59,1.32,.53,2.05-.07,.73-.34,1.5-.82,2.33-.24,.43-.46,.8-.64,1.11-.19,.32-.41,.68-.66,1.08-.53,.85-1.1,1.47-1.7,1.88-.6,.41-1.27,.58-2.01,.51-.74-.07-1.58-.38-2.52-.94l-3.25-1.93Zm1.76-.56l2.13,1.27c.64,.38,1.21,.6,1.7,.65,.49,.05,.93-.07,1.34-.36,.41-.29,.8-.75,1.2-1.39,.19-.27,.34-.51,.47-.72s.25-.42,.38-.63c.12-.21,.26-.46,.4-.74,.52-.92,.7-1.71,.55-2.39-.15-.68-.71-1.31-1.68-1.88l-2.06-1.22-4.41,7.42Z"/>
      <path class="cls-1" d="M239.58,99.03c-.09-.08-.13-.17-.13-.27,0-.1,.04-.18,.11-.26l7.26-7.8c.07-.08,.16-.12,.25-.13,.1,0,.19,.03,.27,.11l.63,.59c.08,.07,.12,.16,.12,.26,0,.1-.03,.19-.11,.27l-7.26,7.79c-.07,.08-.16,.12-.26,.12-.1,0-.19-.03-.27-.11l-.63-.59Z"/>
      <path class="cls-1" d="M245.92,105.33c-.08-.09-.11-.19-.1-.28,.01-.1,.06-.18,.14-.25l8.16-6.82c.09-.08,.19-.11,.28-.11,.1,0,.18,.05,.26,.14l.48,.57c.08,.1,.12,.19,.12,.28,0,.09-.02,.15-.03,.18l-2.9,9.48,6.25-5.22c.09-.08,.19-.11,.28-.11s.18,.05,.26,.14l.5,.6c.08,.09,.11,.19,.1,.29,0,.1-.06,.19-.15,.26l-8.14,6.81c-.08,.07-.18,.1-.28,.1-.1,0-.19-.05-.26-.13l-.5-.6c-.08-.09-.11-.18-.1-.27,.01-.09,.02-.15,.02-.18l2.85-9.41-6.2,5.18c-.08,.07-.17,.1-.27,.09-.1,0-.19-.06-.26-.15l-.5-.6Z"/>
    </g>
    <g>
      <path class="cls-1" d="M146.87,105.76c-.11,0-.2-.04-.27-.11-.07-.07-.11-.16-.11-.27v-.52c0-.1,.03-.21,.08-.33,.05-.12,.16-.25,.33-.39l3.45-3.45c.55-.47,.99-.87,1.31-1.2,.32-.33,.55-.65,.68-.95,.14-.3,.2-.62,.2-.94,0-.62-.17-1.11-.52-1.47-.35-.36-.86-.55-1.55-.55-.43,0-.81,.09-1.12,.27-.31,.18-.56,.42-.74,.73s-.3,.66-.35,1.05c-.02,.14-.08,.24-.17,.29-.09,.05-.18,.08-.25,.08h-.85c-.1,0-.18-.03-.24-.09-.07-.06-.1-.13-.1-.22,.01-.41,.1-.83,.26-1.25s.4-.79,.72-1.13c.32-.34,.72-.61,1.19-.82s1.02-.32,1.65-.32c.86,0,1.56,.15,2.11,.46,.55,.31,.95,.72,1.21,1.23,.26,.51,.39,1.07,.39,1.68,0,.48-.08,.92-.24,1.31-.16,.4-.4,.78-.71,1.16s-.69,.76-1.15,1.15l-3.13,3.18h5.08c.12,0,.21,.03,.28,.1,.07,.06,.11,.16,.11,.28v.67c0,.11-.04,.2-.11,.27-.07,.07-.17,.11-.28,.11h-7.18Z"/>
      <path class="cls-1" d="M165.63,105.92c-.75,0-1.38-.12-1.9-.35-.52-.23-.94-.56-1.26-.97s-.56-.88-.71-1.42c-.15-.53-.23-1.1-.25-1.69-.01-.29-.02-.6-.02-.93,0-.33,0-.65,0-.99,0-.33,.01-.65,.02-.95,.01-.6,.09-1.16,.25-1.7,.16-.54,.4-1.01,.72-1.42,.32-.41,.74-.73,1.26-.96s1.15-.35,1.89-.35,1.38,.12,1.9,.35,.94,.55,1.26,.96c.33,.41,.57,.88,.72,1.42,.16,.54,.24,1.1,.25,1.7,.01,.3,.02,.62,.02,.95,0,.33,0,.66,0,.99,0,.33-.01,.64-.02,.93-.01,.6-.1,1.16-.25,1.69-.16,.53-.4,1-.72,1.42-.32,.41-.74,.74-1.25,.97-.52,.23-1.15,.35-1.91,.35Zm0-1.38c.85,0,1.47-.28,1.88-.84,.41-.56,.62-1.32,.63-2.29,.02-.31,.03-.62,.03-.92v-.9c0-.3-.01-.59-.03-.89-.01-.94-.22-1.7-.63-2.27-.41-.57-1.03-.85-1.88-.85s-1.46,.28-1.86,.85c-.41,.57-.62,1.33-.64,2.27,0,.29,0,.59,0,.89,0,.3,0,.6,0,.9,0,.3,0,.61,0,.92,.02,.97,.24,1.73,.65,2.29,.41,.56,1.03,.84,1.86,.84Z"/>
      <path class="cls-1" d="M177.19,105.76c-.11,0-.2-.04-.27-.11-.07-.07-.11-.16-.11-.27v-.52c0-.1,.03-.21,.08-.33,.05-.12,.16-.25,.33-.39l3.45-3.45c.55-.47,.99-.87,1.31-1.2,.32-.33,.55-.65,.68-.95,.14-.3,.2-.62,.2-.94,0-.62-.17-1.11-.52-1.47-.35-.36-.86-.55-1.55-.55-.43,0-.81,.09-1.12,.27-.31,.18-.56,.42-.74,.73s-.3,.66-.35,1.05c-.02,.14-.08,.24-.17,.29-.09,.05-.18,.08-.25,.08h-.85c-.1,0-.18-.03-.24-.09-.07-.06-.1-.13-.1-.22,.01-.41,.1-.83,.26-1.25s.4-.79,.72-1.13c.32-.34,.72-.61,1.19-.82s1.02-.32,1.65-.32c.86,0,1.56,.15,2.11,.46,.55,.31,.95,.72,1.21,1.23,.26,.51,.39,1.07,.39,1.68,0,.48-.08,.92-.24,1.31-.16,.4-.4,.78-.71,1.16s-.69,.76-1.15,1.15l-3.13,3.18h5.08c.12,0,.21,.03,.28,.1,.07,.06,.11,.16,.11,.28v.67c0,.11-.04,.2-.11,.27-.07,.07-.17,.11-.28,.11h-7.18Z"/>
      <path class="cls-1" d="M195.28,105.76c-.11,0-.2-.04-.27-.11-.07-.07-.11-.16-.11-.27v-9.12l-2.7,2.08c-.09,.07-.18,.09-.28,.08-.1-.01-.18-.06-.24-.15l-.42-.54c-.06-.1-.09-.2-.07-.29s.07-.18,.15-.24l3.55-2.74c.08-.05,.15-.09,.21-.1s.14-.02,.21-.02h.83c.11,0,.2,.04,.26,.11,.07,.07,.1,.16,.1,.27v10.65c0,.11-.03,.2-.1,.27-.07,.07-.15,.11-.26,.11h-.86Z"/>
    </g>
    <g>
      <path class="cls-1" d="M111.71,263.47c-.11,0-.2-.04-.27-.11-.07-.07-.11-.16-.11-.27v-3.84l-3.92-6.64s-.02-.06-.03-.1c-.01-.03-.02-.07-.02-.11,0-.09,.03-.16,.1-.23,.07-.07,.14-.1,.23-.1h.85c.1,0,.18,.02,.26,.07,.08,.05,.13,.12,.16,.2l3.18,5.28,3.18-5.28c.05-.09,.12-.15,.19-.2s.15-.07,.25-.07h.83c.1,0,.18,.03,.24,.1,.06,.06,.1,.14,.1,.23,0,.04,0,.08-.02,.11-.01,.03-.03,.06-.05,.1l-3.91,6.64v3.84c0,.11-.04,.2-.11,.27-.07,.07-.17,.11-.28,.11h-.85Z"/>
      <path class="cls-1" d="M127.64,263.63c-.92,0-1.72-.16-2.38-.48-.66-.32-1.17-.81-1.53-1.48-.36-.67-.56-1.51-.6-2.52-.01-.48-.02-.94-.02-1.38s0-.9,.02-1.38c.04-1,.25-1.83,.63-2.5,.37-.67,.9-1.17,1.56-1.5,.67-.33,1.44-.5,2.32-.5s1.67,.17,2.34,.5c.67,.33,1.19,.83,1.57,1.5,.38,.67,.59,1.5,.62,2.5,.02,.48,.03,.94,.03,1.38s-.01,.9-.03,1.38c-.03,1.01-.23,1.85-.59,2.52-.36,.67-.88,1.16-1.54,1.48-.66,.32-1.46,.48-2.39,.48Zm0-1.38c.84,0,1.52-.25,2.04-.75,.53-.5,.81-1.31,.85-2.43,.02-.49,.03-.93,.03-1.31s-.01-.82-.03-1.29c-.02-.75-.16-1.36-.42-1.82-.26-.47-.59-.81-1.02-1.03s-.91-.33-1.47-.33-1.01,.11-1.43,.33c-.42,.22-.76,.56-1.02,1.03-.26,.47-.4,1.07-.43,1.82-.01,.48-.02,.91-.02,1.29s0,.82,.02,1.31c.04,1.12,.33,1.93,.86,2.43,.53,.5,1.21,.75,2.02,.75Z"/>
      <path class="cls-1" d="M140.16,263.47c-.12,0-.21-.04-.28-.11-.07-.07-.1-.16-.1-.27v-10.63c0-.12,.03-.21,.1-.29,.07-.07,.16-.11,.28-.11h3.97c1.23,0,2.2,.29,2.92,.86,.72,.58,1.07,1.43,1.07,2.56,0,.84-.21,1.52-.63,2.04-.42,.53-.99,.89-1.7,1.1l2.51,4.33c.03,.07,.05,.12,.05,.18,0,.09-.04,.16-.11,.23-.07,.06-.15,.1-.24,.1h-.78c-.18,0-.32-.05-.41-.15-.09-.1-.16-.2-.23-.29l-2.36-4.14h-2.85v4.2c0,.11-.04,.2-.11,.27-.07,.07-.17,.11-.28,.11h-.83Zm1.22-5.96h2.69c.81,0,1.42-.17,1.82-.51,.4-.34,.6-.85,.6-1.52s-.2-1.17-.59-1.51c-.4-.35-1.01-.52-1.83-.52h-2.69v4.07Z"/>
      <path class="cls-1" d="M156.04,263.47c-.12,0-.21-.04-.28-.11-.07-.07-.1-.16-.1-.27v-10.63c0-.12,.03-.21,.1-.29,.07-.07,.16-.11,.28-.11h.81c.12,0,.21,.04,.29,.11,.07,.07,.11,.17,.11,.29v4.04l4.35-4.17s.12-.1,.22-.16c.1-.07,.24-.1,.42-.1h.88c.09,0,.16,.03,.23,.1,.07,.06,.1,.14,.1,.23s-.02,.16-.07,.21l-5.03,4.92,5.36,5.39c.05,.06,.08,.14,.08,.23s-.03,.16-.1,.23c-.07,.06-.14,.1-.23,.1h-.91c-.18,0-.33-.04-.42-.11-.1-.07-.17-.12-.21-.15l-4.66-4.59v4.48c0,.11-.04,.2-.11,.27s-.17,.11-.29,.11h-.81Z"/>
      <path class="cls-1" d="M174.1,263.63c-.94,0-1.74-.14-2.38-.43s-1.13-.66-1.47-1.12-.52-.95-.55-1.47c0-.09,.04-.17,.11-.24,.07-.07,.15-.11,.25-.11h.83c.13,0,.23,.03,.29,.1s.11,.14,.13,.23c.05,.26,.19,.52,.4,.77,.21,.26,.51,.47,.9,.64,.39,.17,.88,.25,1.49,.25,.93,0,1.62-.17,2.06-.5,.44-.33,.66-.77,.66-1.33,0-.38-.12-.69-.35-.92-.23-.23-.59-.44-1.07-.63-.48-.18-1.1-.39-1.86-.6-.79-.23-1.45-.48-1.97-.75-.52-.27-.91-.61-1.16-1.01-.26-.4-.38-.91-.38-1.53,0-.59,.16-1.11,.47-1.57,.31-.46,.77-.83,1.36-1.1s1.31-.41,2.16-.41c.67,0,1.26,.09,1.77,.27,.5,.18,.93,.42,1.26,.72,.34,.3,.59,.62,.77,.96,.17,.34,.27,.68,.28,1,0,.08-.03,.15-.08,.22-.05,.07-.14,.11-.26,.11h-.86c-.08,0-.15-.02-.24-.06-.08-.04-.14-.12-.19-.24-.07-.45-.32-.82-.75-1.12-.43-.3-1-.46-1.69-.46s-1.28,.14-1.72,.41-.66,.69-.66,1.27c0,.37,.1,.68,.31,.92,.21,.24,.53,.46,.98,.64,.45,.18,1.03,.38,1.74,.59,.87,.24,1.58,.49,2.13,.76s.96,.6,1.23,.99c.27,.4,.4,.9,.4,1.52,0,.68-.18,1.27-.54,1.75-.36,.48-.86,.85-1.51,1.11s-1.41,.38-2.29,.38Z"/>
      <path class="cls-1" d="M186.15,263.47c-.12,0-.21-.04-.28-.11-.07-.07-.1-.16-.1-.27v-10.63c0-.12,.03-.21,.1-.29,.07-.07,.16-.11,.28-.11h.83c.12,0,.21,.04,.28,.11,.07,.07,.11,.17,.11,.29v4.49h5.6v-4.49c0-.12,.04-.21,.11-.29s.16-.11,.27-.11h.83c.12,0,.21,.04,.28,.11,.07,.07,.11,.17,.11,.29v10.63c0,.11-.04,.2-.11,.27-.07,.07-.17,.11-.28,.11h-.83c-.11,0-.2-.04-.27-.11-.07-.07-.11-.16-.11-.27v-4.67h-5.6v4.67c0,.11-.04,.2-.11,.27-.07,.07-.17,.11-.28,.11h-.83Z"/>
      <path class="cls-1" d="M202.97,263.47c-.12,0-.21-.04-.28-.11-.07-.07-.1-.16-.1-.27v-10.65c0-.11,.03-.2,.1-.27,.07-.07,.16-.11,.28-.11h.86c.11,0,.2,.04,.27,.11,.07,.07,.11,.16,.11,.27v10.65c0,.11-.04,.2-.11,.27-.07,.07-.16,.11-.27,.11h-.86Z"/>
      <path class="cls-1" d="M212.63,263.47c-.12,0-.21-.04-.28-.11-.07-.07-.1-.16-.1-.27v-10.63c0-.12,.03-.21,.1-.29,.07-.07,.16-.11,.28-.11h3.97c1.23,0,2.2,.29,2.92,.86,.72,.58,1.07,1.43,1.07,2.56,0,.84-.21,1.52-.63,2.04-.42,.53-.99,.89-1.7,1.1l2.51,4.33c.03,.07,.05,.12,.05,.18,0,.09-.04,.16-.11,.23-.07,.06-.15,.1-.24,.1h-.78c-.18,0-.32-.05-.41-.15-.09-.1-.16-.2-.23-.29l-2.36-4.14h-2.85v4.2c0,.11-.04,.2-.11,.27-.07,.07-.17,.11-.28,.11h-.83Zm1.22-5.96h2.69c.81,0,1.42-.17,1.82-.51,.4-.34,.6-.85,.6-1.52s-.2-1.17-.59-1.51c-.4-.35-1.01-.52-1.83-.52h-2.69v4.07Z"/>
      <path class="cls-1" d="M228.5,263.47c-.12,0-.21-.04-.28-.11-.07-.07-.1-.16-.1-.27v-10.63c0-.12,.03-.21,.1-.29,.07-.07,.16-.11,.28-.11h6.73c.12,0,.21,.04,.28,.11,.07,.07,.1,.17,.1,.29v.62c0,.12-.03,.21-.1,.28-.07,.07-.16,.1-.28,.1h-5.54v3.57h5.18c.12,0,.21,.04,.28,.11,.07,.07,.1,.17,.1,.29v.6c0,.11-.03,.2-.1,.27-.06,.07-.16,.11-.28,.11h-5.18v3.7h5.67c.12,0,.21,.03,.28,.1,.07,.07,.1,.16,.1,.28v.64c0,.11-.03,.2-.1,.27-.06,.07-.16,.11-.28,.11h-6.86Z"/>
    </g>
    <circle class="cls-1" cx="21.07" cy="161.58" r="4.14"/>
    <circle class="cls-1" cx="321.93" cy="161.58" r="4.14"/>
    <g>
      <g>
        <path class="cls-1" d="M274.44,160.71c-1.14-1.75-3.1-3.91-5.92-4.26-1.33-.16-2.63,.21-3.68,1.05-.77,.61-1.33,1.42-1.68,2.35-1.63-.09-3.12,.4-4.33,1.54-2.7,2.59-3.87,8.27-2.98,15.19,.19,1.44,1.4,2.66,2.61,.37,.91-1.72,2.82-3.91,4.78-5.99,3.03-3.19,5.66-5.97,4.82-8.46-.37-1.1-1.28-1.72-2.19-2.1,.16-.3,.4-.58,.65-.79,.35-.28,.91-.56,1.68-.49,1.86,.23,3.29,2,3.98,3.05,1.07,1.63,1.7,3.36,1.82,4.99,.12,1.77-.37,3.47-1.37,4.68-.77,.93-1.89,1.65-3.08,2.4-1.86,1.21-3.8,2.45-4.68,4.73-1.1,2.84,.14,5.85,1.14,8.32,.79,1.93,1.58,4.38,.56,6.06-1.07,1.72-3.75,2-5.24,2-.49,.02-1.03,0-1.54-.02-2.03-.05-4.12-.09-6.15,.77-.86,.37-1.61,.93-2.31,1.61-2.14-2.4-4.87-3.68-7.2-4.73-2.24-1.03-4.17-1.91-4.87-3.47-.68-1.56-.96-5.01-.82-9.74,.28,.54,.56,1.07,.86,1.65,.23,.47,.7,.77,1.24,.77h.12c.56-.05,1.03-.44,1.19-1,1.68-6.01,4.29-11.05,6.8-15.94,5.97-11.53,11.14-21.51-.7-36.91-.77-1-2.05-1.54-3.4-1.42-1.51,.14-10.3-1.3-12.28,1.19-2.66-2.03-5.59-1.49-8.44-.98-2.91,.54-5.94,1.07-9.51-.61-.63-.3-1.37-.07-1.75,.51-2.42,3.91-2.07,6.45,1.28,9.79,.26,.26,.58,.44,1,.4,2.1,0,3.59,.65,4.24,1.7-2.42-1.05-4.99-.58-6.97-.21-1.47,.28-2.82,.54-3.29,.02-.75-.86-.91-1.68-1.1-2.63-.3-1.68-.7-3.75-4.33-5.29-.68-.28-1.49,.02-1.79,.72-.3,.7,.02,1.49,.72,1.79,2.28,.96,2.45,1.84,2.7,3.26,.21,1.12,.47,2.52,1.72,3.94,1.47,1.68,3.68,1.26,5.83,.86,.02,0,.07-.02,.09-.02-.84,3.33-1.44,7.5,.33,8.76,.26,.19,.65,.37,1.21,.37,.49,0,1.1-.16,1.79-.63,2.73-1.82,5.38-2.26,7.81-2.47,.09,.35,.14,.7,0,.93-.51,.91-3.4,1.3-5.71,1.61-2.42,.33-5.29,.72-7.57,1.82-2.61-2.17-5.22-3.89-7.76-5.06-1.4-.65-2.45-1.91-2.96-3.59-.75-2.42-1.91-4.38-3.43-5.83-1.14-1.1-1.82-2.31-2-3.59-.4-3.59-1.68-8.25-4.89-10.14-1.79-1.05-3.89-1.12-6.25-.19-2.98,1.17-4.64,2.59-5.13,4.36-.63,2.4,1.07,4.54,2.59,6.45,.75,.93,1.51,1.91,1.72,2.59,1.56,5.92,3.75,10.16,6.71,13,.93,.91,1.51,2,1.65,3.12,.49,4.01,2.05,8.13,4.59,12.3-.49,.47-1.03,.91-1.49,1.4-1.49,1.61-3.77,2.07-5.69,1.17-1.07-.51-2.14-1.12-3.15-1.68-3.22-1.82-6.55-3.71-8.88-1.42-2.07,2.07-2.77,5.22-1.82,8.18,1.12,3.59,4.1,6.2,7.97,6.97,1.61,.33,3.08,.44,4.4,.44,3.91,0,6.55-1.14,7.64-1.72,.33-.16,.72-.26,1.1-.23,2.56,.19,4.87-.16,6.87-1.03,1.28,4.38,3.47,8.18,6.78,11.74-2.31,.56-4.73,1.51-6.99,3.15-6.48,4.68-3.4,12.61-1.56,17.34,.47,1.21,.89,2.26,1.03,2.96,.42,2.07-.37,4.01-.63,4.22,0,0-.33-.14-.79-.96-1.42-2.52-5.31-3.15-8.48-2.91-2.77,.21-6.01,1.17-6.8,3.22-.23,.63-.44,1.86,.84,3.22,5.13,5.34,9.79,8.02,13.91,8.02,1.35,0,2.66-.28,3.89-.86,3.43-1.63,5.34-2.07,7.01-2.47,1.19-.28,2.28-.54,3.71-1.12,1.96-.82,2.26-3.05,2.59-5.43,.58-4.17,1.3-6.97,5.78-7.41,2.45-.26,4.96,.05,7.5,.89,1.03,3.1,3.47,5.71,7.06,7.5,2.21,1.1,4.64,1.63,6.78,2.12,3.19,.72,4.52,1.14,4.38,1.86-.37,.47-2.82,.58-4.29,.63-3.22,.14-6.87,.3-8.88,2.52-.98,1.07-1.42,2.49-1.33,4.22,.07,1.37,.33,3.31,1.68,4.31,.63,.47,1.33,.63,2.07,.63,.89,0,1.84-.23,2.82-.47,1.35-.33,2.87-.7,4.43-.54,3.15,.35,8.46-1.03,11.84-4.03,2.26-2.03,3.47-4.54,3.47-7.32,0-4.45-2.05-5.62-3.54-6.48-1.26-.72-1.96-1.12-1.75-3.75,.47-5.55-.42-9.32-1.96-12.05,.51-.56,1.12-1.03,1.79-1.33,1.47-.63,3.19-.58,5.01-.54,.54,.02,1.1,.02,1.63,.02,3.61-.02,6.22-1.17,7.55-3.31,1.68-2.7,.7-5.97-.37-8.58-.89-2.17-1.82-4.4-1.1-6.25,.56-1.44,2.05-2.4,3.61-3.4,1.3-.84,2.66-1.7,3.71-2.96,1.44-1.75,2.17-4.15,2-6.62-.21-2.19-1-4.36-2.33-6.36Zm-13.21,8.39c-1,1.07-2.05,2.14-2.94,3.24-.02-4.15,.79-7.55,2.4-8.97,2.54-2.26,4.71-.12,4.75,.05,.33,.91-2.52,3.89-4.22,5.69Zm-46.51-21.58c-.09-.93,.12-2.82,.54-4.68,.3,.07,.65,.16,.93,.23,1.61,.42,3.43,.91,4.59-.05,.26-.21,.44-.44,.63-.7h.02s0-.02,.02-.02c.79-1.07,1.03-2.52,.56-3.89-.82-2.33-3.24-3.77-6.55-3.91-1.82-1.89-2.12-3.01-1.1-5.01,3.87,1.44,7.22,.84,10,.33,3.08-.56,4.87-.79,6.57,.7-.19,1.93,.16,3.26,.49,4.45-.49,.37-1,.79-1.54,1.26-.56,.51-.61,1.37-.09,1.93s1.37,.61,1.93,.09c3.54-3.17,6.34-3.77,7.53-2.96,.56,.4,.75,1.14,.44,1.89-.56,1.47-2.84,2.96-7.46,2.33-.77-.09-1.44,.42-1.54,1.17-.05,.4,.07,.75,.28,1.03-.89,2.38-2.49,2.63-5.94,2.87-2.96,.21-6.57,.47-10.32,2.96Zm3.87,5.1c3.52-.47,6.55-.89,7.74-2.98,.4-.72,.51-1.56,.35-2.49,2.89-.28,5.62-1.07,6.9-4.85,.21,0,.44,.05,.63,.05,4.61,0,7.13-2.07,7.97-4.22,.75-1.96,.19-4.01-1.44-5.13-.75-.51-3.08-1.65-6.92,.35-.19-.82-.28-1.7-.14-2.87,1.24-1.91,9.46-.75,11.14-.89,.4-.05,.79,.09,1,.37,10.77,14.03,6.2,22.84,.42,34-2.05,3.94-4.31,8.32-6.01,13.26-.98-1.79-1.96-3.33-2.94-4.71,.89-2.07,2.03-4.22,3.26-6.5,3.8-7.11,8.09-15.17,6.11-23.58-.16-.72-.91-1.19-1.63-1-.72,.16-1.19,.91-1,1.63,1.75,7.41-2.12,14.66-5.85,21.67-1,1.86-1.89,3.61-2.73,5.36-1.37-1.61-2.73-2.84-4.1-3.87,.98-2.47,2.4-4.78,3.8-7.01,2.31-3.66,4.68-7.46,5.08-12.14,.07-.75-.49-1.42-1.24-1.47-.72-.07-1.42,.49-1.47,1.24-.35,4.01-2.45,7.36-4.66,10.91-1.37,2.19-2.77,4.45-3.82,6.94-2.7-1.51-5.48-2.31-8.39-3.12-3.52-1-7.15-2-11.26-4.52,.61-3.01,4.24-3.75,9.2-4.43Zm-25.05-.07c-.21-1.75-1.1-3.45-2.49-4.78-2.59-2.47-4.54-6.31-5.97-11.77-.37-1.21-1.26-2.33-2.21-3.52-1.1-1.4-2.35-2.96-2.07-4.03,.23-.84,1.47-1.75,3.47-2.54,1.56-.61,2.82-.61,3.87,0,2.4,1.4,3.33,5.71,3.66,8.16,.26,1.89,1.24,3.68,2.82,5.2,1.21,1.14,2.1,2.66,2.7,4.66,.75,2.42,2.33,4.29,4.43,5.27,2.14,.98,4.36,2.42,6.62,4.24-1.03,1.05-2.14,2.89-1.82,4.54-3.47,1.56-6.5,3.33-9.06,5.41-2.17-3.73-3.52-7.36-3.94-10.84Zm61.7,65.55c1.26,.72,2.17,1.24,2.17,4.1,0,2-.86,3.77-2.54,5.29-2.75,2.45-7.15,3.66-9.72,3.36-2.03-.23-3.89,.23-5.41,.61-1.07,.26-2.26,.56-2.61,.3-.07-.05-.49-.44-.58-2.26-.05-.98,.16-1.7,.63-2.24,1.24-1.37,4.29-1.51,6.99-1.63,3.29-.14,6.36-.28,6.85-2.84,.65-3.47-3.12-4.31-6.45-5.06-1.98-.44-4.24-.93-6.15-1.89-3.5-1.72-5.57-4.24-6.01-7.25-.44-3.08,.91-6.36,3.75-9.02,.56-.51,.58-1.37,.07-1.93s-1.37-.58-1.93-.07c-3.15,2.94-4.8,6.59-4.68,10.18-2.42-.63-4.87-.84-7.25-.58-6.94,.72-7.71,6.15-8.2,9.76-.19,1.37-.4,3.24-.93,3.29-3.12,.26-7.15,1.89-10.84,3.64-3.82,1.79-8.76-.42-14.66-6.55-.21-.23-.26-.35-.26-.35,.12-.33,1.49-1.21,4.22-1.44,2.89-.26,5.5,.37,6.15,1.51,1.56,2.73,3.31,2.42,3.98,2.17,2.19-.82,3.08-4.43,2.49-7.32-.19-.93-.63-2.07-1.17-3.4-2.19-5.64-3.8-10.95,.61-14.14,6.38-4.59,14.75-3.1,15.36-3.01,.96,.61,1.93,1.19,2.98,1.7,.19,.09,.4,.14,.58,.14,.51,0,1-.28,1.24-.77,.33-.68,.05-1.49-.63-1.82-5.87-2.82-9.74-7.11-11.79-13.07-.26-.72-1.03-1.1-1.75-.84-.72,.26-1.1,1.03-.84,1.72,1.35,3.89,3.47,7.2,6.29,9.88-.84,0-1.77,.02-2.77,.14-3.89-3.77-6.34-7.83-7.6-12.58,.58-.44,1.17-.93,1.68-1.49,.58-.63,1.49-.79,2.14-.42,7.74,4.29,14.63,3.52,20.51-2.26,.54-.54,.54-1.4,.02-1.93-.54-.54-1.4-.54-1.93-.02-4.99,4.89-10.63,5.48-17.29,1.82-1.77-.98-4.03-.58-5.48,.96-2.14,2.33-5.01,3.33-8.83,3.05-.86-.05-1.72,.14-2.52,.54-1.26,.68-4.78,2.14-10.28,1.03-4.12-.82-5.5-3.84-5.9-5.13-.77-2.38,.09-4.36,1.14-5.41,.86-.84,3.29,.51,5.62,1.84,1.07,.61,2.19,1.24,3.33,1.77,3.01,1.44,6.55,.72,8.85-1.77,3.22-3.47,7.43-6.25,12.84-8.51,4.1,2.35,7.78,3.38,11.09,4.31,5.92,1.68,10.81,3.08,16.08,11.19-.54,7.57-.28,12.68,.82,15.15,1.12,2.52,3.59,3.66,6.22,4.87,4.96,2.28,10.11,4.64,9.13,16.31-.33,4.4,1.68,5.55,3.15,6.38Z"/>
        <path class="cls-1" d="M242.05,211.84c-5.57-3.19-5.2-5.69-4.24-7.5,.35-.68,.09-1.49-.58-1.84s-1.49-.09-1.84,.58c-2.14,4.12-.37,7.88,5.29,11.14,.21,.12,.44,.19,.68,.19,.47,0,.93-.26,1.19-.68,.4-.68,.16-1.51-.49-1.89Z"/>
        <path class="cls-1" d="M225.78,134.08c.21,0,.44-.05,.63-.14,.68-.33,.98-1.14,.65-1.82s-1.14-.98-1.82-.65l-.16,.09c-.68,.33-.89,1.1-.56,1.77,.21,.49,.72,.75,1.26,.75Z"/>
      </g>
      <g>
        <path class="cls-1" d="M66.23,167.07c-.16,2.47,.56,4.87,2,6.62,1.05,1.26,2.4,2.12,3.71,2.96,1.56,1,3.05,1.96,3.61,3.4,.72,1.84-.21,4.08-1.1,6.25-1.07,2.61-2.05,5.87-.37,8.58,1.33,2.14,3.94,3.29,7.55,3.31,.54,0,1.1,0,1.63-.02,1.82-.05,3.54-.09,5.01,.54,.68,.3,1.28,.77,1.79,1.33-1.54,2.73-2.42,6.5-1.96,12.05,.21,2.63-.49,3.03-1.75,3.75-1.49,.86-3.54,2.03-3.54,6.48,0,2.77,1.21,5.29,3.47,7.32,3.38,3.01,8.69,4.38,11.84,4.03,1.56-.16,3.08,.21,4.43,.54,.98,.23,1.93,.47,2.82,.47,.75,0,1.44-.16,2.07-.63,1.35-1,1.61-2.94,1.68-4.31,.09-1.72-.35-3.15-1.33-4.22-2-2.21-5.66-2.38-8.88-2.52-1.47-.05-3.91-.16-4.29-.63-.14-.72,1.19-1.14,4.38-1.86,2.14-.49,4.57-1.03,6.78-2.12,3.59-1.79,6.04-4.4,7.06-7.5,2.54-.84,5.06-1.14,7.5-.89,4.47,.44,5.2,3.24,5.78,7.41,.33,2.38,.63,4.61,2.59,5.43,1.42,.58,2.52,.84,3.71,1.12,1.68,.4,3.59,.84,7.01,2.47,1.24,.58,2.54,.86,3.89,.86,4.12,0,8.79-2.68,13.91-8.02,1.28-1.35,1.07-2.59,.84-3.22-.79-2.05-4.03-3.01-6.8-3.22-3.17-.23-7.06,.4-8.48,2.91-.47,.82-.79,.96-.79,.96-.26-.21-1.05-2.14-.63-4.22,.14-.7,.56-1.75,1.03-2.96,1.84-4.73,4.92-12.65-1.56-17.34-2.26-1.63-4.68-2.59-6.99-3.15,3.31-3.57,5.5-7.36,6.78-11.74,2,.86,4.31,1.21,6.87,1.03,.37-.02,.77,.07,1.1,.23,1.1,.58,3.73,1.72,7.64,1.72,1.33,0,2.8-.12,4.4-.44,3.87-.77,6.85-3.38,7.97-6.97,.96-2.96,.26-6.11-1.82-8.18-2.33-2.28-5.66-.4-8.88,1.42-1,.56-2.07,1.17-3.15,1.68-1.91,.91-4.19,.44-5.69-1.17-.47-.49-1-.93-1.49-1.4,2.54-4.17,4.1-8.3,4.59-12.3,.14-1.12,.72-2.21,1.65-3.12,2.96-2.84,5.15-7.08,6.71-13,.21-.68,.98-1.65,1.72-2.59,1.51-1.91,3.22-4.05,2.59-6.45-.49-1.77-2.14-3.19-5.13-4.36-2.35-.93-4.45-.86-6.25,.19-3.22,1.89-4.5,6.55-4.89,10.14-.19,1.28-.86,2.49-2,3.59-1.51,1.44-2.68,3.4-3.43,5.83-.51,1.68-1.56,2.94-2.96,3.59-2.54,1.17-5.15,2.89-7.76,5.06-2.28-1.1-5.15-1.49-7.57-1.82-2.31-.3-5.2-.7-5.71-1.61-.14-.23-.09-.58,0-.93,2.42,.21,5.08,.65,7.81,2.47,.7,.47,1.3,.63,1.79,.63,.56,0,.96-.19,1.21-.37,1.77-1.26,1.17-5.43,.33-8.76,.02,0,.07,.02,.09,.02,2.14,.4,4.36,.82,5.83-.86,1.26-1.42,1.51-2.82,1.72-3.94,.26-1.42,.42-2.31,2.7-3.26,.7-.3,1.03-1.1,.72-1.79-.3-.7-1.12-1-1.79-.72-3.64,1.54-4.03,3.61-4.33,5.29-.19,.96-.35,1.77-1.1,2.63-.47,.51-1.82,.26-3.29-.02-1.98-.37-4.54-.84-6.97,.21,.65-1.05,2.14-1.7,4.24-1.7,.42,.05,.75-.14,1-.4,3.36-3.33,3.71-5.87,1.28-9.79-.37-.58-1.12-.82-1.75-.51-3.57,1.68-6.59,1.14-9.51,.61-2.84-.51-5.78-1.05-8.44,.98-1.98-2.49-10.77-1.05-12.28-1.19-1.35-.12-2.63,.42-3.4,1.42-11.84,15.4-6.66,25.38-.7,36.91,2.52,4.89,5.13,9.93,6.8,15.94,.16,.56,.63,.96,1.19,1h.12c.54,0,1-.3,1.24-.77,.3-.58,.58-1.12,.86-1.65,.14,4.73-.14,8.18-.82,9.74-.7,1.56-2.63,2.45-4.87,3.47-2.33,1.05-5.06,2.33-7.2,4.73-.7-.68-1.44-1.24-2.31-1.61-2.03-.86-4.12-.82-6.15-.77-.51,.02-1.05,.05-1.54,.02-1.49,0-4.17-.28-5.24-2-1.03-1.68-.23-4.12,.56-6.06,1-2.47,2.24-5.48,1.14-8.32-.89-2.28-2.82-3.52-4.68-4.73-1.19-.75-2.31-1.47-3.08-2.4-1-1.21-1.49-2.91-1.37-4.68,.12-1.63,.75-3.36,1.82-4.99,.7-1.05,2.12-2.82,3.98-3.05,.77-.07,1.33,.21,1.68,.49,.26,.21,.49,.49,.65,.79-.91,.37-1.82,1-2.19,2.1-.84,2.49,1.79,5.27,4.82,8.46,1.96,2.07,3.87,4.26,4.78,5.99,1.21,2.28,2.42,1.07,2.61-.37,.89-6.92-.28-12.61-2.98-15.19-1.21-1.14-2.7-1.63-4.33-1.54-.35-.93-.91-1.75-1.68-2.35-1.05-.84-2.35-1.21-3.68-1.05-2.82,.35-4.78,2.52-5.92,4.26-1.33,2-2.12,4.17-2.33,6.36Zm11.32-3.66c.05-.16,2.21-2.31,4.75-.05,1.61,1.42,2.42,4.82,2.4,8.97-.89-1.1-1.93-2.17-2.94-3.24-1.7-1.79-4.54-4.78-4.22-5.69Zm40.41-18.85c-3.45-.23-5.06-.49-5.94-2.87,.21-.28,.33-.63,.28-1.03-.09-.75-.77-1.26-1.54-1.17-4.61,.63-6.9-.86-7.46-2.33-.3-.75-.12-1.49,.44-1.89,1.19-.82,3.98-.21,7.53,2.96,.56,.51,1.42,.47,1.93-.09s.47-1.42-.09-1.93c-.54-.47-1.05-.89-1.54-1.26,.33-1.19,.68-2.52,.49-4.45,1.7-1.49,3.5-1.26,6.57-.7,2.77,.51,6.13,1.12,10-.33,1.03,2,.72,3.12-1.1,5.01-3.31,.14-5.73,1.58-6.55,3.91-.47,1.37-.23,2.82,.56,3.89,.02,0,.02,.02,.02,.02h.02c.19,.26,.37,.49,.63,.7,1.17,.96,2.98,.47,4.59,.05,.28-.07,.63-.16,.93-.23,.42,1.86,.63,3.75,.54,4.68-3.75-2.49-7.36-2.75-10.32-2.96Zm15.66,12.49c-4.1,2.52-7.74,3.52-11.26,4.52-2.91,.82-5.69,1.61-8.39,3.12-1.05-2.49-2.45-4.75-3.82-6.94-2.21-3.54-4.31-6.9-4.66-10.91-.05-.75-.75-1.3-1.47-1.24-.75,.05-1.3,.72-1.24,1.47,.4,4.68,2.77,8.48,5.08,12.14,1.4,2.24,2.82,4.54,3.8,7.01-1.37,1.03-2.73,2.26-4.1,3.87-.84-1.75-1.72-3.5-2.73-5.36-3.73-7.01-7.6-14.26-5.85-21.67,.19-.72-.28-1.47-1-1.63-.72-.19-1.47,.28-1.63,1-1.98,8.41,2.31,16.47,6.11,23.58,1.24,2.28,2.38,4.43,3.26,6.5-.98,1.37-1.96,2.91-2.94,4.71-1.7-4.94-3.96-9.32-6.01-13.26-5.78-11.16-10.35-19.97,.42-34,.21-.28,.61-.42,1-.37,1.68,.14,9.9-1.03,11.14,.89,.14,1.17,.05,2.05-.14,2.87-3.84-2-6.18-.86-6.92-.35-1.63,1.12-2.19,3.17-1.44,5.13,.84,2.14,3.36,4.22,7.97,4.22,.19,0,.42-.05,.63-.05,1.28,3.77,4.01,4.57,6.9,4.85-.16,.93-.05,1.77,.35,2.49,1.19,2.1,4.22,2.52,7.74,2.98,4.96,.68,8.6,1.42,9.2,4.43Zm11.91,6.34c-2.56-2.07-5.59-3.84-9.06-5.41,.33-1.65-.79-3.5-1.82-4.54,2.26-1.82,4.47-3.26,6.62-4.24,2.1-.98,3.68-2.84,4.43-5.27,.61-2,1.49-3.52,2.7-4.66,1.58-1.51,2.56-3.31,2.82-5.2,.33-2.45,1.26-6.76,3.66-8.16,1.05-.61,2.31-.61,3.87,0,2,.79,3.24,1.7,3.47,2.54,.28,1.07-.98,2.63-2.07,4.03-.96,1.19-1.84,2.31-2.21,3.52-1.42,5.45-3.38,9.3-5.97,11.77-1.4,1.33-2.28,3.03-2.49,4.78-.42,3.47-1.77,7.11-3.94,10.84Zm-54.62,48.33c-.98-11.67,4.17-14.03,9.13-16.31,2.63-1.21,5.1-2.35,6.22-4.87,1.1-2.47,1.35-7.57,.82-15.15,5.27-8.11,10.16-9.51,16.08-11.19,3.31-.93,6.99-1.96,11.09-4.31,5.41,2.26,9.62,5.03,12.84,8.51,2.31,2.49,5.85,3.22,8.85,1.77,1.14-.54,2.26-1.17,3.33-1.77,2.33-1.33,4.75-2.68,5.62-1.84,1.05,1.05,1.91,3.03,1.14,5.41-.4,1.28-1.77,4.31-5.9,5.13-5.5,1.12-9.02-.35-10.28-1.03-.79-.4-1.65-.58-2.52-.54-3.82,.28-6.69-.72-8.83-3.05-1.44-1.54-3.71-1.93-5.48-.96-6.66,3.66-12.3,3.08-17.29-1.82-.54-.51-1.4-.51-1.93,.02-.51,.54-.51,1.4,.02,1.93,5.87,5.78,12.77,6.55,20.51,2.26,.65-.37,1.56-.21,2.14,.42,.51,.56,1.1,1.05,1.68,1.49-1.26,4.75-3.71,8.81-7.6,12.58-1-.12-1.93-.14-2.77-.14,2.82-2.68,4.94-5.99,6.29-9.88,.26-.7-.12-1.47-.84-1.72-.72-.26-1.49,.12-1.75,.84-2.05,5.97-5.92,10.25-11.79,13.07-.68,.33-.96,1.14-.63,1.82,.23,.49,.72,.77,1.24,.77,.19,0,.4-.05,.58-.14,1.05-.51,2.03-1.1,2.98-1.7,.61-.09,8.97-1.58,15.36,3.01,4.4,3.19,2.8,8.51,.61,14.14-.54,1.33-.98,2.47-1.17,3.4-.58,2.89,.3,6.5,2.49,7.32,.68,.26,2.42,.56,3.98-2.17,.65-1.14,3.26-1.77,6.15-1.51,2.73,.23,4.1,1.12,4.22,1.44,0,0-.05,.12-.26,.35-5.9,6.13-10.84,8.34-14.66,6.55-3.68-1.75-7.71-3.38-10.84-3.64-.54-.05-.75-1.91-.93-3.29-.49-3.61-1.26-9.04-8.2-9.76-2.38-.26-4.82-.05-7.25,.58,.12-3.59-1.54-7.25-4.68-10.18-.56-.51-1.42-.49-1.93,.07s-.49,1.42,.07,1.93c2.84,2.66,4.19,5.94,3.75,9.02-.44,3.01-2.52,5.52-6.01,7.25-1.91,.96-4.17,1.44-6.15,1.89-3.33,.75-7.11,1.58-6.45,5.06,.49,2.56,3.57,2.7,6.85,2.84,2.7,.12,5.76,.26,6.99,1.63,.47,.54,.68,1.26,.63,2.24-.09,1.82-.51,2.21-.58,2.26-.35,.26-1.54-.05-2.61-.3-1.51-.37-3.38-.84-5.41-.61-2.56,.3-6.97-.91-9.72-3.36-1.68-1.51-2.54-3.29-2.54-5.29,0-2.87,.91-3.38,2.17-4.1,1.47-.84,3.47-1.98,3.15-6.38Z"/>
        <path class="cls-1" d="M100.46,213.72c.26,.42,.72,.68,1.19,.68,.23,0,.47-.07,.68-.19,5.66-3.26,7.43-7.01,5.29-11.14-.35-.68-1.17-.93-1.84-.58s-.93,1.17-.58,1.84c.96,1.82,1.33,4.31-4.24,7.5-.65,.37-.89,1.21-.49,1.89Z"/>
        <path class="cls-1" d="M118.48,133.33c.33-.68,.12-1.44-.56-1.77l-.16-.09c-.68-.33-1.49-.02-1.82,.65s-.02,1.49,.65,1.82c.19,.09,.42,.14,.63,.14,.54,0,1.05-.26,1.26-.75Z"/>
      </g>
    </g>
  </g>
</svg>