<?xml version="1.0" encoding="UTF-8"?>
<svg id="Layer_2" data-name="Layer 2" xmlns="http://www.w3.org/2000/svg" viewBox="0 0 1122.5 332.18">
  <defs>
    <style>
      .cls-1 {
        fill: #917839;
      }
    </style>
  </defs>
  <g id="Layer_1-2" data-name="Layer 1">
    <g>
      <g>
        <path class="cls-1" d="M436.74,271.17c-.3,0-.53-.09-.68-.26-.16-.18-.24-.4-.24-.67v-26.38c0-.3,.08-.53,.24-.7,.16-.18,.39-.26,.68-.26h10.27c1.99,0,3.72,.32,5.19,.97,1.47,.65,2.61,1.61,3.41,2.89,.81,1.28,1.22,2.87,1.22,4.79s-.41,3.5-1.22,4.77c-.8,1.26-1.95,2.22-3.41,2.87-1.47,.64-3.2,.97-5.19,.97h-7.15v10.1c0,.27-.09,.49-.26,.67-.17,.18-.41,.26-.7,.26h-2.14Zm3.07-14.43h6.99c1.99,0,3.49-.44,4.48-1.33,.99-.89,1.49-2.18,1.49-3.88s-.49-2.97-1.45-3.88c-.97-.91-2.48-1.37-4.52-1.37h-6.99v10.46Z"/>
        <path class="cls-1" d="M475.62,271.17c-.3,0-.53-.09-.69-.26s-.24-.4-.24-.67v-26.38c0-.3,.08-.53,.24-.7s.39-.26,.69-.26h9.86c3.04,0,5.45,.72,7.23,2.14,1.78,1.43,2.67,3.54,2.67,6.34,0,2.08-.52,3.77-1.55,5.07-1.04,1.31-2.45,2.22-4.22,2.73l6.22,10.75c.08,.16,.12,.31,.12,.45,0,.22-.09,.4-.26,.57-.17,.16-.37,.24-.59,.24h-1.94c-.46,0-.8-.12-1.01-.37-.21-.24-.4-.48-.57-.72l-5.85-10.27h-7.08v10.42c0,.27-.09,.49-.26,.67-.17,.18-.41,.26-.7,.26h-2.06Zm3.03-14.79h6.67c2.02,0,3.53-.42,4.52-1.27,1-.85,1.5-2.11,1.5-3.78s-.49-2.89-1.48-3.76c-.98-.86-2.49-1.3-4.54-1.3h-6.67v10.1Z"/>
        <path class="cls-1" d="M515.01,271.17c-.3,0-.53-.09-.68-.26-.16-.18-.24-.4-.24-.67v-26.38c0-.3,.08-.53,.24-.7,.16-.18,.39-.26,.68-.26h16.69c.29,0,.53,.09,.68,.26s.24,.41,.24,.7v1.54c0,.3-.09,.53-.24,.68-.16,.16-.39,.24-.68,.24h-13.74v8.85h12.85c.3,0,.53,.09,.69,.26,.16,.17,.24,.41,.24,.7v1.5c0,.27-.08,.49-.24,.66s-.39,.26-.69,.26h-12.85v9.17h14.07c.3,0,.52,.08,.68,.24,.16,.16,.24,.39,.24,.69v1.57c0,.27-.08,.49-.24,.67s-.39,.26-.68,.26h-17.01Z"/>
        <path class="cls-1" d="M552.42,271.17c-.27,0-.49-.09-.66-.26-.18-.18-.26-.4-.26-.67v-26.38c0-.3,.09-.53,.26-.7,.17-.18,.39-.26,.66-.26h2.02c.33,0,.57,.08,.73,.24,.16,.16,.26,.3,.28,.4l8.57,16.32,8.6-16.32c.06-.11,.16-.24,.31-.4,.14-.16,.38-.24,.7-.24h1.98c.3,0,.53,.09,.71,.26,.17,.18,.26,.41,.26,.7v26.38c0,.27-.09,.49-.26,.67-.18,.18-.41,.26-.71,.26h-1.98c-.27,0-.49-.09-.66-.26-.18-.18-.26-.4-.26-.67v-19.87l-6.75,13.17c-.11,.27-.28,.47-.49,.62-.22,.14-.49,.22-.81,.22h-1.26c-.35,0-.62-.08-.83-.22-.2-.15-.37-.36-.5-.62l-6.75-13.17v19.87c0,.27-.09,.49-.26,.67-.18,.18-.4,.26-.67,.26h-1.98Z"/>
        <path class="cls-1" d="M597.43,271.17c-.3,0-.53-.09-.69-.26s-.24-.4-.24-.67v-26.42c0-.27,.08-.49,.24-.66s.39-.26,.69-.26h2.14c.27,0,.49,.09,.66,.26,.18,.18,.26,.39,.26,.66v26.42c0,.27-.09,.49-.26,.67-.17,.18-.39,.26-.66,.26h-2.14Z"/>
        <path class="cls-1" d="M631.13,271.57c-2.26,0-4.21-.4-5.84-1.21-1.63-.81-2.88-2.04-3.76-3.7-.87-1.66-1.31-3.79-1.31-6.41v-16.41c0-.3,.08-.53,.24-.7,.16-.18,.39-.26,.68-.26h2.06c.29,0,.53,.09,.7,.26s.26,.41,.26,.7v16.49c0,2.64,.62,4.6,1.86,5.86,1.24,1.27,2.93,1.9,5.09,1.9s3.81-.63,5.07-1.9c1.25-1.26,1.87-3.22,1.87-5.86v-16.49c0-.3,.09-.53,.26-.7,.18-.18,.4-.26,.67-.26h2.1c.27,0,.49,.09,.67,.26,.17,.18,.26,.41,.26,.7v16.41c0,2.61-.44,4.75-1.32,6.41-.87,1.66-2.12,2.89-3.74,3.7-1.62,.81-3.57,1.21-5.86,1.21Z"/>
        <path class="cls-1" d="M662.64,271.17c-.27,0-.49-.09-.67-.26-.17-.18-.26-.4-.26-.67v-26.38c0-.3,.09-.53,.26-.7,.18-.18,.4-.26,.67-.26h2.02c.32,0,.57,.08,.73,.24s.25,.3,.28,.4l8.56,16.32,8.61-16.32c.05-.11,.15-.24,.3-.4,.14-.16,.38-.24,.71-.24h1.97c.3,0,.53,.09,.71,.26,.17,.18,.26,.41,.26,.7v26.38c0,.27-.09,.49-.26,.67-.18,.18-.41,.26-.71,.26h-1.97c-.28,0-.49-.09-.67-.26-.17-.18-.26-.4-.26-.67v-19.87l-6.75,13.17c-.11,.27-.27,.47-.49,.62-.21,.14-.49,.22-.8,.22h-1.26c-.35,0-.62-.08-.83-.22-.2-.15-.37-.36-.51-.62l-6.75-13.17v19.87c0,.27-.09,.49-.26,.67-.17,.18-.39,.26-.66,.26h-1.98Z"/>
        <path class="cls-1" d="M341.43,332.18c-2.35,0-4.31-.36-5.91-1.07-1.58-.71-2.8-1.64-3.66-2.79-.85-1.14-1.3-2.36-1.35-3.66,0-.21,.09-.41,.26-.59,.18-.17,.39-.26,.63-.26h2.06c.32,0,.57,.09,.73,.24,.16,.16,.26,.36,.32,.57,.13,.65,.47,1.29,.99,1.92,.53,.63,1.27,1.16,2.22,1.58,.95,.41,2.19,.62,3.7,.62,2.31,0,4.02-.41,5.11-1.23,1.09-.82,1.64-1.92,1.64-3.29,0-.95-.29-1.7-.87-2.28-.59-.58-1.47-1.1-2.65-1.56-1.18-.45-2.72-.95-4.61-1.49-1.96-.57-3.59-1.18-4.89-1.86-1.3-.67-2.26-1.51-2.89-2.51-.63-.99-.95-2.26-.95-3.79,0-1.45,.39-2.76,1.17-3.9,.78-1.14,1.9-2.05,3.37-2.73,1.47-.67,3.25-1.01,5.35-1.01,1.67,0,3.13,.22,4.38,.66,1.26,.44,2.3,1.04,3.14,1.78,.83,.74,1.47,1.54,1.89,2.39,.43,.85,.66,1.68,.69,2.49,0,.18-.07,.37-.2,.55-.13,.17-.35,.26-.64,.26h-2.14c-.19,0-.38-.05-.59-.16s-.36-.31-.47-.61c-.16-1.1-.78-2.03-1.85-2.79-1.08-.76-2.48-1.13-4.2-1.13s-3.18,.34-4.27,1.01c-1.09,.68-1.63,1.73-1.63,3.16,0,.91,.25,1.68,.76,2.28s1.32,1.14,2.43,1.59c1.1,.46,2.54,.95,4.32,1.46,2.16,.59,3.92,1.22,5.29,1.87,1.37,.66,2.39,1.49,3.05,2.47,.66,.99,.99,2.24,.99,3.78,0,1.7-.45,3.14-1.33,4.34-.89,1.2-2.14,2.12-3.74,2.75-1.6,.63-3.5,.95-5.68,.95Z"/>
        <path class="cls-1" d="M371.33,331.78c-.3,0-.53-.09-.68-.26-.16-.18-.25-.4-.25-.67v-26.38c0-.3,.09-.53,.25-.7,.16-.18,.39-.26,.68-.26h2.06c.3,0,.53,.09,.71,.26,.17,.18,.26,.41,.26,.7v11.15h13.9v-11.15c0-.3,.09-.53,.26-.7,.18-.18,.39-.26,.67-.26h2.06c.3,0,.53,.09,.7,.26,.18,.18,.26,.41,.26,.7v26.38c0,.27-.09,.49-.26,.67-.17,.18-.41,.26-.7,.26h-2.06c-.28,0-.49-.09-.67-.26-.17-.18-.26-.4-.26-.67v-11.59h-13.9v11.59c0,.27-.09,.49-.26,.67-.18,.18-.41,.26-.71,.26h-2.06Z"/>
        <path class="cls-1" d="M422.28,332.18c-2.3,0-4.26-.39-5.91-1.19-1.64-.8-2.91-2.02-3.79-3.68-.89-1.66-1.39-3.74-1.49-6.24-.03-1.19-.04-2.33-.04-3.42s.01-2.22,.04-3.41c.11-2.48,.62-4.54,1.55-6.2,.93-1.66,2.22-2.89,3.88-3.72,1.66-.82,3.58-1.23,5.76-1.23s4.14,.41,5.79,1.23c1.66,.82,2.95,2.06,3.9,3.72,.94,1.66,1.45,3.72,1.54,6.2,.05,1.19,.08,2.33,.08,3.41s-.03,2.23-.08,3.42c-.09,2.51-.58,4.58-1.48,6.24-.9,1.66-2.18,2.88-3.82,3.68-1.64,.8-3.62,1.19-5.93,1.19Zm0-3.43c2.07,0,3.76-.62,5.06-1.86,1.31-1.24,2.02-3.24,2.12-6.02,.05-1.21,.08-2.3,.08-3.26s-.03-2.03-.08-3.21c-.05-1.86-.4-3.37-1.03-4.52-.63-1.16-1.47-2.01-2.53-2.54-1.05-.54-2.26-.81-3.63-.81s-2.51,.27-3.56,.81c-1.05,.54-1.89,1.39-2.53,2.54-.64,1.16-.99,2.66-1.07,4.52-.03,1.18-.04,2.26-.04,3.21s.01,2.05,.04,3.26c.11,2.78,.82,4.78,2.14,6.02,1.32,1.24,2.99,1.86,5.01,1.86Z"/>
        <path class="cls-1" d="M462.56,332.18c-2.29,0-4.25-.39-5.9-1.19-1.64-.8-2.91-2.02-3.8-3.68-.89-1.66-1.39-3.74-1.49-6.24-.03-1.19-.04-2.33-.04-3.42s.01-2.22,.04-3.41c.11-2.48,.62-4.54,1.56-6.2,.93-1.66,2.22-2.89,3.88-3.72,1.65-.82,3.57-1.23,5.75-1.23s4.14,.41,5.79,1.23c1.66,.82,2.96,2.06,3.91,3.72,.94,1.66,1.45,3.72,1.53,6.2,.05,1.19,.08,2.33,.08,3.41s-.03,2.23-.08,3.42c-.08,2.51-.57,4.58-1.47,6.24s-2.18,2.88-3.82,3.68c-1.64,.8-3.62,1.19-5.94,1.19Zm0-3.43c2.07,0,3.76-.62,5.07-1.86,1.3-1.24,2.01-3.24,2.12-6.02,.06-1.21,.09-2.3,.09-3.26s-.03-2.03-.09-3.21c-.05-1.86-.39-3.37-1.03-4.52s-1.47-2.01-2.53-2.54-2.26-.81-3.64-.81-2.51,.27-3.56,.81c-1.05,.54-1.89,1.39-2.53,2.54-.63,1.16-.99,2.66-1.07,4.52-.03,1.18-.05,2.26-.05,3.21s.01,2.05,.05,3.26c.11,2.78,.82,4.78,2.14,6.02,1.32,1.24,2.99,1.86,5.01,1.86Z"/>
        <path class="cls-1" d="M499.21,331.78c-.27,0-.49-.09-.67-.26-.17-.18-.26-.4-.26-.67v-23.75h-7.75c-.27,0-.49-.09-.67-.26s-.26-.4-.26-.67v-1.7c0-.3,.09-.53,.26-.7s.4-.26,.67-.26h19.47c.3,0,.53,.09,.71,.26,.17,.18,.26,.41,.26,.7v1.7c0,.27-.09,.49-.26,.67-.18,.18-.41,.26-.71,.26h-7.72v23.75c0,.27-.09,.49-.26,.67-.18,.18-.41,.26-.71,.26h-2.1Z"/>
        <path class="cls-1" d="M529.35,331.78c-.3,0-.53-.09-.69-.26-.16-.18-.24-.4-.24-.67v-26.42c0-.27,.08-.49,.24-.66,.16-.18,.39-.26,.69-.26h2.14c.27,0,.49,.09,.67,.26,.17,.18,.26,.39,.26,.66v26.42c0,.27-.09,.49-.26,.67-.18,.18-.4,.26-.67,.26h-2.14Z"/>
        <path class="cls-1" d="M553.31,331.78c-.3,0-.53-.09-.68-.26-.16-.18-.24-.4-.24-.67v-26.38c0-.3,.08-.53,.24-.7,.16-.18,.39-.26,.68-.26h1.86c.32,0,.57,.07,.73,.22,.16,.14,.25,.26,.28,.34l13.42,20.6v-20.2c0-.3,.09-.53,.24-.7,.16-.18,.39-.26,.69-.26h1.93c.3,0,.54,.09,.71,.26,.18,.18,.26,.41,.26,.7v26.34c0,.27-.09,.5-.26,.69-.17,.18-.39,.28-.66,.28h-1.94c-.3,0-.52-.09-.67-.24-.14-.16-.25-.27-.3-.32l-13.37-20.41v20.04c0,.27-.09,.49-.26,.67-.18,.18-.41,.26-.71,.26h-1.94Z"/>
        <path class="cls-1" d="M603.61,332.18c-2.37,0-4.39-.44-6.04-1.33-1.66-.89-2.93-2.14-3.79-3.76-.88-1.62-1.37-3.51-1.48-5.7-.03-1.18-.04-2.45-.04-3.78s.01-2.6,.04-3.81c.11-2.18,.6-4.07,1.48-5.66,.87-1.59,2.14-2.83,3.81-3.72,1.67-.89,3.68-1.33,6.02-1.33,1.91,0,3.56,.27,4.97,.8,1.4,.54,2.55,1.22,3.46,2.05,.9,.82,1.57,1.68,2.02,2.56s.68,1.67,.7,2.34c.03,.24-.04,.44-.2,.59-.16,.15-.38,.22-.65,.22h-2.38c-.27,0-.47-.05-.59-.16-.12-.11-.24-.3-.35-.57-.24-.7-.64-1.38-1.19-2.06-.55-.67-1.29-1.23-2.22-1.68-.93-.44-2.12-.66-3.57-.66-2.13,0-3.85,.58-5.16,1.74-1.3,1.16-2.01,3.07-2.12,5.73-.08,2.4-.08,4.8,0,7.19,.11,2.7,.82,4.63,2.14,5.8s3.04,1.76,5.18,1.76c1.43,0,2.7-.26,3.81-.79,1.12-.53,2-1.34,2.65-2.45,.64-1.1,.97-2.5,.97-4.2v-1.7h-6.06c-.27,0-.49-.09-.67-.26-.18-.17-.26-.41-.26-.7v-1.3c0-.3,.09-.53,.26-.7s.4-.26,.67-.26h9.13c.3,0,.53,.09,.69,.26,.16,.18,.24,.41,.24,.7v3.88c0,2.21-.45,4.14-1.35,5.78-.9,1.64-2.22,2.91-3.94,3.81-1.72,.91-3.79,1.35-6.18,1.35Z"/>
        <path class="cls-1" d="M657.55,331.78c-.3,0-.53-.09-.69-.26s-.24-.4-.24-.67v-26.38c0-.3,.08-.53,.24-.7s.39-.26,.69-.26h9.17c2.78,0,5.01,.42,6.71,1.25,1.7,.84,2.93,2.07,3.72,3.7,.78,1.62,1.18,3.63,1.21,6,.03,1.21,.04,2.28,.04,3.19s-.01,1.97-.04,3.16c-.05,2.47-.47,4.53-1.24,6.16-.76,1.62-1.98,2.84-3.63,3.64-1.66,.79-3.85,1.19-6.57,1.19h-9.37Zm3.03-3.43h6.14c1.86,0,3.34-.26,4.45-.77,1.1-.51,1.91-1.33,2.41-2.47,.5-1.13,.76-2.62,.79-4.48,.05-.81,.08-1.51,.08-2.12v-1.82c0-.61-.03-1.3-.08-2.08-.06-2.62-.68-4.55-1.86-5.8-1.19-1.26-3.18-1.88-5.98-1.88h-5.94v21.42Z"/>
        <path class="cls-1" d="M695,331.78c-.22,0-.4-.09-.57-.24-.16-.16-.24-.35-.24-.57,0-.14,.01-.28,.04-.45l10.02-26.14c.11-.27,.26-.49,.45-.64,.18-.16,.47-.24,.85-.24h2.75c.35,0,.62,.08,.82,.24,.2,.16,.36,.37,.47,.64l9.98,26.14c.05,.16,.08,.31,.08,.45,0,.22-.08,.4-.24,.57s-.35,.24-.57,.24h-2.06c-.32,0-.56-.09-.71-.24-.14-.16-.24-.31-.3-.45l-2.22-5.73h-13.25l-2.22,5.73c-.03,.14-.12,.28-.28,.45-.16,.16-.4,.24-.73,.24h-2.06Zm6.46-9.9h10.91l-5.45-14.34-5.46,14.34Z"/>
        <path class="cls-1" d="M742.48,331.78c-.26,0-.49-.09-.66-.26s-.26-.4-.26-.67v-9.54l-9.74-16.48c-.03-.09-.05-.16-.08-.24s-.04-.18-.04-.28c0-.22,.08-.41,.24-.57,.16-.16,.35-.24,.57-.24h2.1c.24,0,.46,.06,.65,.18,.18,.12,.32,.29,.4,.5l7.88,13.09,7.88-13.09c.14-.21,.29-.38,.47-.5,.18-.12,.38-.18,.62-.18h2.06c.24,0,.44,.08,.61,.24s.24,.35,.24,.57c0,.11-.01,.2-.04,.28s-.07,.16-.12,.24l-9.69,16.48v9.54c0,.27-.09,.49-.26,.67-.18,.18-.41,.26-.71,.26h-2.1Z"/>
        <path class="cls-1" d="M781.23,332.18c-2.34,0-4.31-.36-5.89-1.07-1.59-.71-2.81-1.64-3.66-2.79-.85-1.14-1.3-2.36-1.35-3.66,0-.21,.09-.41,.26-.59s.38-.26,.62-.26h2.06c.32,0,.57,.09,.73,.24,.16,.16,.27,.36,.32,.57,.13,.65,.46,1.29,.99,1.92s1.27,1.16,2.22,1.58c.96,.41,2.19,.62,3.7,.62,2.32,0,4.02-.41,5.12-1.23,1.09-.82,1.63-1.92,1.63-3.29,0-.95-.29-1.7-.87-2.28-.58-.58-1.46-1.1-2.64-1.56-1.18-.45-2.72-.95-4.6-1.49-1.97-.57-3.6-1.18-4.89-1.86-1.29-.67-2.26-1.51-2.89-2.51-.64-.99-.95-2.26-.95-3.79,0-1.45,.39-2.76,1.17-3.9,.78-1.14,1.91-2.05,3.38-2.73,1.47-.67,3.25-1.01,5.35-1.01,1.67,0,3.13,.22,4.38,.66,1.26,.44,2.3,1.04,3.13,1.78,.84,.74,1.47,1.54,1.9,2.39,.43,.85,.66,1.68,.69,2.49,0,.18-.07,.37-.2,.55-.14,.17-.35,.26-.64,.26h-2.14c-.19,0-.38-.05-.59-.16s-.36-.31-.47-.61c-.16-1.1-.78-2.03-1.85-2.79-1.08-.76-2.48-1.13-4.2-1.13s-3.17,.34-4.26,1.01c-1.09,.68-1.64,1.73-1.64,3.16,0,.91,.26,1.68,.77,2.28,.51,.61,1.32,1.14,2.42,1.59,1.1,.46,2.54,.95,4.33,1.46,2.15,.59,3.92,1.22,5.29,1.87,1.37,.66,2.39,1.49,3.05,2.47,.66,.99,.99,2.24,.99,3.78,0,1.7-.45,3.14-1.33,4.34s-2.14,2.12-3.74,2.75c-1.6,.63-3.5,.95-5.68,.95Z"/>
      </g>
      <g>
        <path class="cls-1" d="M2.21,183.25c-.71,0-1.25-.2-1.64-.62-.38-.41-.57-.94-.57-1.58v-62.69c0-.7,.19-1.26,.57-1.68,.39-.41,.93-.62,1.64-.62H24c6.59,0,11.9,.99,15.94,2.98,4.03,1.98,6.97,4.91,8.83,8.79,1.85,3.87,2.81,8.62,2.88,14.26,.06,2.88,.09,5.41,.09,7.59s-.03,4.67-.09,7.49c-.13,5.89-1.1,10.77-2.93,14.65-1.83,3.87-4.71,6.75-8.65,8.64-3.93,1.89-9.13,2.83-15.6,2.83H2.21Zm7.19-8.16h14.6c4.42,0,7.93-.61,10.56-1.82,2.62-1.22,4.52-3.17,5.71-5.86,1.18-2.69,1.82-6.24,1.87-10.65,.13-1.92,.19-3.6,.19-5.04v-4.32c0-1.44-.06-3.09-.19-4.95-.12-6.21-1.6-10.8-4.41-13.78-2.82-2.98-7.56-4.46-14.21-4.46H9.4v50.88Z"/>
        <path class="cls-1" d="M95.24,183.25c-.7,0-1.24-.2-1.63-.62-.38-.41-.57-.94-.57-1.58v-62.69c0-.7,.19-1.26,.57-1.68,.39-.41,.93-.62,1.63-.62h23.43c7.23,0,12.96,1.7,17.18,5.09,4.23,3.39,6.34,8.42,6.34,15.08,0,4.93-1.24,8.94-3.7,12.05-2.47,3.11-5.81,5.27-10.04,6.48l14.79,25.54c.19,.38,.28,.74,.28,1.05,0,.51-.2,.96-.62,1.35-.41,.38-.88,.57-1.39,.57h-4.61c-1.09,0-1.89-.29-2.4-.86-.51-.58-.96-1.15-1.35-1.73l-13.92-24.38h-16.8v24.77c0,.64-.21,1.17-.62,1.58-.42,.42-.98,.62-1.68,.62h-4.9Zm7.2-35.14h15.84c4.81,0,8.38-1.01,10.75-3.03,2.37-2.02,3.56-5.01,3.56-8.98s-1.17-6.88-3.51-8.93c-2.34-2.05-5.94-3.07-10.8-3.07h-15.84v24.01Z"/>
        <path class="cls-1" d="M185.02,183.25c-.7,0-1.24-.2-1.63-.62-.38-.41-.57-.94-.57-1.58v-62.79c0-.64,.19-1.17,.57-1.58,.39-.41,.93-.62,1.63-.62h5.09c.64,0,1.17,.21,1.58,.62,.41,.42,.62,.95,.62,1.58v62.79c0,.64-.21,1.17-.62,1.58-.41,.42-.94,.62-1.58,.62h-5.09Z"/>
        <path class="cls-1" d="M255.87,183.25c-.96,0-1.71-.22-2.26-.67-.54-.45-.97-1.06-1.3-1.82l-21.41-61.74c-.12-.38-.19-.74-.19-1.06,0-.51,.19-.96,.58-1.34,.38-.38,.83-.58,1.34-.58h4.99c.77,0,1.36,.21,1.78,.62,.41,.42,.65,.79,.72,1.1l18.81,54.44,18.82-54.44c.13-.32,.38-.69,.77-1.1,.39-.41,.96-.62,1.73-.62h4.99c.51,0,.97,.19,1.39,.58,.41,.38,.62,.83,.62,1.34,0,.32-.07,.67-.2,1.06l-21.5,61.74c-.26,.76-.66,1.37-1.2,1.82-.55,.45-1.3,.67-2.26,.67h-6.24Z"/>
        <path class="cls-1" d="M327.79,183.25c-.7,0-1.25-.2-1.63-.62-.39-.41-.58-.94-.58-1.58v-62.69c0-.7,.19-1.26,.58-1.68,.38-.41,.93-.62,1.63-.62h39.65c.7,0,1.25,.21,1.63,.62,.39,.42,.58,.98,.58,1.68v3.65c0,.7-.19,1.25-.58,1.63-.38,.38-.93,.58-1.63,.58h-32.64v21.03h30.53c.7,0,1.25,.21,1.63,.62,.38,.42,.58,.98,.58,1.68v3.55c0,.64-.2,1.17-.58,1.58-.38,.41-.93,.62-1.63,.62h-30.53v21.79h33.41c.7,0,1.25,.19,1.63,.58,.38,.38,.58,.93,.58,1.63v3.74c0,.64-.2,1.17-.58,1.58-.38,.42-.93,.62-1.63,.62h-40.42Z"/>
        <path class="cls-1" d="M412.86,183.25c-.7,0-1.24-.2-1.63-.62-.38-.41-.57-.94-.57-1.58v-62.69c0-.7,.19-1.26,.57-1.68,.39-.41,.93-.62,1.63-.62h4.42c.77,0,1.34,.17,1.73,.53,.38,.35,.61,.62,.67,.82l31.87,48.97v-48.01c0-.7,.2-1.26,.58-1.68,.38-.41,.93-.62,1.63-.62h4.61c.7,0,1.26,.21,1.68,.62,.42,.42,.63,.98,.63,1.68v62.6c0,.64-.21,1.18-.63,1.63-.41,.45-.94,.67-1.58,.67h-4.61c-.7,0-1.24-.19-1.58-.57-.36-.39-.59-.64-.72-.77l-31.78-48.49v47.62c0,.64-.21,1.17-.62,1.58-.41,.42-.98,.62-1.68,.62h-4.61Z"/>
        <path class="cls-1" d="M578.77,184.21c-5.89,0-10.77-1.09-14.65-3.26-3.87-2.18-6.8-5.21-8.79-9.12-1.98-3.91-3.07-8.45-3.26-13.63-.07-2.62-.1-5.44-.1-8.45s.03-5.89,.1-8.64c.19-5.19,1.28-9.73,3.26-13.64,1.99-3.9,4.91-6.94,8.79-9.12,3.87-2.17,8.75-3.26,14.65-3.26,4.41,0,8.29,.61,11.61,1.82,3.33,1.22,6.1,2.85,8.31,4.9,2.21,2.05,3.89,4.34,5.04,6.86,1.15,2.53,1.79,5.14,1.92,7.83,.07,.58-.11,1.06-.53,1.44-.42,.38-.91,.58-1.49,.58h-5.28c-.58,0-1.07-.16-1.49-.48-.42-.32-.72-.89-.91-1.73-1.09-4.99-3.12-8.42-6.1-10.28-2.97-1.85-6.71-2.78-11.19-2.78-5.12,0-9.19,1.46-12.19,4.37-3.01,2.91-4.64,7.57-4.9,13.97-.19,5.25-.19,10.63,0,16.13,.26,6.4,1.89,11.05,4.9,13.97,3.01,2.91,7.07,4.37,12.19,4.37,4.48,0,8.21-.93,11.19-2.78,2.98-1.85,5.01-5.28,6.1-10.27,.19-.84,.49-1.41,.91-1.73,.41-.32,.91-.48,1.49-.48h5.28c.58,0,1.07,.19,1.49,.57,.41,.39,.59,.87,.53,1.44-.13,2.69-.77,5.3-1.92,7.83-1.15,2.53-2.83,4.82-5.04,6.87-2.2,2.05-4.98,3.68-8.31,4.9-3.33,1.22-7.2,1.82-11.61,1.82Z"/>
        <path class="cls-1" d="M647.61,183.25c-.71,0-1.25-.2-1.63-.62-.39-.41-.58-.94-.58-1.58v-62.79c0-.64,.19-1.17,.58-1.58,.38-.41,.92-.62,1.63-.62h5.09c.64,0,1.15,.21,1.53,.62,.39,.42,.58,.95,.58,1.58v56.65h31.97c.7,0,1.24,.21,1.63,.62,.38,.41,.57,.97,.57,1.68v3.84c0,.64-.19,1.17-.57,1.58-.39,.42-.93,.62-1.63,.62h-39.17Z"/>
        <path class="cls-1" d="M721.83,183.25c-.51,0-.96-.19-1.35-.57-.38-.39-.57-.84-.57-1.35,0-.32,.03-.67,.09-1.05l23.81-62.12c.26-.64,.61-1.15,1.06-1.54,.45-.38,1.12-.58,2.01-.58h6.53c.84,0,1.49,.19,1.97,.58,.49,.38,.85,.9,1.1,1.54l23.72,62.12c.12,.38,.19,.74,.19,1.05,0,.51-.19,.96-.58,1.35s-.83,.57-1.34,.57h-4.9c-.77,0-1.33-.19-1.68-.57-.36-.39-.59-.74-.72-1.06l-5.28-13.63h-31.49l-5.27,13.63c-.07,.32-.29,.67-.68,1.06s-.96,.57-1.73,.57h-4.89Zm15.36-23.52h25.92l-12.96-34.08-12.96,34.08Z"/>
        <path class="cls-1" d="M830.81,183.25c-.64,0-1.16-.2-1.58-.62s-.62-.94-.62-1.58v-22.66l-23.14-39.17c-.07-.19-.13-.38-.19-.58-.07-.19-.1-.41-.1-.67,0-.51,.19-.96,.57-1.34,.39-.38,.84-.58,1.35-.58h4.99c.58,0,1.09,.14,1.54,.43s.77,.69,.96,1.2l18.72,31.11,18.72-31.11c.32-.51,.68-.91,1.1-1.2,.41-.29,.91-.43,1.49-.43h4.9c.57,0,1.06,.19,1.44,.58,.38,.38,.58,.83,.58,1.34,0,.26-.04,.48-.1,.67-.07,.19-.16,.38-.29,.58l-23.04,39.17v22.66c0,.64-.21,1.17-.62,1.58s-.97,.62-1.68,.62h-4.99Z"/>
        <path class="cls-1" d="M971.47,184.21c-5.89,0-10.77-1.09-14.64-3.26-3.87-2.18-6.8-5.21-8.79-9.12-1.99-3.91-3.07-8.45-3.26-13.63-.07-2.62-.1-5.44-.1-8.45s.03-5.89,.1-8.64c.19-5.19,1.28-9.73,3.26-13.64,1.99-3.9,4.91-6.94,8.79-9.12,3.87-2.17,8.75-3.26,14.64-3.26,4.42,0,8.29,.61,11.62,1.82,3.33,1.22,6.1,2.85,8.31,4.9,2.21,2.05,3.89,4.34,5.04,6.86,1.16,2.53,1.8,5.14,1.92,7.83,.07,.58-.11,1.06-.53,1.44-.41,.38-.91,.58-1.49,.58h-5.28c-.58,0-1.07-.16-1.49-.48-.42-.32-.72-.89-.91-1.73-1.09-4.99-3.12-8.42-6.1-10.28-2.98-1.85-6.71-2.78-11.19-2.78-5.12,0-9.19,1.46-12.19,4.37-3.01,2.91-4.64,7.57-4.9,13.97-.19,5.25-.19,10.63,0,16.13,.26,6.4,1.89,11.05,4.9,13.97,3.01,2.91,7.07,4.37,12.19,4.37,4.48,0,8.21-.93,11.19-2.78s5-5.28,6.1-10.27c.19-.84,.49-1.41,.91-1.73,.41-.32,.91-.48,1.49-.48h5.28c.58,0,1.07,.19,1.49,.57,.42,.39,.59,.87,.53,1.44-.12,2.69-.76,5.3-1.92,7.83-1.14,2.53-2.83,4.82-5.04,6.87-2.21,2.05-4.98,3.68-8.31,4.9-3.33,1.22-7.2,1.82-11.62,1.82Z"/>
        <path class="cls-1" d="M1062.2,184.21c-5.45,0-10.11-.94-14.02-2.83-3.91-1.89-6.91-4.8-9.02-8.74-2.12-3.94-3.3-8.88-3.56-14.83-.06-2.82-.09-5.52-.09-8.12s.03-5.29,.09-8.11c.26-5.89,1.49-10.8,3.7-14.74,2.2-3.94,5.27-6.88,9.21-8.84,3.94-1.95,8.5-2.93,13.69-2.93s9.84,.98,13.78,2.93c3.94,1.95,7.02,4.9,9.27,8.84,2.24,3.94,3.45,8.85,3.64,14.74,.13,2.82,.2,5.52,.2,8.11s-.07,5.3-.2,8.12c-.19,5.95-1.35,10.89-3.5,14.83-2.14,3.94-5.17,6.85-9.08,8.74-3.91,1.89-8.61,2.83-14.11,2.83Zm0-8.16c4.93,0,8.94-1.47,12.05-4.41,3.1-2.95,4.79-7.71,5.04-14.31,.13-2.88,.2-5.46,.2-7.73s-.07-4.81-.2-7.63c-.12-4.42-.94-8-2.45-10.76-1.5-2.75-3.51-4.77-6-6.05-2.5-1.28-5.38-1.92-8.64-1.92s-5.96,.64-8.45,1.92c-2.5,1.28-4.5,3.29-6,6.05-1.5,2.75-2.35,6.34-2.54,10.76-.07,2.82-.1,5.36-.1,7.63s.03,4.85,.1,7.73c.25,6.59,1.95,11.36,5.08,14.31,3.14,2.94,7.11,4.41,11.91,4.41Z"/>
        <path class="cls-1" d="M1113.38,183.25c-.64,0-1.17-.2-1.59-.62s-.62-.94-.62-1.58v-6.91c0-.64,.2-1.16,.62-1.58,.42-.41,.95-.62,1.59-.62h6.91c.64,0,1.16,.21,1.58,.62,.41,.42,.62,.95,.62,1.58v6.91c0,.64-.2,1.17-.62,1.58s-.95,.62-1.58,.62h-6.91Z"/>
      </g>
      <g>
        <path class="cls-1" d="M395.53,53.34c-.39,.08-.71,.03-.97-.16-.26-.18-.42-.45-.49-.81l-6.98-34.48c-.08-.39-.03-.72,.12-.99,.17-.27,.45-.44,.83-.52l21.81-4.42c.39-.08,.71-.02,.97,.16,.26,.19,.42,.47,.5,.86l.41,2.01c.08,.39,.03,.71-.14,.96-.16,.25-.44,.42-.83,.5l-17.95,3.64,2.34,11.56,16.79-3.4c.39-.08,.71-.02,.97,.16,.26,.18,.43,.47,.51,.86l.39,1.95c.07,.35,.03,.66-.14,.94-.16,.27-.44,.44-.83,.52l-16.79,3.4,2.43,11.99,18.37-3.72c.39-.08,.7-.03,.96,.13s.42,.45,.5,.83l.41,2.06c.07,.35,.03,.66-.14,.93-.16,.27-.44,.45-.83,.53l-22.23,4.5Z"/>
        <path class="cls-1" d="M454.74,44.28c-3.1,.35-5.77,.17-7.98-.53-2.22-.71-3.97-1.76-5.27-3.14-1.3-1.39-2.08-2.94-2.34-4.64-.03-.29,.05-.56,.26-.82,.2-.26,.47-.4,.79-.44l2.73-.31c.43-.05,.76,.02,1,.21,.24,.19,.41,.42,.51,.7,.28,.84,.81,1.63,1.6,2.39s1.85,1.34,3.18,1.75c1.33,.41,2.99,.5,4.99,.27,3.07-.35,5.27-1.15,6.58-2.4,1.33-1.25,1.88-2.79,1.68-4.61-.14-1.25-.64-2.21-1.49-2.89-.85-.68-2.1-1.23-3.74-1.66-1.64-.43-3.75-.86-6.33-1.29-2.69-.45-4.95-1.03-6.75-1.73-1.82-.7-3.22-1.66-4.21-2.88-.99-1.23-1.6-2.86-1.83-4.89-.22-1.93,.11-3.71,.97-5.34s2.22-3.01,4.06-4.12c1.84-1.11,4.16-1.83,6.94-2.14,2.21-.25,4.18-.17,5.91,.22,1.72,.4,3.2,1.03,4.42,1.88,1.21,.86,2.17,1.82,2.87,2.87,.7,1.06,1.13,2.12,1.29,3.19,.03,.25-.04,.5-.18,.75-.16,.25-.43,.4-.82,.44l-2.83,.32c-.25,.03-.52-.01-.8-.12s-.52-.36-.7-.73c-.38-1.44-1.34-2.58-2.89-3.41-1.54-.84-3.45-1.13-5.73-.87-2.32,.26-4.15,.92-5.5,1.98-1.34,1.06-1.91,2.53-1.69,4.42,.14,1.21,.59,2.18,1.36,2.91,.76,.73,1.92,1.31,3.45,1.75,1.54,.44,3.52,.87,5.95,1.28,2.94,.46,5.37,1.03,7.29,1.69,1.92,.67,3.39,1.6,4.41,2.8,1.02,1.2,1.65,2.82,1.88,4.86,.26,2.25-.12,4.24-1.11,5.95-1,1.72-2.51,3.12-4.54,4.2-2.03,1.08-4.49,1.78-7.38,2.11Z"/>
        <path class="cls-1" d="M501.52,39.8c-.36,.02-.66-.08-.91-.3-.25-.22-.38-.51-.4-.87l-1.77-31.63-10.32,.58c-.36,.02-.66-.08-.91-.3-.25-.22-.38-.51-.4-.87l-.12-2.26c-.02-.39,.08-.71,.3-.96s.51-.38,.87-.4l25.93-1.45c.39-.02,.71,.08,.96,.3,.24,.22,.38,.53,.4,.92l.12,2.26c.02,.36-.08,.66-.3,.91-.22,.25-.53,.38-.92,.4l-10.27,.58,1.77,31.63c.02,.36-.08,.66-.3,.9-.22,.25-.53,.38-.92,.4l-2.79,.15Z"/>
        <path class="cls-1" d="M536.85,38.41c-.36,0-.66-.1-.89-.33-.24-.23-.36-.52-.37-.88l-.08-3.88c0-.36,.11-.66,.33-.9,.23-.24,.53-.36,.88-.37l3.88-.08c.36,0,.66,.11,.89,.33,.24,.23,.37,.53,.37,.88l.08,3.88c.01,.36-.1,.66-.33,.89-.23,.24-.53,.36-.88,.37l-3.88,.08Z"/>
        <path class="cls-1" d="M566.31,38.1c-.36,0-.66-.13-.88-.36-.24-.24-.34-.54-.34-.89l.03-1.73c0-.32,.1-.68,.28-1.07,.19-.39,.55-.82,1.1-1.28l11.61-11.23c1.86-1.51,3.32-2.81,4.4-3.89,1.08-1.08,1.85-2.11,2.31-3.11,.47-1,.71-2.04,.73-3.11,.03-2.05-.51-3.68-1.64-4.9-1.13-1.22-2.82-1.85-5.08-1.89-1.44-.02-2.68,.25-3.74,.83s-1.88,1.37-2.49,2.38-1.01,2.16-1.22,3.46c-.08,.46-.27,.79-.58,.96s-.59,.26-.84,.25l-2.8-.05c-.32,0-.59-.11-.8-.31s-.32-.44-.31-.73c.06-1.36,.37-2.73,.93-4.11,.57-1.37,1.38-2.61,2.46-3.7s2.41-1.98,3.98-2.65,3.4-1,5.48-.96c2.83,.05,5.16,.6,6.95,1.65,1.8,1.06,3.11,2.43,3.95,4.13,.84,1.7,1.24,3.56,1.2,5.57-.03,1.58-.32,3.02-.87,4.32-.56,1.3-1.36,2.56-2.41,3.78-1.05,1.22-2.33,2.47-3.86,3.74l-10.52,10.33,16.81,.28c.39,0,.7,.12,.93,.34s.34,.53,.34,.92l-.03,2.21c0,.36-.13,.65-.37,.88s-.55,.34-.95,.33l-23.75-.39Z"/>
        <path class="cls-1" d="M627.79,40.87c-2.47-.16-4.53-.69-6.19-1.57-1.64-.88-2.97-2.04-3.95-3.48-.99-1.43-1.66-3.04-2.03-4.83-.37-1.79-.53-3.67-.46-5.65,.03-.97,.07-1.99,.12-3.07,.05-1.08,.13-2.16,.22-3.25,.09-1.09,.18-2.14,.29-3.14,.16-1.97,.57-3.82,1.2-5.56,.64-1.74,1.53-3.25,2.68-4.52,1.15-1.27,2.61-2.24,4.38-2.89,1.78-.65,3.88-.9,6.31-.74,2.47,.16,4.54,.69,6.18,1.58,1.66,.88,2.97,2.03,3.96,3.45,.99,1.41,1.68,3.03,2.08,4.84,.4,1.81,.55,3.7,.46,5.67-.03,1.01-.08,2.06-.13,3.15-.05,1.09-.12,2.18-.22,3.25-.09,1.07-.18,2.09-.28,3.06-.17,1.97-.57,3.81-1.21,5.53-.63,1.72-1.53,3.23-2.68,4.52-1.15,1.29-2.6,2.26-4.35,2.92-1.76,.66-3.89,.9-6.39,.73Zm.31-4.57c2.79,.19,4.92-.6,6.39-2.35,1.47-1.76,2.32-4.23,2.57-7.41,.14-1.03,.24-2.04,.31-3.03s.13-1.97,.2-2.96c.07-.99,.1-1.97,.09-2.94,.17-3.12-.36-5.67-1.57-7.63s-3.22-3.05-6.02-3.24c-2.76-.18-4.88,.62-6.35,2.41s-2.35,4.24-2.62,7.36c-.07,.97-.14,1.95-.22,2.93-.08,.98-.14,1.97-.2,2.96-.05,.99-.11,2-.17,3.04-.14,3.2,.41,5.76,1.64,7.7s3.22,3,5.94,3.18Z"/>
        <path class="cls-1" d="M665.37,43.56c-.36-.05-.64-.2-.84-.46-.2-.26-.28-.57-.24-.92l.22-1.71c.04-.32,.17-.67,.41-1.04,.22-.37,.64-.75,1.23-1.14l12.8-9.85c2.01-1.3,3.62-2.42,4.81-3.37,1.2-.95,2.08-1.89,2.65-2.83s.93-1.94,1.07-3.01c.26-2.03-.1-3.72-1.09-5.06s-2.6-2.16-4.84-2.45c-1.43-.19-2.7-.05-3.8,.4-1.11,.45-2.03,1.15-2.74,2.09-.72,.94-1.25,2.04-1.6,3.29-.13,.45-.36,.75-.68,.89-.33,.14-.61,.19-.86,.16l-2.78-.36c-.32-.04-.57-.17-.76-.4s-.26-.48-.23-.76c.21-1.35,.68-2.68,1.39-3.98,.72-1.3,1.66-2.44,2.86-3.4,1.19-.97,2.61-1.7,4.25-2.19,1.64-.49,3.49-.61,5.56-.34,2.81,.36,5.06,1.17,6.72,2.42,1.67,1.25,2.82,2.77,3.46,4.55s.83,3.68,.57,5.67c-.21,1.57-.66,2.97-1.36,4.2-.7,1.23-1.64,2.4-2.82,3.49-1.17,1.1-2.59,2.19-4.25,3.28l-11.61,9.09,16.67,2.16c.39,.05,.69,.2,.89,.44s.28,.56,.23,.95l-.29,2.19c-.04,.36-.2,.63-.46,.84-.26,.2-.59,.28-.98,.23l-23.56-3.05Z"/>
        <path class="cls-1" d="M723.73,53.12c-.36-.08-.62-.25-.8-.53-.18-.28-.23-.59-.15-.94l6.39-29.48-10.2,4.84c-.33,.15-.64,.17-.95,.07s-.54-.32-.68-.64l-.99-2.04c-.14-.36-.15-.69-.03-1,.12-.3,.34-.53,.67-.68l13.4-6.36c.28-.12,.53-.18,.76-.17,.22,.01,.45,.04,.7,.1l2.68,.59c.35,.08,.61,.25,.76,.52,.16,.28,.21,.59,.13,.94l-7.47,34.43c-.07,.35-.24,.62-.5,.8-.26,.18-.57,.24-.92,.16l-2.79-.61Z"/>
      </g>
    </g>
  </g>
</svg>